SplineFontDB: 3.2
FontName: Entity-SemiBoldOblique
FullName: Entity SemiBold Oblique
FamilyName: Entity
Weight: Bold
Copyright: Based on Geist Copyright 2024 The Geist Project Authors https:github.comvercelgeist-font.git
Version: 0.1
ItalicAngle: -10
UnderlinePosition: -125
UnderlineWidth: 50
Ascent: 800
Descent: 200
InvalidEm: 0
sfntRevision: 0x0000199a
LayerCount: 2
Layer: 0 0 "Back" 1
Layer: 1 0 "Fore" 0
XUID: [1021 1008 -1557834819 1451863]
StyleMap: 0x0040
FSType: 0
OS2Version: 4
OS2_WeightWidthSlopeOnly: 0
OS2_UseTypoMetrics: 1
CreationTime: 1728311655
ModificationTime: 1746831772
PfmFamily: 81
TTFWeight: 600
TTFWidth: 5
LineGap: 0
VLineGap: 0
Panose: 0 0 0 0 0 0 0 0 0 0
OS2TypoAscent: 1005
OS2TypoAOffset: 0
OS2TypoDescent: -295
OS2TypoDOffset: 0
OS2TypoLinegap: 0
OS2WinAscent: 1012
OS2WinAOffset: 0
OS2WinDescent: 262
OS2WinDOffset: 0
HheadAscent: 1005
HheadAOffset: 0
HheadDescent: -295
HheadDOffset: 0
OS2SubXSize: 650
OS2SubYSize: 600
OS2SubXOff: 0
OS2SubYOff: 75
OS2SupXSize: 650
OS2SupYSize: 600
OS2SupXOff: 0
OS2SupYOff: 350
OS2StrikeYSize: 50
OS2StrikeYPos: 320
OS2CapHeight: 710
OS2XHeight: 534
OS2Vendor: 'VRCL'
OS2CodePages: 20000097.00000000
OS2UnicodeRanges: a10002ff.5001e5fb.00000000.00000000
Lookup: 1 0 0 "'aalt' Access All Alternates in Latin lookup 0" { "'aalt' Access All Alternates in Latin lookup 0 subtable"  } ['aalt' ('DFLT' <'dflt' > 'latn' <'AZE ' 'CAT ' 'CRT ' 'KAZ ' 'MAH ' 'MOL ' 'NLD ' 'ROM ' 'TAT ' 'TRK ' 'dflt' > ) ]
Lookup: 3 0 0 "'aalt' Access All Alternates in Latin lookup 1" { "'aalt' Access All Alternates in Latin lookup 1 subtable"  } ['aalt' ('DFLT' <'dflt' > 'latn' <'AZE ' 'CAT ' 'CRT ' 'KAZ ' 'MAH ' 'MOL ' 'NLD ' 'ROM ' 'TAT ' 'TRK ' 'dflt' > ) ]

StartChar: .notdef
Encoding: 65536 -1 0
Width: 600
GlyphClass: 1
Flags: HMW
HStem: 0 36<95 510 95 565> 674 36<95 95 95 510>
VStem: 40 33<64 646 64 710> 532 33<64 646 646 646>
LayerCount: 2
Fore
SplineSet
-22.595703125 0 m 1
 102.595703125 710 l 1
 627.595703125 710 l 1
 502.404296875 0 l 1
 -22.595703125 0 l 1
151.248046875 674 m 1
 308.11328125 384 l 1
 566.248046875 674 l 1
 151.248046875 674 l 1
124.311523438 646 m 1
 21.6884765625 64 l 1
 282 355 l 1
 124.311523438 646 l 1
323 355 m 1
 480.688476562 64 l 1
 583.311523438 646 l 1
 323 355 l 1
38.751953125 36 m 1
 453.751953125 36 l 1
 297.88671875 326 l 1
 38.751953125 36 l 1
EndSplineSet
Validated: 1
EndChar

StartChar: A
Encoding: 65 65 1
Width: 709
GlyphClass: 2
Flags: HMW
HStem: 0 21G<19 19 19 155 554 554 554 690> 168 111<252 457 252 495 214 457> 579 131<355 355> 690 20G<275 434 434 434>
VStem: 19 671<0 0>
AnchorPoint: "Anchor-3" 417.596 710 basechar 0
AnchorPoint: "Anchor-2" 627.404 0 basechar 0
AnchorPoint: "Anchor-0" 292.404 0 basechar 0
LayerCount: 2
Fore
SplineSet
-43.595703125 0 m 1xd8
 337.595703125 710 l 1
 496.595703125 710 l 1
 627.404296875 0 l 1
 491.404296875 0 l 1
 462.026367188 168 l 1
 181.026367188 168 l 1
 92.404296875 0 l 1
 -43.595703125 0 l 1xd8
238.599609375 279 m 1
 443.599609375 279 l 1
 394.497070312 579 l 1xe8
 238.599609375 279 l 1
EndSplineSet
Validated: 1
Substitution2: "Single Substitution lookup 27 subtable" ordfeminine
Substitution2: "'aalt' Access All Alternates in Latin lookup 0 subtable" ordfeminine
EndChar

StartChar: Aacute
Encoding: 193 193 2
Width: 709
GlyphClass: 2
Flags: HMW
HStem: 0 21G<19 19 19 155 554 554 554 690> 168 111<252 457 252 495 214 457> 579 131<355 355> 690 20G<275 434 434 434> 770 140<297 487 358 397>
VStem: 19 671<0 0>
AnchorPoint: "Anchor-3" 399.964 710 basechar 0
AnchorPoint: "Anchor-2" 609.771 0 basechar 0
AnchorPoint: "Anchor-0" 274.771 0 basechar 0
LayerCount: 2
Fore
SplineSet
352.54296875 770 m 1xdc
 438.228515625 910 l 1
 567.228515625 910 l 1
 452.54296875 770 l 1
 352.54296875 770 l 1xdc
-61.228515625 0 m 1
 319.963867188 710 l 1
 478.963867188 710 l 1
 609.771484375 0 l 1
 473.771484375 0 l 1
 444.39453125 168 l 1
 163.39453125 168 l 1
 74.771484375 0 l 1
 -61.228515625 0 l 1
220.966796875 279 m 1
 425.966796875 279 l 1
 376.864257812 579 l 1xec
 220.966796875 279 l 1
EndSplineSet
Validated: 1
EndChar

StartChar: Abreve
Encoding: 258 258 3
Width: 709
GlyphClass: 2
Flags: HMW
HStem: 0 21G<19 19 19 155 554 554 554 690> 168 111<252 457 252 495 214 457> 579 131<355 355> 690 20G<275 434 434 434> 771 76<334 376 334 399.5>
VStem: 19 671<0 0>
AnchorPoint: "Anchor-3" 399.787 710 basechar 0
AnchorPoint: "Anchor-2" 609.595 0 basechar 0
AnchorPoint: "Anchor-0" 274.595 0 basechar 0
LayerCount: 2
Fore
SplineSet
410.54296875 771 m 0xdc
 321.54296875 771 272.888671875 824 284.405273438 912 c 1
 361.405273438 912 l 1
 358.293945312 866 381.944335938 847 423.944335938 847 c 0
 465.944335938 847 495.293945312 866 508.405273438 912 c 1
 585.405273438 912 l 1
 565.888671875 824 499.54296875 771 410.54296875 771 c 0xdc
-61.4052734375 0 m 1
 319.787109375 710 l 1
 478.787109375 710 l 1
 609.594726562 0 l 1
 473.594726562 0 l 1
 444.217773438 168 l 1
 163.217773438 168 l 1
 74.5947265625 0 l 1
 -61.4052734375 0 l 1
220.790039062 279 m 1
 425.790039062 279 l 1
 376.688476562 579 l 1xec
 220.790039062 279 l 1
EndSplineSet
Validated: 33
EndChar

StartChar: uni01CD
Encoding: 461 461 4
Width: 709
GlyphClass: 2
Flags: HMW
HStem: 0 21G<19 19 19 155 554 554 554 690> 168 111<252 457 252 495 214 457> 579 131<355 355> 690 20G<275 434 434 434> 770 146<197 419 197 291>
VStem: 19 671<0 0>
AnchorPoint: "Anchor-3" 399.435 710 basechar 0
AnchorPoint: "Anchor-2" 609.242 0 basechar 0
AnchorPoint: "Anchor-0" 274.242 0 basechar 0
LayerCount: 2
Fore
SplineSet
277.7578125 916 m 1xdc
 370.7578125 916 l 1
 420.064453125 827 l 1
 499.7578125 916 l 1
 593.7578125 916 l 1
 474.013671875 770 l 1
 346.013671875 770 l 1
 277.7578125 916 l 1xdc
-61.7578125 0 m 1
 319.434570312 710 l 1
 478.434570312 710 l 1
 609.2421875 0 l 1
 473.2421875 0 l 1
 443.865234375 168 l 1
 162.865234375 168 l 1
 74.2421875 0 l 1
 -61.7578125 0 l 1
220.4375 279 m 1
 425.4375 279 l 1
 376.3359375 579 l 1xec
 220.4375 279 l 1
EndSplineSet
Validated: 1
EndChar

StartChar: Acircumflex
Encoding: 194 194 5
Width: 709
GlyphClass: 2
Flags: HMW
HStem: 0 21G<19 19 19 155 554 554 554 690> 168 111<252 457 252 495 214 457> 579 131<355 355> 690 20G<275 434 434 434> 770 146<197 419 197 419 291 419 291 513>
VStem: 19 671<0 0>
AnchorPoint: "Anchor-3" 399.435 710 basechar 0
AnchorPoint: "Anchor-2" 609.242 0 basechar 0
AnchorPoint: "Anchor-0" 274.242 0 basechar 0
LayerCount: 2
Fore
SplineSet
252.013671875 770 m 1xdc
 371.7578125 916 l 1
 499.7578125 916 l 1
 568.013671875 770 l 1
 474.013671875 770 l 1
 425.70703125 859 l 1
 345.013671875 770 l 1
 252.013671875 770 l 1xdc
-61.7578125 0 m 1
 319.434570312 710 l 1
 478.434570312 710 l 1
 609.2421875 0 l 1
 473.2421875 0 l 1
 443.865234375 168 l 1
 162.865234375 168 l 1
 74.2421875 0 l 1
 -61.7578125 0 l 1
220.4375 279 m 1
 425.4375 279 l 1
 376.3359375 579 l 1xec
 220.4375 279 l 1
EndSplineSet
Validated: 1
EndChar

StartChar: Adieresis
Encoding: 196 196 6
Width: 709
GlyphClass: 2
Flags: HMW
HStem: 0 21G<19 19 19 155 554 554 554 690> 168 111<252 457 252 495 214 457> 579 131<355 355> 690 20G<275 434 434 434> 780 113<192 317 192 317 393 518 192 393>
VStem: 192 125<780 893 780 893> 393 125<780 893 780 893>
AnchorPoint: "Anchor-3" 401.462 710 basechar 0
AnchorPoint: "Anchor-2" 611.27 0 basechar 0
AnchorPoint: "Anchor-0" 276.27 0 basechar 0
LayerCount: 2
Fore
SplineSet
250.8046875 780 m 1xde
 270.73046875 893 l 1
 395.73046875 893 l 1
 375.8046875 780 l 1
 250.8046875 780 l 1xde
451.8046875 780 m 1
 471.73046875 893 l 1
 596.73046875 893 l 1
 576.8046875 780 l 1
 451.8046875 780 l 1
-59.73046875 0 m 1
 321.461914062 710 l 1
 480.461914062 710 l 1
 611.26953125 0 l 1
 475.26953125 0 l 1
 445.892578125 168 l 1
 164.892578125 168 l 1
 76.26953125 0 l 1
 -59.73046875 0 l 1
222.46484375 279 m 1
 427.46484375 279 l 1
 378.36328125 579 l 1xee
 222.46484375 279 l 1
EndSplineSet
Validated: 1
Substitution2: "'ss08' Style Set 8 in Latin lookup 41 subtable" Adieresis.ss08
Substitution2: "'aalt' Access All Alternates in Latin lookup 0 subtable" Adieresis.ss08
EndChar

StartChar: Agrave
Encoding: 192 192 7
Width: 709
GlyphClass: 2
Flags: HMW
HStem: 0 21G<19 19 19 155 554 554 554 690> 168 111<252 457 252 495 214 457> 579 131<355 355> 690 20G<275 434 434 434> 775 141<313 313 313 351 223 412>
VStem: 19 671<0 0>
AnchorPoint: "Anchor-3" 399.435 710 basechar 0
AnchorPoint: "Anchor-2" 609.242 0 basechar 0
AnchorPoint: "Anchor-0" 274.242 0 basechar 0
LayerCount: 2
Fore
SplineSet
368.895507812 775 m 1xdc
 303.7578125 916 l 1
 431.7578125 916 l 1
 467.895507812 775 l 1
 368.895507812 775 l 1xdc
-61.7578125 0 m 1
 319.434570312 710 l 1
 478.434570312 710 l 1
 609.2421875 0 l 1
 473.2421875 0 l 1
 443.865234375 168 l 1
 162.865234375 168 l 1
 74.2421875 0 l 1
 -61.7578125 0 l 1
220.4375 279 m 1
 425.4375 279 l 1
 376.3359375 579 l 1xec
 220.4375 279 l 1
EndSplineSet
Validated: 1
EndChar

StartChar: Amacron
Encoding: 256 256 8
Width: 709
GlyphClass: 2
Flags: HMW
HStem: 0 21G<19 19 19 155 554 554 554 690> 168 111<252 457 252 495 214 457> 579 131<355 355> 690 20G<275 434 434 434> 789 97<210 499 210 499>
VStem: 19 671<0 0> 210 289<789 886 789 886>
AnchorPoint: "Anchor-3" 402.079 710 basechar 0
AnchorPoint: "Anchor-2" 611.887 0 basechar 0
AnchorPoint: "Anchor-0" 276.887 0 basechar 0
LayerCount: 2
Fore
SplineSet
271.008789062 789 m 1xda
 288.11328125 886 l 1
 577.11328125 886 l 1
 560.008789062 789 l 1
 271.008789062 789 l 1xda
-59.11328125 0 m 1
 322.079101562 710 l 1
 481.079101562 710 l 1
 611.88671875 0 l 1
 475.88671875 0 l 1
 446.509765625 168 l 1
 165.509765625 168 l 1
 76.88671875 0 l 1xdc
 -59.11328125 0 l 1
223.08203125 279 m 1
 428.08203125 279 l 1
 378.98046875 579 l 1xec
 223.08203125 279 l 1
EndSplineSet
Validated: 1
EndChar

StartChar: Aogonek
Encoding: 260 260 9
Width: 709
GlyphClass: 2
Flags: HMW
HStem: -215 83<646.5 647> 0 21G<19 19 19 155 554 554 554 588 690 690> 168 111<252 457 252 495 214 457> 579 131<355 355> 690 20G<275 434 434 434>
VStem: 19 707<-189 0> 520 107<-115.5 -114.5>
AnchorPoint: "Anchor-3" 436.551 710 basechar 0
AnchorPoint: "Anchor-2" 646.359 0 basechar 0
AnchorPoint: "Anchor-0" 311.359 0 basechar 0
LayerCount: 2
Fore
SplineSet
-24.640625 0 m 1xec
 356.55078125 710 l 1
 515.55078125 710 l 1
 646.359375 0 l 1
 606.953125 -42 l 2
 580.663085938 -72 567.313476562 -91 564.4921875 -107 c 0xea
 561.494140625 -124 572.083984375 -132 587.083984375 -132 c 0
 605.083984375 -132 622.965820312 -127 635.375976562 -119 c 1
 649.033203125 -189 l 1xec
 629.564453125 -203 585.44921875 -215 545.44921875 -215 c 0
 478.44921875 -215 443.385742188 -187 452.731445312 -134 c 0xea
 459.608398438 -95 493.661132812 -55 524.833007812 -20 c 2
 544.359375 0 l 1
 510.359375 0 l 1
 480.982421875 168 l 1
 199.982421875 168 l 1
 111.359375 0 l 1
 -24.640625 0 l 1xec
257.5546875 279 m 1
 462.5546875 279 l 1
 413.452148438 579 l 1xf4
 257.5546875 279 l 1
EndSplineSet
Validated: 33
EndChar

StartChar: Aring
Encoding: 197 197 10
Width: 713
GlyphClass: 2
Flags: HMW
HStem: 0 21G<15 15 15 151 549 549 549 686> 168 111<248 453 248 491 210 453> 579 131<351 351> 690 20G<271 430 430 430> 755 60<341 363 341 380> 892 60<341 363>
VStem: 253 60<842.5 865 842.5 882> 391 60<842.5 865>
AnchorPoint: "Anchor-3" 392.261 710 basechar 0
AnchorPoint: "Anchor-2" 602.068 0 basechar 0
AnchorPoint: "Anchor-0" 267.068 0 basechar 0
LayerCount: 2
Fore
SplineSet
401.1953125 755 m 0xdf
 345.1953125 755 309.77734375 798 319.651367188 854 c 0
 329.526367188 910 379.931640625 952 435.931640625 952 c 0
 491.931640625 952 527.526367188 910 517.651367188 854 c 0
 507.77734375 798 457.1953125 755 401.1953125 755 c 0xdf
411.774414062 815 m 0
 433.774414062 815 453.595703125 831 457.651367188 854 c 0
 461.53125 876 447.3515625 892 425.3515625 892 c 0
 403.3515625 892 383.53125 876 379.651367188 854 c 0
 375.595703125 831 389.774414062 815 411.774414062 815 c 0
-68.931640625 0 m 1
 312.260742188 710 l 1
 471.260742188 710 l 1
 602.068359375 0 l 1
 465.068359375 0 l 1
 436.69140625 168 l 1
 155.69140625 168 l 1
 67.068359375 0 l 1
 -68.931640625 0 l 1
213.263671875 279 m 1
 418.263671875 279 l 1
 369.162109375 579 l 1xef
 213.263671875 279 l 1
EndSplineSet
Validated: 33
EndChar

StartChar: Atilde
Encoding: 195 195 11
Width: 713
GlyphClass: 2
Flags: HMW
HStem: 0 21G<15 15 15 151 549 549 549 686> 168 111<248 453 248 491 210 453> 579 131<351 351> 690 20G<271 430 430 430> 777 134<179 300 179 300> 784 78<399.5 417 399.5 437> 784 136<388.5 512> 833 78<275.5 294>
VStem: 179 67<777 777> 445 67<920 920>
AnchorPoint: "Anchor-3" 395.082 710 basechar 0
AnchorPoint: "Anchor-2" 604.89 0 basechar 0
AnchorPoint: "Anchor-0" 269.89 0 basechar 0
LayerCount: 2
Fore
SplineSet
460.129882812 784 m 0xd2c0
 431.129882812 784 412.541015625 792 391.067382812 812 c 0
 375.711914062 827 367.76953125 833 351.76953125 833 c 0xd1c0
 330.76953125 833 312.654296875 821 301.895507812 777 c 1xd8c0
 234.895507812 777 l 1
 250.70703125 861 299.5234375 911 363.5234375 911 c 0xd1c0
 395.5234375 911 416.936523438 902 438.41015625 882 c 0
 453.764648438 867 463.883789062 862 476.883789062 862 c 0xd4c0
 498.883789062 862 514.999023438 874 526.110351562 920 c 1
 593.110351562 920 l 1
 576.123046875 835 528.129882812 784 460.129882812 784 c 0xd2c0
-66.1103515625 0 m 1
 315.08203125 710 l 1
 474.08203125 710 l 1
 604.889648438 0 l 1
 467.889648438 0 l 1
 439.512695312 168 l 1
 158.512695312 168 l 1
 69.8896484375 0 l 1
 -66.1103515625 0 l 1
216.084960938 279 m 1
 421.084960938 279 l 1
 371.983398438 579 l 1xe1c0
 216.084960938 279 l 1
EndSplineSet
Validated: 1
EndChar

StartChar: AE
Encoding: 198 198 12
Width: 1019
GlyphClass: 2
Flags: HMW
HStem: 0 113<644 969 644 969> 168 111<302 514 302 514 245 514> 300 112<644 949 644 949> 597 113<644 961 644 644> 599 111<468 514 468 468>
VStem: 514 130<113 168 168 168 279 300 412 597>
AnchorPoint: "Anchor-3" 604.596 710 basechar 0
AnchorPoint: "Anchor-0" 479.404 0 basechar 0
LayerCount: 2
Fore
SplineSet
-43.595703125 0 m 1xd4
 461.595703125 710 l 1
 1023.59570312 710 l 1
 1003.67089844 597 l 1
 686.670898438 597 l 1
 654.05078125 412 l 1
 959.05078125 412 l 1
 939.301757812 300 l 1
 634.301757812 300 l 1xb4
 601.329101562 113 l 1
 926.329101562 113 l 1
 906.404296875 0 l 1
 451.404296875 0 l 1
 481.026367188 168 l 1
 212.026367188 168 l 1
 95.404296875 0 l 1
 -43.595703125 0 l 1xd4
557.0234375 599 m 1xcc
 511.0234375 599 l 1
 288.599609375 279 l 1
 500.599609375 279 l 1
 557.0234375 599 l 1xcc
EndSplineSet
Validated: 1
EndChar

StartChar: B
Encoding: 66 66 13
Width: 695
GlyphClass: 2
Flags: HMW
HStem: 0 110<210 376 376 382> 310 57 310 102<210 342 342 376 210 342> 600 110<210 342 210 210>
VStem: 80 130<110 110 110 310 412 600> 478 133<476 538> 508 133<176.5 242>
AnchorPoint: "Anchor-3" 410.596 710 basechar 0
AnchorPoint: "Anchor-0" 285.404 0 basechar 0
LayerCount: 2
Fore
SplineSet
17.404296875 0 m 1xda
 142.595703125 710 l 1
 408.595703125 710 l 2
 581.595703125 710 663.192382812 651 639.741210938 518 c 0xbc
 624.9296875 434 564.055664062 378 473.116210938 367 c 1
 580.176757812 356 629.891601562 292 612.788085938 195 c 0
 589.865234375 65 485.404296875 0 319.404296875 0 c 2
 17.404296875 0 l 1xda
220.05078125 412 m 1
 352.05078125 412 l 2
 437.05078125 412 493.869140625 445 504.625 506 c 0
 515.91015625 570 473.200195312 600 385.200195312 600 c 2
 253.200195312 600 l 1
 220.05078125 412 l 1
166.799804688 110 m 1
 332.799804688 110 l 2
 413.799804688 110 470.794921875 144 482.255859375 209 c 0xba
 493.893554688 275 450.065429688 310 368.065429688 310 c 2
 202.065429688 310 l 1
 166.799804688 110 l 1
EndSplineSet
Validated: 33
EndChar

StartChar: C
Encoding: 67 67 14
Width: 724
GlyphClass: 2
Flags: HMW
HStem: -16 113<313 425 313 461.5> 613 113<312.5 422>
VStem: 43 134<274 433 274 468>
AnchorPoint: "Anchor-3" 434.596 710 basechar 0
AnchorPoint: "Anchor-0" 311.404 0 basechar 0
LayerCount: 2
Fore
SplineSet
306.583007812 -16 m 0
 112.583007812 -16 1.916015625 122 42.8232421875 354 c 0
 83.0263671875 582 239.416992188 726 438.416992188 726 c 0
 619.416992188 726 699.666015625 631 702.27734375 470 c 1
 565.04296875 463 l 1
 563.44140625 556 516.4921875 613 418.4921875 613 c 0
 297.4921875 613 204.68359375 512 176.823242188 354 c 0
 148.611328125 194 208.5078125 97 326.5078125 97 c 0
 432.5078125 97 499.263671875 158 533.249023438 260 c 1
 668.014648438 253 l 1
 610.568359375 86 485.583007812 -16 306.583007812 -16 c 0
EndSplineSet
Validated: 33
EndChar

StartChar: Cacute
Encoding: 262 262 15
Width: 724
GlyphClass: 2
Flags: HMW
HStem: -16 113<313 425 313 461.5> 613 113<312.5 422> 770 140<314 504 375 414>
VStem: 43 134<274 433 274 468>
AnchorPoint: "Anchor-3" 418.374 710 basechar 0
AnchorPoint: "Anchor-0" 295.182 0 basechar 0
LayerCount: 2
Fore
SplineSet
370.954101562 770 m 1
 456.639648438 910 l 1
 585.639648438 910 l 1
 470.954101562 770 l 1
 370.954101562 770 l 1
290.360351562 -16 m 0
 96.3603515625 -16 -14.306640625 122 26.6015625 354 c 0
 66.8037109375 582 223.1953125 726 422.1953125 726 c 0
 603.1953125 726 683.444335938 631 686.055664062 470 c 1
 548.821289062 463 l 1
 547.219726562 556 500.270507812 613 402.270507812 613 c 0
 281.270507812 613 188.4609375 512 160.6015625 354 c 0
 132.389648438 194 192.28515625 97 310.28515625 97 c 0
 416.28515625 97 483.041015625 158 517.026367188 260 c 1
 651.79296875 253 l 1
 594.345703125 86 469.360351562 -16 290.360351562 -16 c 0
EndSplineSet
Validated: 33
EndChar

StartChar: Ccaron
Encoding: 268 268 16
Width: 724
GlyphClass: 2
Flags: HMW
HStem: -16 113<313 425 313 461.5> 613 113<312.5 422> 770 146<214 436 214 308>
VStem: 43 134<274 433 274 468>
AnchorPoint: "Anchor-3" 417.845 710 basechar 0
AnchorPoint: "Anchor-0" 294.653 0 basechar 0
LayerCount: 2
Fore
SplineSet
296.16796875 916 m 1
 389.16796875 916 l 1
 438.475585938 827 l 1
 519.16796875 916 l 1
 612.16796875 916 l 1
 492.424804688 770 l 1
 364.424804688 770 l 1
 296.16796875 916 l 1
289.83203125 -16 m 0
 95.83203125 -16 -14.8349609375 122 26.072265625 354 c 0
 66.275390625 582 222.666015625 726 421.666015625 726 c 0
 602.666015625 726 682.915039062 631 685.526367188 470 c 1
 548.291992188 463 l 1
 546.690429688 556 499.741210938 613 401.741210938 613 c 0
 280.741210938 613 187.932617188 512 160.072265625 354 c 0
 131.860351562 194 191.756835938 97 309.756835938 97 c 0
 415.756835938 97 482.512695312 158 516.498046875 260 c 1
 651.263671875 253 l 1
 593.817382812 86 468.83203125 -16 289.83203125 -16 c 0
EndSplineSet
Validated: 33
EndChar

StartChar: Ccedilla
Encoding: 199 199 17
Width: 724
GlyphClass: 2
Flags: HMW
HStem: -228 67<348.5 379.5 348.5 401> -82 49<346 393> -82 179<346 374> -14 21G<329 329> -14 111<329 329> 613 113<312.5 422>
VStem: 43 134<274 433 274 468> 414 75<-135 -111>
AnchorPoint: "Anchor-3" 453.287 710 basechar 0
AnchorPoint: "Anchor-0" 330.095 0 basechar 0
LayerCount: 2
Fore
SplineSet
282.891601562 -228 m 0xc7
 216.891601562 -228 180.88671875 -194 173.174804688 -147 c 1
 238.758789062 -121 l 1
 244.998046875 -148 260.706054688 -161 291.706054688 -161 c 0
 322.706054688 -161 344.174804688 -147 348.40625 -123 c 0
 352.638671875 -99 343.635742188 -82 287.635742188 -82 c 1xa7
 256.807617188 -47 l 1
 282.625976562 -14 l 1x97
 115.9765625 5 23.7802734375 140 61.5146484375 354 c 0
 101.716796875 582 258.108398438 726 457.108398438 726 c 0
 638.108398438 726 718.356445312 631 720.96875 470 c 1
 583.734375 463 l 1
 582.1328125 556 535.182617188 613 437.182617188 613 c 0
 316.182617188 613 223.374023438 512 195.514648438 354 c 0
 167.301757812 194 227.198242188 97 345.198242188 97 c 0x8f
 451.198242188 97 517.954101562 158 551.939453125 260 c 1
 686.705078125 253 l 1
 633.198242188 97 520.565429688 -3 358.44921875 -15 c 1
 343.275390625 -33 l 1
 408.39453125 -38 431.693359375 -76 422.876953125 -126 c 0
 411.240234375 -192 350.891601562 -228 282.891601562 -228 c 0xc7
EndSplineSet
Validated: 33
EndChar

StartChar: Ccircumflex
Encoding: 264 264 18
Width: 724
GlyphClass: 2
Flags: HMW
HStem: -16 113<313 425 313 461.5> 613 113<312.5 422> 770 146<214 436 214 436 308 437 308 530>
VStem: 43 134<274 433 274 468>
AnchorPoint: "Anchor-3" 417.845 710 basechar 0
AnchorPoint: "Anchor-0" 294.653 0 basechar 0
LayerCount: 2
Fore
SplineSet
270.424804688 770 m 1
 390.16796875 916 l 1
 518.16796875 916 l 1
 586.424804688 770 l 1
 493.424804688 770 l 1
 444.118164062 859 l 1
 363.424804688 770 l 1
 270.424804688 770 l 1
289.83203125 -16 m 0
 95.83203125 -16 -14.8349609375 122 26.072265625 354 c 0
 66.275390625 582 222.666015625 726 421.666015625 726 c 0
 602.666015625 726 682.915039062 631 685.526367188 470 c 1
 548.291992188 463 l 1
 546.690429688 556 499.741210938 613 401.741210938 613 c 0
 280.741210938 613 187.932617188 512 160.072265625 354 c 0
 131.860351562 194 191.756835938 97 309.756835938 97 c 0
 415.756835938 97 482.512695312 158 516.498046875 260 c 1
 651.263671875 253 l 1
 593.817382812 86 468.83203125 -16 289.83203125 -16 c 0
EndSplineSet
Validated: 33
EndChar

StartChar: Cdotaccent
Encoding: 266 266 19
Width: 724
GlyphClass: 2
Flags: HMW
HStem: -16 113<313 425 313 461.5> 613 113<312.5 422> 781 114<306 438 306 438>
VStem: 43 134<274 433 274 468> 306 132<781 895 781 895>
AnchorPoint: "Anchor-3" 419.696 710 basechar 0
AnchorPoint: "Anchor-0" 296.504 0 basechar 0
LayerCount: 2
Fore
SplineSet
366.215820312 781 m 1
 386.317382812 895 l 1
 518.317382812 895 l 1
 498.215820312 781 l 1
 366.215820312 781 l 1
291.682617188 -16 m 0
 97.6826171875 -16 -12.9833984375 122 27.923828125 354 c 0
 68.126953125 582 224.517578125 726 423.517578125 726 c 0
 604.517578125 726 684.766601562 631 687.377929688 470 c 1
 550.143554688 463 l 1
 548.541992188 556 501.592773438 613 403.592773438 613 c 0
 282.592773438 613 189.784179688 512 161.923828125 354 c 0
 133.711914062 194 193.608398438 97 311.608398438 97 c 0
 417.608398438 97 484.364257812 158 518.349609375 260 c 1
 653.115234375 253 l 1
 595.66796875 86 470.682617188 -16 291.682617188 -16 c 0
EndSplineSet
Validated: 33
Substitution2: "'ss08' Style Set 8 in Latin lookup 41 subtable" Cdotaccent.ss08
Substitution2: "'aalt' Access All Alternates in Latin lookup 0 subtable" Cdotaccent.ss08
EndChar

StartChar: D
Encoding: 68 68 20
Width: 712
GlyphClass: 2
Flags: HMW
HStem: 0 113<210 316 316 322> 597 113<210 316 210 210>
VStem: 80 130<113 113 113 597> 535 134<273 436>
AnchorPoint: "Anchor-3" 387.596 710 basechar 0
AnchorPoint: "Anchor-1" 206 355 basechar 0
AnchorPoint: "Anchor-0" 262.404 0 basechar 0
LayerCount: 2
Fore
SplineSet
17.404296875 0 m 1
 142.595703125 710 l 1
 378.595703125 710 l 2
 604.595703125 710 709.026367188 582 668.823242188 354 c 0
 628.797851562 127 482.404296875 0 259.404296875 0 c 2
 17.404296875 0 l 1
167.329101562 113 m 1
 273.329101562 113 l 2
 421.329101562 113 506.258789062 192 534.823242188 354 c 0
 563.741210938 518 506.670898438 597 358.670898438 597 c 2
 252.670898438 597 l 1
 167.329101562 113 l 1
EndSplineSet
Validated: 33
EndChar

StartChar: Dcaron
Encoding: 270 270 21
Width: 712
GlyphClass: 2
Flags: HMW
HStem: 0 113<210 316 316 322> 597 113<210 316 210 210> 770 146<167 388 167 261>
VStem: 80 130<113 113 113 597> 535 134<273 436>
AnchorPoint: "Anchor-3" 369.435 710 basechar 0
AnchorPoint: "Anchor-1" 187.838 355 basechar 0
AnchorPoint: "Anchor-0" 244.242 0 basechar 0
LayerCount: 2
Fore
SplineSet
247.7578125 916 m 1
 340.7578125 916 l 1
 390.064453125 827 l 1
 469.7578125 916 l 1
 562.7578125 916 l 1
 443.013671875 770 l 1
 316.013671875 770 l 1
 247.7578125 916 l 1
-0.7578125 0 m 1
 124.434570312 710 l 1
 360.434570312 710 l 2
 586.434570312 710 690.864257812 582 650.662109375 354 c 0
 610.635742188 127 464.2421875 0 241.2421875 0 c 2
 -0.7578125 0 l 1
149.166992188 113 m 1
 255.166992188 113 l 2
 403.166992188 113 488.096679688 192 516.662109375 354 c 0
 545.580078125 518 488.509765625 597 340.509765625 597 c 2
 234.509765625 597 l 1
 149.166992188 113 l 1
EndSplineSet
Validated: 33
EndChar

StartChar: Dcroat
Encoding: 272 272 22
Width: 712
GlyphClass: 2
Flags: HMW
HStem: 0 113<210 316 316 322> 304 102<12 80 12 80 210 400> 597 113<210 316 210 210>
VStem: 80 130<113 113 113 304 406 597> 535 134<273 436>
AnchorPoint: "Anchor-3" 387.596 710 basechar 0
AnchorPoint: "Anchor-1" 206 355 basechar 0
AnchorPoint: "Anchor-0" 262.404 0 basechar 0
LayerCount: 2
Fore
SplineSet
17.404296875 0 m 1
 71.0068359375 304 l 1
 3.0068359375 304 l 1
 20.9931640625 406 l 1
 88.9931640625 406 l 1
 142.595703125 710 l 1
 378.595703125 710 l 2
 604.595703125 710 709.026367188 582 668.823242188 354 c 0
 628.797851562 127 482.404296875 0 259.404296875 0 c 2
 17.404296875 0 l 1
167.329101562 113 m 1
 273.329101562 113 l 2
 421.329101562 113 506.258789062 192 534.823242188 354 c 0
 563.741210938 518 506.670898438 597 358.670898438 597 c 2
 252.670898438 597 l 1
 218.993164062 406 l 1
 408.993164062 406 l 1
 391.006835938 304 l 1
 201.006835938 304 l 1
 167.329101562 113 l 1
EndSplineSet
Validated: 33
EndChar

StartChar: Eth
Encoding: 208 208 23
Width: 712
GlyphClass: 2
Flags: HMW
HStem: 0 113<210 316 316 322> 304 102<12 80 12 80 210 400> 597 113<210 316 210 210>
VStem: 80 130<113 113 113 304 406 597> 535 134<273 436>
AnchorPoint: "Anchor-3" 387.596 710 basechar 0
AnchorPoint: "Anchor-1" 206 355 basechar 0
AnchorPoint: "Anchor-0" 262.404 0 basechar 0
LayerCount: 2
Fore
SplineSet
17.404296875 0 m 1
 71.0068359375 304 l 1
 3.0068359375 304 l 1
 20.9931640625 406 l 1
 88.9931640625 406 l 1
 142.595703125 710 l 1
 378.595703125 710 l 2
 604.595703125 710 709.026367188 582 668.823242188 354 c 0
 628.797851562 127 482.404296875 0 259.404296875 0 c 2
 17.404296875 0 l 1
167.329101562 113 m 1
 273.329101562 113 l 2
 421.329101562 113 506.258789062 192 534.823242188 354 c 0
 563.741210938 518 506.670898438 597 358.670898438 597 c 2
 252.670898438 597 l 1
 218.993164062 406 l 1
 408.993164062 406 l 1
 391.006835938 304 l 1
 201.006835938 304 l 1
 167.329101562 113 l 1
EndSplineSet
Validated: 33
EndChar

StartChar: E
Encoding: 69 69 24
Width: 615
GlyphClass: 2
Flags: HMW
HStem: 0 113<210 566 210 566> 300 112<210 546 210 546> 597 113<210 558 210 210>
VStem: 80 130<113 300 412 597>
AnchorPoint: "Anchor-3" 382.596 710 basechar 0
AnchorPoint: "Anchor-2" 503.404 0 basechar 0
AnchorPoint: "Anchor-0" 258.404 0 basechar 0
LayerCount: 2
Fore
SplineSet
17.404296875 0 m 1
 142.595703125 710 l 1
 620.595703125 710 l 1
 600.670898438 597 l 1
 252.670898438 597 l 1
 220.05078125 412 l 1
 556.05078125 412 l 1
 536.301757812 300 l 1
 200.301757812 300 l 1
 167.329101562 113 l 1
 523.329101562 113 l 1
 503.404296875 0 l 1
 17.404296875 0 l 1
EndSplineSet
Validated: 1
EndChar

StartChar: Eacute
Encoding: 201 201 25
Width: 615
GlyphClass: 2
Flags: HMW
HStem: 0 113<210 566 210 566> 300 112<210 546 210 546> 597 113<210 558 210 210> 770 140<262 452 324 362>
VStem: 80 130<113 300 412 597>
AnchorPoint: "Anchor-3" 364.964 710 basechar 0
AnchorPoint: "Anchor-2" 485.771 0 basechar 0
AnchorPoint: "Anchor-0" 240.771 0 basechar 0
LayerCount: 2
Fore
SplineSet
317.54296875 770 m 1
 404.228515625 910 l 1
 532.228515625 910 l 1
 417.54296875 770 l 1
 317.54296875 770 l 1
-0.228515625 0 m 1
 124.963867188 710 l 1
 602.963867188 710 l 1
 583.038085938 597 l 1
 235.038085938 597 l 1
 202.41796875 412 l 1
 538.41796875 412 l 1
 518.668945312 300 l 1
 182.668945312 300 l 1
 149.696289062 113 l 1
 505.696289062 113 l 1
 485.771484375 0 l 1
 -0.228515625 0 l 1
EndSplineSet
Validated: 1
EndChar

StartChar: Ecaron
Encoding: 282 282 26
Width: 615
GlyphClass: 2
Flags: HMW
HStem: 0 113<210 566 210 566> 300 112<210 546 210 546> 597 113<210 558 210 210> 770 146<162 384 162 256>
VStem: 80 130<113 300 412 597>
AnchorPoint: "Anchor-3" 364.435 710 basechar 0
AnchorPoint: "Anchor-2" 485.242 0 basechar 0
AnchorPoint: "Anchor-0" 240.242 0 basechar 0
LayerCount: 2
Fore
SplineSet
242.7578125 916 m 1
 336.7578125 916 l 1
 385.064453125 827 l 1
 465.7578125 916 l 1
 558.7578125 916 l 1
 439.013671875 770 l 1
 311.013671875 770 l 1
 242.7578125 916 l 1
-0.7578125 0 m 1
 124.434570312 710 l 1
 602.434570312 710 l 1
 582.509765625 597 l 1
 234.509765625 597 l 1
 201.888671875 412 l 1
 537.888671875 412 l 1
 518.140625 300 l 1
 182.140625 300 l 1
 149.166992188 113 l 1
 505.166992188 113 l 1
 485.2421875 0 l 1
 -0.7578125 0 l 1
EndSplineSet
Validated: 1
EndChar

StartChar: Ecircumflex
Encoding: 202 202 27
Width: 615
GlyphClass: 2
Flags: HMW
HStem: 0 113<210 566 210 566> 300 112<210 546 210 546> 597 113<210 558 210 210> 770 146<162 384 162 384 256 385 256 478>
VStem: 80 130<113 300 412 597>
AnchorPoint: "Anchor-3" 364.435 710 basechar 0
AnchorPoint: "Anchor-2" 485.242 0 basechar 0
AnchorPoint: "Anchor-0" 240.242 0 basechar 0
LayerCount: 2
Fore
SplineSet
217.013671875 770 m 1
 336.7578125 916 l 1
 464.7578125 916 l 1
 533.013671875 770 l 1
 440.013671875 770 l 1
 390.70703125 859 l 1
 311.013671875 770 l 1
 217.013671875 770 l 1
-0.7578125 0 m 1
 124.434570312 710 l 1
 602.434570312 710 l 1
 582.509765625 597 l 1
 234.509765625 597 l 1
 201.888671875 412 l 1
 537.888671875 412 l 1
 518.140625 300 l 1
 182.140625 300 l 1
 149.166992188 113 l 1
 505.166992188 113 l 1
 485.2421875 0 l 1
 -0.7578125 0 l 1
EndSplineSet
Validated: 1
EndChar

StartChar: Edieresis
Encoding: 203 203 28
Width: 615
GlyphClass: 2
Flags: HMW
HStem: 0 113<210 566 210 566> 300 112<210 546 210 546> 597 113<210 558 210 210> 780 113<157 282 157 282 358 483 157 358>
VStem: 80 130<113 300 412 597> 157 125<780 893 780 893> 358 125<780 893 780 893>
AnchorPoint: "Anchor-3" 366.462 710 basechar 0
AnchorPoint: "Anchor-2" 487.27 0 basechar 0
AnchorPoint: "Anchor-0" 242.27 0 basechar 0
LayerCount: 2
Fore
SplineSet
215.8046875 780 m 1xf6
 235.73046875 893 l 1
 360.73046875 893 l 1
 340.8046875 780 l 1
 215.8046875 780 l 1xf6
416.8046875 780 m 1
 436.73046875 893 l 1
 561.73046875 893 l 1
 541.8046875 780 l 1
 416.8046875 780 l 1
1.26953125 0 m 1xfa
 126.461914062 710 l 1
 604.461914062 710 l 1
 584.537109375 597 l 1
 236.537109375 597 l 1
 203.916992188 412 l 1
 539.916992188 412 l 1
 520.16796875 300 l 1
 184.16796875 300 l 1
 151.1953125 113 l 1
 507.1953125 113 l 1
 487.26953125 0 l 1
 1.26953125 0 l 1xfa
EndSplineSet
Validated: 1
Substitution2: "'ss08' Style Set 8 in Latin lookup 41 subtable" Edieresis.ss08
Substitution2: "'aalt' Access All Alternates in Latin lookup 0 subtable" Edieresis.ss08
EndChar

StartChar: Edotaccent
Encoding: 278 278 29
Width: 615
GlyphClass: 2
Flags: HMW
HStem: 0 113<210 566 210 566> 300 112<210 546 210 546> 597 113<210 558 210 210> 781 114<254 387 254 387>
VStem: 80 130<113 300 412 597> 254 133<781 895 781 895>
AnchorPoint: "Anchor-3" 366.286 710 basechar 0
AnchorPoint: "Anchor-2" 487.094 0 basechar 0
AnchorPoint: "Anchor-0" 242.094 0 basechar 0
LayerCount: 2
Fore
SplineSet
312.8046875 781 m 1
 332.90625 895 l 1
 465.90625 895 l 1
 445.8046875 781 l 1
 312.8046875 781 l 1
1.09375 0 m 1
 126.286132812 710 l 1
 604.286132812 710 l 1
 584.361328125 597 l 1
 236.361328125 597 l 1
 203.740234375 412 l 1
 539.740234375 412 l 1
 519.9921875 300 l 1
 183.9921875 300 l 1
 151.018554688 113 l 1
 507.018554688 113 l 1
 487.09375 0 l 1
 1.09375 0 l 1
EndSplineSet
Validated: 1
Substitution2: "'ss08' Style Set 8 in Latin lookup 41 subtable" Edotaccent.ss08
Substitution2: "'aalt' Access All Alternates in Latin lookup 0 subtable" Edotaccent.ss08
EndChar

StartChar: Egrave
Encoding: 200 200 30
Width: 615
GlyphClass: 2
Flags: HMW
HStem: 0 113<210 566 210 566> 300 112<210 546 210 546> 597 113<210 558 210 210> 775 141<278 278 278 316 188 378>
VStem: 80 130<113 300 412 597>
AnchorPoint: "Anchor-3" 364.435 710 basechar 0
AnchorPoint: "Anchor-2" 485.242 0 basechar 0
AnchorPoint: "Anchor-0" 240.242 0 basechar 0
LayerCount: 2
Fore
SplineSet
333.895507812 775 m 1
 268.7578125 916 l 1
 396.7578125 916 l 1
 433.895507812 775 l 1
 333.895507812 775 l 1
-0.7578125 0 m 1
 124.434570312 710 l 1
 602.434570312 710 l 1
 582.509765625 597 l 1
 234.509765625 597 l 1
 201.888671875 412 l 1
 537.888671875 412 l 1
 518.140625 300 l 1
 182.140625 300 l 1
 149.166992188 113 l 1
 505.166992188 113 l 1
 485.2421875 0 l 1
 -0.7578125 0 l 1
EndSplineSet
Validated: 1
EndChar

StartChar: Emacron
Encoding: 274 274 31
Width: 615
GlyphClass: 2
Flags: HMW
HStem: 0 113<210 566 210 566> 300 112<210 546 210 546> 597 113<210 558 210 210> 789 97<176 465 176 465>
VStem: 80 130<113 300 412 597> 176 289<789 886 789 886>
AnchorPoint: "Anchor-3" 367.079 710 basechar 0
AnchorPoint: "Anchor-2" 487.887 0 basechar 0
AnchorPoint: "Anchor-0" 242.887 0 basechar 0
LayerCount: 2
Fore
SplineSet
237.008789062 789 m 1xf4
 254.11328125 886 l 1
 543.11328125 886 l 1
 526.008789062 789 l 1
 237.008789062 789 l 1xf4
1.88671875 0 m 1xf8
 127.079101562 710 l 1
 605.079101562 710 l 1
 585.154296875 597 l 1
 237.154296875 597 l 1
 204.534179688 412 l 1
 540.534179688 412 l 1
 520.78515625 300 l 1
 184.78515625 300 l 1
 151.8125 113 l 1
 507.8125 113 l 1
 487.88671875 0 l 1
 1.88671875 0 l 1xf8
EndSplineSet
Validated: 1
EndChar

StartChar: Eogonek
Encoding: 280 280 32
Width: 615
GlyphClass: 2
Flags: HMW
HStem: -215 83<522.5 523> 0 113<210 464 210 566> 300 112<210 546 210 546> 597 113<210 558 210 210>
VStem: 80 130<113 300 412 597> 396 107<-115.5 -114.5>
AnchorPoint: "Anchor-3" 401.551 710 basechar 0
AnchorPoint: "Anchor-2" 522.359 0 basechar 0
AnchorPoint: "Anchor-0" 277.359 0 basechar 0
LayerCount: 2
Fore
SplineSet
36.359375 0 m 1
 161.55078125 710 l 1
 639.55078125 710 l 1
 619.625976562 597 l 1
 271.625976562 597 l 1
 239.005859375 412 l 1
 575.005859375 412 l 1
 555.256835938 300 l 1
 219.256835938 300 l 1
 186.284179688 113 l 1
 542.284179688 113 l 1
 522.359375 0 l 1
 482.953125 -42 l 2
 456.663085938 -72 443.313476562 -91 440.4921875 -107 c 0
 437.494140625 -124 448.083984375 -132 463.083984375 -132 c 0
 481.083984375 -132 498.965820312 -127 511.375976562 -119 c 1
 525.033203125 -189 l 1
 505.564453125 -203 461.44921875 -215 421.44921875 -215 c 0
 354.44921875 -215 319.385742188 -187 328.731445312 -134 c 0
 335.608398438 -95 369.661132812 -55 400.833007812 -20 c 2
 420.359375 0 l 1
 36.359375 0 l 1
EndSplineSet
Validated: 33
EndChar

StartChar: uni1EBC
Encoding: 7868 7868 33
Width: 615
GlyphClass: 2
Flags: HMW
HStem: 0 113<210 566 210 566> 300 112<210 546 210 546> 597 113<210 558 210 210> 773 134<153 274 153 274> 780 78<373.5 391 373.5 411> 780 136<362.5 486> 829 78<249.5 268>
VStem: 80 130<113 300 412 597> 153 67<773 773> 419 67<916 916>
AnchorPoint: "Anchor-3" 364.435 710 basechar 0
AnchorPoint: "Anchor-2" 485.242 0 basechar 0
AnchorPoint: "Anchor-0" 240.242 0 basechar 0
LayerCount: 2
Fore
SplineSet
433.77734375 780 m 0xe540
 404.77734375 780 386.1875 788 364.71484375 808 c 0
 349.359375 823 341.416992188 829 325.416992188 829 c 0xe280
 304.416992188 829 286.301757812 817 275.54296875 773 c 1xf080
 208.54296875 773 l 1
 224.354492188 857 273.170898438 907 337.170898438 907 c 0xe280
 369.170898438 907 390.583984375 898 412.057617188 878 c 0
 427.412109375 863 437.53125 858 450.53125 858 c 0xe940
 472.53125 858 488.646484375 870 499.7578125 916 c 1
 566.7578125 916 l 1
 549.76953125 831 501.77734375 780 433.77734375 780 c 0xe540
-0.7578125 0 m 1xe1
 124.434570312 710 l 1
 602.434570312 710 l 1
 582.509765625 597 l 1
 234.509765625 597 l 1
 201.888671875 412 l 1
 537.888671875 412 l 1
 518.140625 300 l 1
 182.140625 300 l 1
 149.166992188 113 l 1
 505.166992188 113 l 1
 485.2421875 0 l 1
 -0.7578125 0 l 1xe1
EndSplineSet
Validated: 1
EndChar

StartChar: uni018F
Encoding: 399 399 34
Width: 743
GlyphClass: 1
Flags: HMW
HStem: -16 113<315.5 418.5 315.5 458> 292 107<182 563 182 182> 613 113<328.5 417>
VStem: 564 136<399 399>
LayerCount: 2
Fore
SplineSet
700 355 m 0
 657.681640625 115 486.583007812 -16 298.583007812 -16 c 0
 129.583007812 -16 -0.9052734375 106 41.4130859375 346 c 2
 50.7587890625 399 l 1
 571.758789062 399 l 1
 583.739257812 535 515.4921875 613 409.4921875 613 c 0
 338.4921875 613 271.439453125 573 225.685546875 495 c 1
 90.2724609375 504 l 1
 157.4296875 641 282.416992188 726 429.416992188 726 c 0
 629.416992188 726 741.083984375 588 700 355 c 0
319.5078125 97 m 0
 426.5078125 97 515.321289062 164 551.891601562 292 c 1
 170.891601562 292 l 1
 166.79296875 161 220.5078125 97 319.5078125 97 c 0
EndSplineSet
Validated: 33
EndChar

StartChar: F
Encoding: 70 70 35
Width: 600
GlyphClass: 1
Flags: HMW
HStem: 0 21G<80 80 80 210> 291 112<210 537 210 537> 597 113<210 555 210 210>
VStem: 80 130<0 291 403 597>
LayerCount: 2
Fore
SplineSet
17.404296875 0 m 1
 142.595703125 710 l 1
 617.595703125 710 l 1
 597.670898438 597 l 1
 252.670898438 597 l 1
 218.463867188 403 l 1
 545.463867188 403 l 1
 525.71484375 291 l 1
 198.71484375 291 l 1
 147.404296875 0 l 1
 17.404296875 0 l 1
EndSplineSet
Validated: 1
EndChar

StartChar: G
Encoding: 71 71 36
Width: 726
GlyphClass: 2
Flags: HMW
HStem: -16 113<307.5 417> 0 21G<594 678 594 594> 265 101<376 551 376 678> 613 113<307 426>
VStem: 43 134<280 426 280 460.5> 551 127<265 265> 591 87
AnchorPoint: "Anchor-3" 437.596 710 basechar 0
AnchorPoint: "Anchor-0" 315.404 0 basechar 0
LayerCount: 2
Fore
SplineSet
301.583007812 -16 m 0xba
 98.5830078125 -16 4.560546875 137 42.8232421875 354 c 0
 80.380859375 567 231.416992188 726 439.416992188 726 c 0
 619.416992188 726 693.9609375 627 698.393554688 482 c 1
 561.159179688 475 l 1
 560.793945312 558 522.4921875 613 420.4921875 613 c 0
 284.4921875 613 202.21484375 498 176.823242188 354 c 0
 150.727539062 206 193.5078125 97 330.5078125 97 c 0
 435.5078125 97 513.379882812 170 535.130859375 265 c 1xbc
 360.130859375 265 l 1
 377.939453125 366 l 1
 679.939453125 366 l 1
 615.404296875 0 l 1
 531.404296875 0 l 1x7a
 544.270507812 107 l 1
 495.22265625 33 401.583007812 -16 301.583007812 -16 c 0xba
EndSplineSet
Validated: 33
Substitution2: "'ss06' Style Set 6 in Latin lookup 39 subtable" G.ss06
Substitution2: "'aalt' Access All Alternates in Latin lookup 0 subtable" G.ss06
EndChar

StartChar: Gbreve
Encoding: 286 286 37
Width: 726
GlyphClass: 2
Flags: HMW
HStem: -16 113<307.5 417> 0 21G<594 678 594 594> 265 101<376 551 376 678> 613 113<307 426> 771 76<354 396 354 419.5>
VStem: 43 134<280 426 280 460.5> 551 127<265 265> 591 87
AnchorPoint: "Anchor-3" 421.197 710 basechar 0
AnchorPoint: "Anchor-0" 299.006 0 basechar 0
LayerCount: 2
Fore
SplineSet
431.954101562 771 m 0xbd
 342.954101562 771 294.298828125 824 305.815429688 912 c 1
 382.815429688 912 l 1
 379.705078125 866 403.354492188 847 445.354492188 847 c 0
 487.354492188 847 516.705078125 866 529.815429688 912 c 1
 606.815429688 912 l 1
 587.298828125 824 520.954101562 771 431.954101562 771 c 0xbd
285.184570312 -16 m 0
 82.1845703125 -16 -11.837890625 137 26.4248046875 354 c 0
 63.9833984375 567 215.018554688 726 423.018554688 726 c 0
 603.018554688 726 677.5625 627 681.995117188 482 c 1
 544.760742188 475 l 1
 544.395507812 558 506.09375 613 404.09375 613 c 0
 268.09375 613 185.81640625 498 160.424804688 354 c 0
 134.329101562 206 177.109375 97 314.109375 97 c 0
 419.109375 97 496.981445312 170 518.732421875 265 c 1xbe
 343.732421875 265 l 1
 361.541015625 366 l 1
 663.541015625 366 l 1
 599.005859375 0 l 1
 515.005859375 0 l 1x7d
 527.872070312 107 l 1
 478.82421875 33 385.184570312 -16 285.184570312 -16 c 0
EndSplineSet
Validated: 33
Substitution2: "'ss06' Style Set 6 in Latin lookup 39 subtable" Gbreve.ss06
Substitution2: "'aalt' Access All Alternates in Latin lookup 0 subtable" Gbreve.ss06
EndChar

StartChar: Gcaron
Encoding: 486 486 38
Width: 726
GlyphClass: 2
Flags: HMW
HStem: -16 113<307.5 417> 0 21G<594 678 594 594> 265 101<376 551 376 678> 613 113<307 426> 770 146<217 439 217 311>
VStem: 43 134<280 426 280 460.5> 551 127<265 265> 591 87
AnchorPoint: "Anchor-3" 420.845 710 basechar 0
AnchorPoint: "Anchor-0" 298.653 0 basechar 0
LayerCount: 2
Fore
SplineSet
299.16796875 916 m 1xbd
 392.16796875 916 l 1
 441.475585938 827 l 1
 521.16796875 916 l 1
 615.16796875 916 l 1
 495.424804688 770 l 1
 367.424804688 770 l 1
 299.16796875 916 l 1xbd
284.83203125 -16 m 0
 81.83203125 -16 -12.1904296875 137 26.072265625 354 c 0
 63.6298828125 567 214.666015625 726 422.666015625 726 c 0
 602.666015625 726 677.209960938 627 681.642578125 482 c 1
 544.408203125 475 l 1
 544.04296875 558 505.741210938 613 403.741210938 613 c 0
 267.741210938 613 185.463867188 498 160.072265625 354 c 0
 133.9765625 206 176.756835938 97 313.756835938 97 c 0
 418.756835938 97 496.62890625 170 518.379882812 265 c 1xbe
 343.379882812 265 l 1
 361.188476562 366 l 1
 663.188476562 366 l 1
 598.653320312 0 l 1
 514.653320312 0 l 1x7d
 527.51953125 107 l 1
 478.471679688 33 384.83203125 -16 284.83203125 -16 c 0
EndSplineSet
Validated: 33
EndChar

StartChar: Gcircumflex
Encoding: 284 284 39
Width: 726
GlyphClass: 2
Flags: HMW
HStem: -16 113<307.5 417> 0 21G<594 678 594 594> 265 101<376 551 376 678> 613 113<307 426> 770 146<217 439 217 439 311 439 311 533>
VStem: 43 134<280 426 280 460.5> 551 127<265 265> 591 87
AnchorPoint: "Anchor-3" 420.845 710 basechar 0
AnchorPoint: "Anchor-0" 298.653 0 basechar 0
LayerCount: 2
Fore
SplineSet
273.424804688 770 m 1xbd
 393.16796875 916 l 1
 521.16796875 916 l 1
 589.424804688 770 l 1
 495.424804688 770 l 1
 447.118164062 859 l 1
 366.424804688 770 l 1
 273.424804688 770 l 1xbd
284.83203125 -16 m 0
 81.83203125 -16 -12.1904296875 137 26.072265625 354 c 0
 63.6298828125 567 214.666015625 726 422.666015625 726 c 0
 602.666015625 726 677.209960938 627 681.642578125 482 c 1
 544.408203125 475 l 1
 544.04296875 558 505.741210938 613 403.741210938 613 c 0
 267.741210938 613 185.463867188 498 160.072265625 354 c 0
 133.9765625 206 176.756835938 97 313.756835938 97 c 0
 418.756835938 97 496.62890625 170 518.379882812 265 c 1xbe
 343.379882812 265 l 1
 361.188476562 366 l 1
 663.188476562 366 l 1
 598.653320312 0 l 1
 514.653320312 0 l 1x7d
 527.51953125 107 l 1
 478.471679688 33 384.83203125 -16 284.83203125 -16 c 0
EndSplineSet
Validated: 33
Substitution2: "'ss06' Style Set 6 in Latin lookup 39 subtable" Gcircumflex.ss06
Substitution2: "'aalt' Access All Alternates in Latin lookup 0 subtable" Gcircumflex.ss06
EndChar

StartChar: uni0122
Encoding: 290 290 40
Width: 726
GlyphClass: 2
Flags: HMW
HStem: -158 108<318 353 318 438> -16 113<307.5 417> 0 21G<594 678 594 594> 265 101<376 551 376 678> 613 113<307 426>
VStem: 43 134<280 426 280 460.5> 318 120<-147 -50 -147 -50 -147 -50> 551 127<265 265> 591 87
AnchorPoint: "Anchor-3" 458.138 710 basechar 0
AnchorPoint: "Anchor-0" 292.041 -249 basechar 0
LayerCount: 2
Fore
SplineSet
322.125 -16 m 0xde80
 119.125 -16 25.1025390625 137 63.3662109375 354 c 0
 100.923828125 567 251.958984375 726 459.958984375 726 c 0
 639.958984375 726 714.502929688 627 718.935546875 482 c 1
 581.701171875 475 l 1
 581.336914062 558 543.034179688 613 441.034179688 613 c 0
 305.034179688 613 222.756835938 498 197.366210938 354 c 0
 171.26953125 206 214.049804688 97 351.049804688 97 c 0
 456.049804688 97 533.921875 170 555.672851562 265 c 1xdf
 380.672851562 265 l 1
 398.481445312 366 l 1
 700.481445312 366 l 1
 635.946289062 0 l 1
 551.946289062 0 l 1xbe80
 564.813476562 107 l 1
 515.764648438 33 422.125 -16 322.125 -16 c 0xde80
214.041015625 -249 m 1
 283.0859375 -158 l 1
 248.0859375 -158 l 1
 267.129882812 -50 l 1
 387.129882812 -50 l 1
 370.026367188 -147 l 1
 292.041015625 -249 l 1
 214.041015625 -249 l 1
EndSplineSet
Validated: 33
Substitution2: "'ss06' Style Set 6 in Latin lookup 39 subtable" uni0122.ss06
Substitution2: "'aalt' Access All Alternates in Latin lookup 0 subtable" uni0122.ss06
EndChar

StartChar: Gdotaccent
Encoding: 288 288 41
Width: 726
GlyphClass: 2
Flags: HMW
HStem: -16 113<307.5 417> 0 21G<594 678 594 594> 265 101<376 551 376 678> 613 113<307 426> 781 114<308 441 308 441>
VStem: 43 134<280 426 280 460.5> 308 133<781 895 781 895> 551 127<265 265> 591 87
AnchorPoint: "Anchor-3" 422.696 710 basechar 0
AnchorPoint: "Anchor-0" 300.504 0 basechar 0
LayerCount: 2
Fore
SplineSet
368.215820312 781 m 1xbe80
 388.317382812 895 l 1
 521.317382812 895 l 1
 501.215820312 781 l 1
 368.215820312 781 l 1xbe80
286.682617188 -16 m 0
 83.6826171875 -16 -10.3388671875 137 27.923828125 354 c 0
 65.4814453125 567 216.517578125 726 424.517578125 726 c 0
 604.517578125 726 679.061523438 627 683.494140625 482 c 1
 546.259765625 475 l 1
 545.89453125 558 507.592773438 613 405.592773438 613 c 0
 269.592773438 613 187.315429688 498 161.923828125 354 c 0
 135.828125 206 178.608398438 97 315.608398438 97 c 0
 420.608398438 97 498.479492188 170 520.23046875 265 c 1xbf
 345.23046875 265 l 1
 363.040039062 366 l 1
 665.040039062 366 l 1
 600.50390625 0 l 1
 516.50390625 0 l 1x7e80
 529.37109375 107 l 1
 480.323242188 33 386.682617188 -16 286.682617188 -16 c 0
EndSplineSet
Validated: 33
Substitution2: "'ss08' Style Set 8 in Latin lookup 41 subtable" Gdotaccent.ss08
Substitution2: "'ss06' Style Set 6 in Latin lookup 39 subtable" Gdotaccent.ss06
AlternateSubs2: "'aalt' Access All Alternates in Latin lookup 1 subtable" Gdotaccent.ss06 Gdotaccent.ss08
EndChar

StartChar: uni1E20
Encoding: 7712 7712 42
Width: 726
GlyphClass: 2
Flags: HMW
HStem: -16 113<307.5 417> 0 21G<594 678 594 594> 265 101<376 551 376 678> 613 113<307 426> 789 97<230 519 230 519>
VStem: 43 134<280 426 280 460.5> 230 289<789 886 789 886> 551 127<265 265> 591 87
AnchorPoint: "Anchor-3" 423.49 710 basechar 0
AnchorPoint: "Anchor-0" 301.298 0 basechar 0
LayerCount: 2
Fore
SplineSet
292.419921875 789 m 1xbe80
 309.5234375 886 l 1
 598.5234375 886 l 1
 581.419921875 789 l 1
 292.419921875 789 l 1xbe80
287.4765625 -16 m 0
 84.4765625 -16 -9.5458984375 137 28.7177734375 354 c 0
 66.275390625 567 217.311523438 726 425.311523438 726 c 0
 605.311523438 726 679.854492188 627 684.287109375 482 c 1
 547.052734375 475 l 1
 546.688476562 558 508.385742188 613 406.385742188 613 c 0
 270.385742188 613 188.108398438 498 162.717773438 354 c 0
 136.62109375 206 179.401367188 97 316.401367188 97 c 0
 421.401367188 97 499.2734375 170 521.024414062 265 c 1xbd
 346.024414062 265 l 1
 363.833007812 366 l 1
 665.833007812 366 l 1
 601.297851562 0 l 1
 517.297851562 0 l 1x7c80
 530.165039062 107 l 1
 481.116210938 33 387.4765625 -16 287.4765625 -16 c 0
EndSplineSet
Validated: 33
Substitution2: "'ss06' Style Set 6 in Latin lookup 39 subtable" uni1E20.ss06
Substitution2: "'aalt' Access All Alternates in Latin lookup 0 subtable" uni1E20.ss06
EndChar

StartChar: uni01E4
Encoding: 484 484 43
Width: 768
GlyphClass: 2
Flags: HMW
HStem: -16 113<306 406 306 442.5> 162 72<376 517 376 546 671 730> 282 84<376 551 376 678> 613 113<306.5 427.5>
VStem: 43 134<279.5 426 279.5 459> 551 127<273.5 323>
AnchorPoint: "Anchor-3" 440.596 710 basechar 0
AnchorPoint: "Anchor-0" 315.404 0 basechar 0
LayerCount: 2
Fore
SplineSet
308.583007812 -16 m 0
 90.5830078125 -16 5.9716796875 145 42.8232421875 354 c 0
 79.8525390625 564 228.416992188 726 443.416992188 726 c 0
 612.416992188 726 695.842773438 632 698.393554688 482 c 1
 561.159179688 475 l 1
 560.44140625 556 524.4921875 613 421.4921875 613 c 0
 282.4921875 613 202.21484375 498 176.823242188 354 c 0
 150.55078125 205 194.5078125 97 326.5078125 97 c 0
 394.5078125 97 446.563476562 120 482.96875 162 c 1
 341.96875 162 l 1
 354.6640625 234 l 1
 524.6640625 234 l 1
 530.309570312 249 535.130859375 265 538.127929688 282 c 1
 363.127929688 282 l 1
 377.939453125 366 l 1
 679.939453125 366 l 1
 672.357421875 323 l 2
 666.71484375 291 658.424804688 261 649.6640625 234 c 1
 708.6640625 234 l 1
 695.96875 162 l 1
 617.96875 162 l 1
 553.338867188 45 445.583007812 -16 308.583007812 -16 c 0
EndSplineSet
Validated: 33
EndChar

StartChar: H
Encoding: 72 72 44
Width: 718
GlyphClass: 2
Flags: HMW
HStem: 0 21G<80 80 80 210 509 509 509 639> 301 113<210 509 210 509> 690 20G<80 210 210 210 509 639 639 639>
VStem: 80 130<0 301 414 710> 509 130<0 301 301 301 414 710 0 710>
AnchorPoint: "Anchor-3" 421.596 710 basechar 0
AnchorPoint: "Anchor-1" 397.439 573 basechar 0
AnchorPoint: "Anchor-0" 296.404 0 basechar 0
LayerCount: 2
Fore
SplineSet
17.404296875 0 m 1
 142.595703125 710 l 1
 272.595703125 710 l 1
 220.403320312 414 l 1
 519.403320312 414 l 1
 571.595703125 710 l 1
 701.595703125 710 l 1
 576.404296875 0 l 1
 446.404296875 0 l 1
 499.478515625 301 l 1
 200.478515625 301 l 1
 147.404296875 0 l 1
 17.404296875 0 l 1
EndSplineSet
Validated: 1
EndChar

StartChar: Hbar
Encoding: 294 294 45
Width: 719
GlyphClass: 2
Flags: HMW
HStem: 0 21G<80 80 80 210 509 509 509 639> 301 113<210 509 210 509> 522 101<7 80 7 80 210 509 639 711> 522 188<7 210 7 210 80 210 80 509>
VStem: 80 130<0 301 414 522 623 710> 509 130<0 301 301 301 414 522 0 522 623 710>
AnchorPoint: "Anchor-3" 421.596 710 basechar 0
AnchorPoint: "Anchor-1" 397.439 573 basechar 0
AnchorPoint: "Anchor-0" 296.404 0 basechar 0
LayerCount: 2
Fore
SplineSet
17.404296875 0 m 1xdc
 109.446289062 522 l 1
 36.4462890625 522 l 1xdc
 54.255859375 623 l 1
 127.255859375 623 l 1xec
 142.595703125 710 l 1
 272.595703125 710 l 1xdc
 257.255859375 623 l 1
 556.255859375 623 l 1xec
 571.595703125 710 l 1
 701.595703125 710 l 1xdc
 686.255859375 623 l 1
 758.255859375 623 l 1xec
 740.446289062 522 l 1
 668.446289062 522 l 1
 576.404296875 0 l 1
 446.404296875 0 l 1
 499.478515625 301 l 1
 200.478515625 301 l 1
 147.404296875 0 l 1
 17.404296875 0 l 1xdc
220.403320312 414 m 1
 519.403320312 414 l 1
 538.446289062 522 l 1
 239.446289062 522 l 1
 220.403320312 414 l 1
EndSplineSet
Validated: 1
EndChar

StartChar: Hcircumflex
Encoding: 292 292 46
Width: 719
GlyphClass: 2
Flags: HMW
HStem: 0 21G<80 80 80 210 509 509 509 639> 301 113<210 509 210 509> 690 20G<80 210 210 210 509 639 639 639> 770 146<202 423 202 423 296 424 296 517>
VStem: 80 130<0 301 414 710> 509 130<0 301 301 301 414 710 0 710>
AnchorPoint: "Anchor-3" 403.435 710 basechar 0
AnchorPoint: "Anchor-1" 379.277 573 basechar 0
AnchorPoint: "Anchor-0" 278.242 0 basechar 0
LayerCount: 2
Fore
SplineSet
257.013671875 770 m 1
 376.7578125 916 l 1
 503.7578125 916 l 1
 572.013671875 770 l 1
 479.013671875 770 l 1
 429.70703125 859 l 1
 350.013671875 770 l 1
 257.013671875 770 l 1
-0.7578125 0 m 1
 124.434570312 710 l 1
 254.434570312 710 l 1
 202.241210938 414 l 1
 501.241210938 414 l 1
 553.434570312 710 l 1
 683.434570312 710 l 1
 558.2421875 0 l 1
 428.2421875 0 l 1
 481.31640625 301 l 1
 182.31640625 301 l 1
 129.2421875 0 l 1
 -0.7578125 0 l 1
EndSplineSet
Validated: 1
EndChar

StartChar: I
Encoding: 73 73 47
Width: 290
GlyphClass: 2
Flags: HMW
HStem: 0 21G<80 80 80 210> 690 20G<80 210 210 210>
VStem: 80 130<0 710 0 710>
AnchorPoint: "Anchor-3" 207.596 710 basechar 0
AnchorPoint: "Anchor-2" 147.404 0 basechar 0
AnchorPoint: "Anchor-0" 82.4043 0 basechar 0
LayerCount: 2
Fore
SplineSet
17.404296875 0 m 1
 142.595703125 710 l 1
 272.595703125 710 l 1
 147.404296875 0 l 1
 17.404296875 0 l 1
EndSplineSet
Validated: 1
Substitution2: "'ss05' Style Set 5 in Latin lookup 38 subtable" I.ss05
Substitution2: "'aalt' Access All Alternates in Latin lookup 0 subtable" I.ss05
EndChar

StartChar: IJ
Encoding: 306 306 48
Width: 891
GlyphClass: 2
Flags: HMW
HStem: -16 113<541 615.5 541 653> 0 21G<80 80 80 210> 690 20G<80 210 210 210 696 826 826 826>
VStem: 80 130<0 710 0 710> 329 131<246 253> 696 130<253 710>
AnchorPoint: "Anchor-3" 826.007 710 basechar 0
AnchorPoint: "Anchor-2" 148.814 0 basechar 0
AnchorPoint: "Anchor-0" 83.8145 0 basechar 0
LayerCount: 2
Fore
SplineSet
18.814453125 0 m 1x74
 144.006835938 710 l 1
 274.006835938 710 l 1
 148.814453125 0 l 1
 18.814453125 0 l 1x74
513.993164062 -16 m 0
 358.993164062 -16 285.389648438 94 311.19140625 246 c 1
 443.424804688 253 l 1
 427.086914062 149 459.91796875 97 533.91796875 97 c 0
 608.91796875 97 661.263671875 150 679.424804688 253 c 2
 760.006835938 710 l 1
 890.006835938 710 l 1
 809.424804688 253 l 2xbc
 780.331054688 88 663.993164062 -16 513.993164062 -16 c 0
EndSplineSet
Validated: 33
EndChar

StartChar: Iacute
Encoding: 205 205 49
Width: 290
GlyphClass: 2
Flags: HMW
HStem: 0 21G<80 80 80 210> 690 20G<80 210 210 210> 770 140<87 277 148 187>
VStem: 80 130<0 710 0 710>
AnchorPoint: "Anchor-3" 189.964 710 basechar 0
AnchorPoint: "Anchor-2" 129.771 0 basechar 0
AnchorPoint: "Anchor-0" 64.7715 0 basechar 0
LayerCount: 2
Fore
SplineSet
142.54296875 770 m 1
 228.228515625 910 l 1
 357.228515625 910 l 1
 242.54296875 770 l 1
 142.54296875 770 l 1
-0.228515625 0 m 1
 124.963867188 710 l 1
 254.963867188 710 l 1
 129.771484375 0 l 1
 -0.228515625 0 l 1
EndSplineSet
Validated: 1
Substitution2: "'ss05' Style Set 5 in Latin lookup 38 subtable" Iacute.ss05
Substitution2: "'aalt' Access All Alternates in Latin lookup 0 subtable" Iacute.ss05
EndChar

StartChar: Icircumflex
Encoding: 206 206 50
Width: 290
GlyphClass: 2
Flags: HMW
HStem: 0 21G<80 80 80 210> 690 20G<80 210 210 210> 770 146<-13 209 -13 209 81 210 81 303>
VStem: 80 130<0 710 0 710 0 770>
AnchorPoint: "Anchor-3" 189.435 710 basechar 0
AnchorPoint: "Anchor-2" 129.242 0 basechar 0
AnchorPoint: "Anchor-0" 64.2422 0 basechar 0
LayerCount: 2
Fore
SplineSet
42.013671875 770 m 1
 161.7578125 916 l 1
 289.7578125 916 l 1
 358.013671875 770 l 1
 265.013671875 770 l 1
 215.70703125 859 l 1
 135.013671875 770 l 1
 42.013671875 770 l 1
-0.7578125 0 m 1
 124.434570312 710 l 1
 254.434570312 710 l 1
 129.2421875 0 l 1
 -0.7578125 0 l 1
EndSplineSet
Validated: 1
Substitution2: "'ss05' Style Set 5 in Latin lookup 38 subtable" Icircumflex.ss05
Substitution2: "'aalt' Access All Alternates in Latin lookup 0 subtable" Icircumflex.ss05
EndChar

StartChar: Idieresis
Encoding: 207 207 51
Width: 290
GlyphClass: 2
Flags: HMW
HStem: 0 21G<80 80 80 210> 690 20G<80 210 210 210> 780 113<-18 107 -18 107 183 308 -18 183>
VStem: -18 125<780 893 780 893> 80 130<0 710 0 710> 183 125<780 893 780 893>
AnchorPoint: "Anchor-3" 191.462 710 basechar 0
AnchorPoint: "Anchor-2" 131.27 0 basechar 0
AnchorPoint: "Anchor-0" 66.2695 0 basechar 0
LayerCount: 2
Fore
SplineSet
40.8046875 780 m 1xf4
 60.73046875 893 l 1
 185.73046875 893 l 1
 165.8046875 780 l 1
 40.8046875 780 l 1xf4
241.8046875 780 m 1
 261.73046875 893 l 1
 386.73046875 893 l 1
 366.8046875 780 l 1
 241.8046875 780 l 1
1.26953125 0 m 1xe8
 126.461914062 710 l 1
 256.461914062 710 l 1
 131.26953125 0 l 1
 1.26953125 0 l 1xe8
EndSplineSet
Validated: 1
Substitution2: "'ss08' Style Set 8 in Latin lookup 41 subtable" Idieresis.ss08
Substitution2: "'ss05' Style Set 5 in Latin lookup 38 subtable" Idieresis.ss05
AlternateSubs2: "'aalt' Access All Alternates in Latin lookup 1 subtable" Idieresis.ss05 Idieresis.ss08
EndChar

StartChar: Idotaccent
Encoding: 304 304 52
Width: 290
GlyphClass: 2
Flags: HMW
HStem: 0 21G<80 80 80 210> 690 20G<80 210 210 210> 781 114<79 211 79 211>
VStem: 79 131<0 895> 80 130<0 710 0 710> 80 131<0 895 710 895>
AnchorPoint: "Anchor-3" 191.286 710 basechar 0
AnchorPoint: "Anchor-2" 131.094 0 basechar 0
AnchorPoint: "Anchor-0" 66.0938 0 basechar 0
LayerCount: 2
Fore
SplineSet
137.8046875 781 m 1xf0
 157.90625 895 l 1xf0
 289.90625 895 l 1
 269.8046875 781 l 1xe4
 137.8046875 781 l 1xf0
1.09375 0 m 1xe8
 126.286132812 710 l 1
 256.286132812 710 l 1
 131.09375 0 l 1
 1.09375 0 l 1xe8
EndSplineSet
Validated: 1
Substitution2: "'ss08' Style Set 8 in Latin lookup 41 subtable" Idotaccent.ss08
Substitution2: "'ss05' Style Set 5 in Latin lookup 38 subtable" Idotaccent.ss05
AlternateSubs2: "'aalt' Access All Alternates in Latin lookup 1 subtable" Idotaccent.ss05 Idotaccent.ss08
EndChar

StartChar: Igrave
Encoding: 204 204 53
Width: 290
GlyphClass: 2
Flags: HMW
HStem: 0 21G<80 80 80 210> 690 20G<80 210 210 210> 775 141<103 103 103 141 13 202>
VStem: 80 130<0 710 0 710>
AnchorPoint: "Anchor-3" 189.435 710 basechar 0
AnchorPoint: "Anchor-2" 129.242 0 basechar 0
AnchorPoint: "Anchor-0" 64.2422 0 basechar 0
LayerCount: 2
Fore
SplineSet
158.895507812 775 m 1
 93.7578125 916 l 1
 221.7578125 916 l 1
 257.895507812 775 l 1
 158.895507812 775 l 1
-0.7578125 0 m 1
 124.434570312 710 l 1
 254.434570312 710 l 1
 129.2421875 0 l 1
 -0.7578125 0 l 1
EndSplineSet
Validated: 1
Substitution2: "'ss05' Style Set 5 in Latin lookup 38 subtable" Igrave.ss05
Substitution2: "'aalt' Access All Alternates in Latin lookup 0 subtable" Igrave.ss05
EndChar

StartChar: Imacron
Encoding: 298 298 54
Width: 290
GlyphClass: 2
Flags: HMW
HStem: 0 21G<80 80 80 210> 690 20G<80 210 210 210> 789 97<1 289 1 289>
VStem: 80 130<0 710 0 710>
AnchorPoint: "Anchor-3" 192.079 710 basechar 0
AnchorPoint: "Anchor-2" 131.887 0 basechar 0
AnchorPoint: "Anchor-0" 66.8867 0 basechar 0
LayerCount: 2
Fore
SplineSet
62.0087890625 789 m 1
 79.11328125 886 l 1
 367.11328125 886 l 1
 350.008789062 789 l 1
 62.0087890625 789 l 1
1.88671875 0 m 1
 127.079101562 710 l 1
 257.079101562 710 l 1
 131.88671875 0 l 1
 1.88671875 0 l 1
EndSplineSet
Validated: 1
Substitution2: "'ss05' Style Set 5 in Latin lookup 38 subtable" Imacron.ss05
Substitution2: "'aalt' Access All Alternates in Latin lookup 0 subtable" Imacron.ss05
EndChar

StartChar: Iogonek
Encoding: 302 302 55
Width: 290
GlyphClass: 2
Flags: HMW
HStem: -215 83<166.5 167> 0 21G<80 80 80 108 210 210> 690 20G<80 210 210 210>
VStem: 40 107<-115.5 -114.5> 80 67 80 130<0 710 0 710>
AnchorPoint: "Anchor-3" 226.551 710 basechar 0
AnchorPoint: "Anchor-2" 166.359 0 basechar 0
AnchorPoint: "Anchor-0" 101.359 0 basechar 0
LayerCount: 2
Fore
SplineSet
36.359375 0 m 1xe4
 161.55078125 710 l 1
 291.55078125 710 l 1
 166.359375 0 l 1xe4
 126.953125 -42 l 2
 100.663085938 -72 87.3134765625 -91 84.4921875 -107 c 0xe8
 81.494140625 -124 92.083984375 -132 107.083984375 -132 c 0
 125.083984375 -132 142.965820312 -127 155.375976562 -119 c 1
 169.033203125 -189 l 1
 149.564453125 -203 105.44921875 -215 65.44921875 -215 c 0
 -1.55078125 -215 -36.6142578125 -187 -27.2685546875 -134 c 0xf0
 -20.3916015625 -95 13.6611328125 -55 44.8330078125 -20 c 2
 64.359375 0 l 1
 36.359375 0 l 1xe4
EndSplineSet
Validated: 33
Substitution2: "'ss05' Style Set 5 in Latin lookup 38 subtable" Iogonek.ss05
Substitution2: "'aalt' Access All Alternates in Latin lookup 0 subtable" Iogonek.ss05
EndChar

StartChar: Itilde
Encoding: 296 296 56
Width: 290
GlyphClass: 2
Flags: HMW
HStem: 0 21G<80 80 80 210> 690 20G<80 210 210 210> 773 134<-22 99 -22 99> 780 78<198.5 216 198.5 235.5> 780 136<187.5 311> 829 78<74.5 93>
VStem: -22 67<773 773> 80 130<0 710 0 710> 244 67<916 916>
AnchorPoint: "Anchor-3" 189.435 710 basechar 0
AnchorPoint: "Anchor-2" 129.242 0 basechar 0
AnchorPoint: "Anchor-0" 64.2422 0 basechar 0
LayerCount: 2
Fore
SplineSet
258.77734375 780 m 0xc980
 229.77734375 780 210.1875 788 189.71484375 808 c 0
 174.359375 823 166.416992188 829 150.416992188 829 c 0xc7
 129.416992188 829 111.301757812 817 100.54296875 773 c 1xe3
 33.54296875 773 l 1
 49.3544921875 857 98.1708984375 907 162.170898438 907 c 0xc7
 194.170898438 907 215.583984375 898 237.057617188 878 c 0
 252.412109375 863 262.53125 858 275.53125 858 c 0xd180
 297.53125 858 313.646484375 870 324.7578125 916 c 1
 391.7578125 916 l 1
 374.76953125 831 325.77734375 780 258.77734375 780 c 0xc980
-0.7578125 0 m 1
 124.434570312 710 l 1
 254.434570312 710 l 1
 129.2421875 0 l 1
 -0.7578125 0 l 1
EndSplineSet
Validated: 1
Substitution2: "'ss05' Style Set 5 in Latin lookup 38 subtable" Itilde.ss05
Substitution2: "'aalt' Access All Alternates in Latin lookup 0 subtable" Itilde.ss05
EndChar

StartChar: J
Encoding: 74 74 57
Width: 617
GlyphClass: 2
Flags: HMW
HStem: -16 113<267 341.5 267 379> 690 20G<422 552 552 552>
VStem: 55 131<246 253> 422 130<253 710>
AnchorPoint: "Anchor-3" 552.007 710 basechar 0
LayerCount: 2
Fore
SplineSet
239.993164062 -16 m 0
 84.9931640625 -16 11.3896484375 94 37.19140625 246 c 1
 169.424804688 253 l 1
 153.086914062 149 185.91796875 97 259.91796875 97 c 0
 334.91796875 97 387.263671875 150 405.424804688 253 c 2
 486.006835938 710 l 1
 616.006835938 710 l 1
 535.424804688 253 l 2
 506.331054688 88 389.993164062 -16 239.993164062 -16 c 0
EndSplineSet
Validated: 33
Substitution2: "Single Substitution lookup 16 subtable" uni004A0301
Substitution2: "'aalt' Access All Alternates in Latin lookup 0 subtable" uni004A0301
EndChar

StartChar: uni004A0301
Encoding: 65537 -1 58
Width: 617
GlyphClass: 2
Flags: HMW
HStem: -16 113<267 341.5 267 379> 690 20G<422 552 552 552> 770 140<430 619 491 529>
VStem: 55 131<246 253> 422 130<253 710>
AnchorPoint: "Anchor-3" 534.374 710 basechar 0
LayerCount: 2
Fore
SplineSet
486.954101562 770 m 1
 572.639648438 910 l 1
 700.639648438 910 l 1
 585.954101562 770 l 1
 486.954101562 770 l 1
222.360351562 -16 m 0
 67.3603515625 -16 -6.2431640625 94 19.55859375 246 c 1
 151.79296875 253 l 1
 135.454101562 149 168.28515625 97 242.28515625 97 c 0
 317.28515625 97 369.630859375 150 387.79296875 253 c 2
 468.374023438 710 l 1
 598.374023438 710 l 1
 517.79296875 253 l 2
 488.698242188 88 372.360351562 -16 222.360351562 -16 c 0
EndSplineSet
Validated: 33
EndChar

StartChar: Jcircumflex
Encoding: 308 308 59
Width: 617
GlyphClass: 2
Flags: HMW
HStem: -16 113<267 341.5 267 379> 690 20G<422 552 552 552> 770 146<330 551 330 551 424 552 424 645>
VStem: 55 131<246 253> 422 130<253 710>
AnchorPoint: "Anchor-3" 533.845 710 basechar 0
LayerCount: 2
Fore
SplineSet
386.424804688 770 m 1
 506.16796875 916 l 1
 633.16796875 916 l 1
 701.424804688 770 l 1
 608.424804688 770 l 1
 560.118164062 859 l 1
 479.424804688 770 l 1
 386.424804688 770 l 1
221.83203125 -16 m 0
 66.83203125 -16 -6.7724609375 94 19.029296875 246 c 1
 151.263671875 253 l 1
 134.92578125 149 167.756835938 97 241.756835938 97 c 0
 316.756835938 97 369.1015625 150 387.263671875 253 c 2
 467.844726562 710 l 1
 597.844726562 710 l 1
 517.263671875 253 l 2
 488.169921875 88 371.83203125 -16 221.83203125 -16 c 0
EndSplineSet
Validated: 33
EndChar

StartChar: K
Encoding: 75 75 60
Width: 672
GlyphClass: 2
Flags: HMW
HStem: 0 21G<80 80 80 210 510 510 510 659> 690 20G<80 210 210 210 488 642 642 642>
VStem: 80 130<0 218 386 710>
AnchorPoint: "Anchor-3" 402.596 710 basechar 0
AnchorPoint: "Anchor-0" 291.404 0 basechar 0
LayerCount: 2
Fore
SplineSet
17.404296875 0 m 1
 142.595703125 710 l 1
 272.595703125 710 l 1
 215.465820312 386 l 1
 550.595703125 710 l 1
 704.595703125 710 l 1
 383.58203125 398 l 1
 596.404296875 0 l 1
 447.404296875 0 l 1
 281.888671875 309 l 1
 185.842773438 218 l 1
 147.404296875 0 l 1
 17.404296875 0 l 1
EndSplineSet
Validated: 1
EndChar

StartChar: uni01E8
Encoding: 488 488 61
Width: 672
GlyphClass: 2
Flags: HMW
HStem: 0 21G<80 80 80 210 510 510 510 659> 690 20G<80 210 210 210 488 642 642 642> 770 146<182 404 182 276>
VStem: 80 130<0 218 386 710>
AnchorPoint: "Anchor-3" 384.435 710 basechar 0
AnchorPoint: "Anchor-0" 273.242 0 basechar 0
LayerCount: 2
Fore
SplineSet
262.7578125 916 m 1
 355.7578125 916 l 1
 405.064453125 827 l 1
 485.7578125 916 l 1
 578.7578125 916 l 1
 459.013671875 770 l 1
 331.013671875 770 l 1
 262.7578125 916 l 1
-0.7578125 0 m 1
 124.434570312 710 l 1
 254.434570312 710 l 1
 197.3046875 386 l 1
 532.434570312 710 l 1
 686.434570312 710 l 1
 365.419921875 398 l 1
 578.2421875 0 l 1
 429.2421875 0 l 1
 263.727539062 309 l 1
 167.681640625 218 l 1
 129.2421875 0 l 1
 -0.7578125 0 l 1
EndSplineSet
Validated: 1
EndChar

StartChar: uni0136
Encoding: 310 310 62
Width: 672
GlyphClass: 2
Flags: HMW
HStem: -158 108<294 329 294 414> 0 21G<80 80 80 210 510 510 510 659> 690 20G<80 210 210 210 488 642 642 642>
VStem: 80 130<0 218 386 710> 294 120<-147 -50 -147 -50 -147 -50>
AnchorPoint: "Anchor-3" 424.549 710 basechar 0
AnchorPoint: "Anchor-0" 269.451 -249 basechar 0
LayerCount: 2
Fore
SplineSet
39.3564453125 0 m 1
 164.548828125 710 l 1
 294.548828125 710 l 1
 237.418945312 386 l 1
 572.548828125 710 l 1
 726.548828125 710 l 1
 405.53515625 398 l 1
 618.356445312 0 l 1
 469.356445312 0 l 1
 303.841796875 309 l 1
 207.795898438 218 l 1
 169.356445312 0 l 1
 39.3564453125 0 l 1
191.451171875 -249 m 1
 260.497070312 -158 l 1
 225.497070312 -158 l 1
 244.540039062 -50 l 1
 364.540039062 -50 l 1
 347.436523438 -147 l 1
 269.451171875 -249 l 1
 191.451171875 -249 l 1
EndSplineSet
Validated: 1
EndChar

StartChar: L
Encoding: 76 76 63
Width: 586
GlyphClass: 2
Flags: HMW
HStem: 0 113<210 547 210 547> 690 20G<80 210 210 210>
VStem: 80 130<113 710 113 710 113 710>
AnchorPoint: "Anchor-4" 399.562 534 basechar 0
AnchorPoint: "Anchor-3" 207.596 710 basechar 0
AnchorPoint: "Anchor-1" 184.408 380 basechar 0
AnchorPoint: "Anchor-0" 250.404 0 basechar 0
LayerCount: 2
Fore
SplineSet
17.404296875 0 m 1
 142.595703125 710 l 1
 272.595703125 710 l 1
 167.329101562 113 l 1
 504.329101562 113 l 1
 484.404296875 0 l 1
 17.404296875 0 l 1
EndSplineSet
Validated: 1
EndChar

StartChar: Lacute
Encoding: 313 313 64
Width: 586
GlyphClass: 2
Flags: HMW
HStem: 0 113<210 547 210 547> 690 20G<80 210 210 210> 770 140<87 277 148 187>
VStem: 80 130<113 710 113 710 113 710>
AnchorPoint: "Anchor-4" 381.93 534 basechar 0
AnchorPoint: "Anchor-3" 189.964 710 basechar 0
AnchorPoint: "Anchor-1" 166.775 380 basechar 0
AnchorPoint: "Anchor-0" 232.771 0 basechar 0
LayerCount: 2
Fore
SplineSet
142.54296875 770 m 1
 228.228515625 910 l 1
 357.228515625 910 l 1
 242.54296875 770 l 1
 142.54296875 770 l 1
-0.228515625 0 m 1
 124.963867188 710 l 1
 254.963867188 710 l 1
 149.696289062 113 l 1
 486.696289062 113 l 1
 466.771484375 0 l 1
 -0.228515625 0 l 1
EndSplineSet
Validated: 1
EndChar

StartChar: Lcaron
Encoding: 317 317 65
Width: 586
GlyphClass: 2
Flags: HMW
HStem: 0 113<210 547 210 547> 434 276<80 388 417 478> 690 20G<80 210 210 210 417 532 532 532>
VStem: 80 130<113 710 113 710 113 710>
AnchorPoint: "Anchor-4" 399.562 534 basechar 0
AnchorPoint: "Anchor-3" 207.596 710 basechar 0
AnchorPoint: "Anchor-1" 184.408 380 basechar 0
AnchorPoint: "Anchor-0" 250.404 0 basechar 0
LayerCount: 2
Fore
SplineSet
17.404296875 0 m 1xb0
 142.595703125 710 l 1
 272.595703125 710 l 1
 167.329101562 113 l 1
 504.329101562 113 l 1
 484.404296875 0 l 1
 17.404296875 0 l 1xb0
401.9296875 434 m 1xd0
 479.595703125 710 l 1
 594.595703125 710 l 1
 491.9296875 434 l 1
 401.9296875 434 l 1xd0
EndSplineSet
Validated: 1
EndChar

StartChar: uni013B
Encoding: 315 315 66
Width: 586
GlyphClass: 2
Flags: HMW
HStem: -158 108<253 289 253 373> 0 113<210 547 210 547> 690 20G<80 210 210 210>
VStem: 80 130<113 710 113 710 113 710> 253 120<-147 -50 -147 -50 -147 -50>
AnchorPoint: "Anchor-4" 421.516 534 basechar 0
AnchorPoint: "Anchor-3" 229.549 710 basechar 0
AnchorPoint: "Anchor-1" 206.361 380 basechar 0
AnchorPoint: "Anchor-0" 228.451 -249 basechar 0
LayerCount: 2
Fore
SplineSet
39.3564453125 0 m 1
 164.548828125 710 l 1
 294.548828125 710 l 1
 189.28125 113 l 1
 526.28125 113 l 1
 506.356445312 0 l 1
 39.3564453125 0 l 1
151.451171875 -249 m 1
 220.497070312 -158 l 1
 184.497070312 -158 l 1
 203.540039062 -50 l 1
 323.540039062 -50 l 1
 306.436523438 -147 l 1
 229.451171875 -249 l 1
 151.451171875 -249 l 1
EndSplineSet
Validated: 1
Substitution2: "'locl' Localized Forms in Latin lookup 11 subtable" uni013B.loclMAH
Substitution2: "'aalt' Access All Alternates in Latin lookup 0 subtable" uni013B.loclMAH
EndChar

StartChar: Lslash
Encoding: 321 321 67
Width: 586
GlyphClass: 2
Flags: HMW
HStem: 0 113<210 547 210 547> 690 20G<80 210 210 210>
VStem: 80 130<113 283 283 283 441 710>
AnchorPoint: "Anchor-4" 399.562 534 basechar 0
AnchorPoint: "Anchor-3" 207.596 710 basechar 0
AnchorPoint: "Anchor-1" 184.408 380 basechar 0
AnchorPoint: "Anchor-0" 250.404 0 basechar 0
LayerCount: 2
Fore
SplineSet
17.404296875 0 m 1
 67.3046875 283 l 1
 -8.6904296875 249 l 1
 7.7080078125 342 l 1
 83.87890625 377 l 1
 142.595703125 710 l 1
 272.595703125 710 l 1
 225.1640625 441 l 1
 378.506835938 511 l 1
 361.932617188 417 l 1
 208.765625 348 l 1
 167.329101562 113 l 1
 504.329101562 113 l 1
 484.404296875 0 l 1
 17.404296875 0 l 1
EndSplineSet
Validated: 1
EndChar

StartChar: M
Encoding: 77 77 68
Width: 902
GlyphClass: 2
Flags: HMW
HStem: 0 21G<80 80 80 210 692 692 692 822> 690 20G<80 255 255 255 647 822 822 822>
VStem: 80 130<0 490 0 710> 692 130<0 490 490 490>
AnchorPoint: "Anchor-3" 513.596 710 basechar 0
AnchorPoint: "Anchor-0" 388.404 0 basechar 0
LayerCount: 2
Fore
SplineSet
17.404296875 0 m 1
 142.595703125 710 l 1
 317.595703125 710 l 1
 416.616210938 160 l 1
 709.595703125 710 l 1
 884.595703125 710 l 1
 759.404296875 0 l 1
 629.404296875 0 l 1
 715.803710938 490 l 1
 450.580078125 1 l 1
 326.580078125 1 l 1
 233.803710938 490 l 1
 147.404296875 0 l 1
 17.404296875 0 l 1
EndSplineSet
Validated: 1
EndChar

StartChar: N
Encoding: 78 78 69
Width: 748
GlyphClass: 2
Flags: HMW
HStem: 0 21G<80 80 80 210 512 512 512 668> 690 20G<80 232 232 232 538 668 668 668>
VStem: 80 130<0 519 0 710> 538 130<176 710 0 710>
AnchorPoint: "Anchor-3" 445.596 710 basechar 0
AnchorPoint: "Anchor-0" 310.404 0 basechar 0
LayerCount: 2
Fore
SplineSet
17.404296875 0 m 1
 142.595703125 710 l 1
 294.595703125 710 l 1
 506.4375 176 l 1
 600.595703125 710 l 1
 730.595703125 710 l 1
 605.404296875 0 l 1
 449.404296875 0 l 1
 238.91796875 519 l 1
 147.404296875 0 l 1
 17.404296875 0 l 1
EndSplineSet
Validated: 1
EndChar

StartChar: Nacute
Encoding: 323 323 70
Width: 748
GlyphClass: 2
Flags: HMW
HStem: 0 21G<80 80 80 210 512 512 512 668> 690 20G<80 232 232 232 538 668 668 668> 770 140<325 515 386 425>
VStem: 80 130<0 519 0 710> 538 130<176 710 0 710>
AnchorPoint: "Anchor-3" 427.964 710 basechar 0
AnchorPoint: "Anchor-0" 292.771 0 basechar 0
LayerCount: 2
Fore
SplineSet
380.54296875 770 m 1
 466.228515625 910 l 1
 595.228515625 910 l 1
 480.54296875 770 l 1
 380.54296875 770 l 1
-0.228515625 0 m 1
 124.963867188 710 l 1
 276.963867188 710 l 1
 488.8046875 176 l 1
 582.963867188 710 l 1
 712.963867188 710 l 1
 587.771484375 0 l 1
 431.771484375 0 l 1
 221.28515625 519 l 1
 129.771484375 0 l 1
 -0.228515625 0 l 1
EndSplineSet
Validated: 1
EndChar

StartChar: Ncaron
Encoding: 327 327 71
Width: 748
GlyphClass: 2
Flags: HMW
HStem: 0 21G<80 80 80 210 512 512 512 668> 690 20G<80 232 232 232 538 668 668 668> 770 146<225 447 225 319>
VStem: 80 130<0 519 0 710> 538 130<176 710 0 710>
AnchorPoint: "Anchor-3" 427.435 710 basechar 0
AnchorPoint: "Anchor-0" 292.242 0 basechar 0
LayerCount: 2
Fore
SplineSet
305.7578125 916 m 1
 398.7578125 916 l 1
 448.064453125 827 l 1
 527.7578125 916 l 1
 621.7578125 916 l 1
 502.013671875 770 l 1
 374.013671875 770 l 1
 305.7578125 916 l 1
-0.7578125 0 m 1
 124.434570312 710 l 1
 276.434570312 710 l 1
 488.275390625 176 l 1
 582.434570312 710 l 1
 712.434570312 710 l 1
 587.2421875 0 l 1
 431.2421875 0 l 1
 220.755859375 519 l 1
 129.2421875 0 l 1
 -0.7578125 0 l 1
EndSplineSet
Validated: 1
EndChar

StartChar: uni0145
Encoding: 325 325 72
Width: 748
GlyphClass: 2
Flags: HMW
HStem: -158 108<313 348 313 433> 0 21G<80 80 80 210 512 512 512 668> 690 20G<80 232 232 232 538 668 668 668>
VStem: 80 130<0 519 0 710> 313 120<-147 -50 -147 -50 -147 -50> 538 130<176 710 0 710>
AnchorPoint: "Anchor-3" 467.549 710 basechar 0
AnchorPoint: "Anchor-0" 288.451 -249 basechar 0
LayerCount: 2
Fore
SplineSet
39.3564453125 0 m 1
 164.548828125 710 l 1
 316.548828125 710 l 1
 528.390625 176 l 1
 622.548828125 710 l 1
 752.548828125 710 l 1
 627.356445312 0 l 1
 471.356445312 0 l 1
 260.870117188 519 l 1
 169.356445312 0 l 1
 39.3564453125 0 l 1
210.451171875 -249 m 1
 279.497070312 -158 l 1
 244.497070312 -158 l 1
 263.540039062 -50 l 1
 383.540039062 -50 l 1
 366.436523438 -147 l 1
 288.451171875 -249 l 1
 210.451171875 -249 l 1
EndSplineSet
Validated: 1
Substitution2: "'locl' Localized Forms in Latin lookup 11 subtable" uni0145.loclMAH
Substitution2: "'aalt' Access All Alternates in Latin lookup 0 subtable" uni0145.loclMAH
EndChar

StartChar: Ntilde
Encoding: 209 209 73
Width: 748
GlyphClass: 2
Flags: HMW
HStem: 0 21G<80 80 80 210 512 512 512 668> 690 20G<80 232 232 232 538 668 668 668> 773 134<216 337 216 337> 780 78<436 454 436 473.5> 780 136<425.5 549> 829 78<312.5 331>
VStem: 80 130<0 519 0 710> 216 67<773 773> 482 67<916 916> 538 130<176 710 0 710>
AnchorPoint: "Anchor-3" 427.435 710 basechar 0
AnchorPoint: "Anchor-0" 292.242 0 basechar 0
LayerCount: 2
Fore
SplineSet
496.77734375 780 m 0xca80
 467.77734375 780 448.1875 788 427.71484375 808 c 0
 412.359375 823 404.416992188 829 388.416992188 829 c 0xc540
 367.416992188 829 349.301757812 817 338.54296875 773 c 1xe140
 271.54296875 773 l 1
 287.354492188 857 336.170898438 907 400.170898438 907 c 0xc540
 432.170898438 907 453.583984375 898 475.057617188 878 c 0
 489.412109375 863 499.53125 858 513.53125 858 c 0xd280
 535.53125 858 551.646484375 870 562.7578125 916 c 1
 629.7578125 916 l 1
 612.76953125 831 563.77734375 780 496.77734375 780 c 0xca80
-0.7578125 0 m 1xc640
 124.434570312 710 l 1
 276.434570312 710 l 1
 488.275390625 176 l 1
 582.434570312 710 l 1
 712.434570312 710 l 1
 587.2421875 0 l 1
 431.2421875 0 l 1
 220.755859375 519 l 1
 129.2421875 0 l 1
 -0.7578125 0 l 1xc640
EndSplineSet
Validated: 1
EndChar

StartChar: Eng
Encoding: 330 330 74
Width: 748
GlyphClass: 2
Flags: HMW
HStem: -158 96<389 487 487 505.5 389 510 389 487> 0 21G<80 80 80 210 512 512 512 543> 690 20G<80 232 232 232 538 668 668 668>
VStem: 80 130<0 519 0 710> 538 130<176 710> 543 125<-8 -6 -6 0 0 0>
AnchorPoint: "Anchor-3" 450.526 710 basechar 0
AnchorPoint: "Anchor-0" 298.885 -150 basechar 0
LayerCount: 2
Fore
SplineSet
31.333984375 0 m 1xf4
 156.526367188 710 l 1
 308.526367188 710 l 1
 520.3671875 176 l 1
 614.526367188 710 l 1
 744.526367188 710 l 1
 618.275390625 -6 l 2xf8
 601.701171875 -100 535.473632812 -158 433.473632812 -158 c 2
 312.473632812 -158 l 1
 329.401367188 -62 l 1
 427.401367188 -62 l 2
 464.401367188 -62 486.399414062 -45 492.922851562 -8 c 2
 494.333984375 0 l 1
 463.333984375 0 l 1
 252.84765625 519 l 1
 161.333984375 0 l 1
 31.333984375 0 l 1xf4
EndSplineSet
Validated: 1
EndChar

StartChar: O
Encoding: 79 79 75
Width: 763
GlyphClass: 2
Flags: HMW
HStem: -16 113<317.5 445.5 317.5 487> 613 113<317.5 445.5>
VStem: 43 134<273 435 273 468.5> 586 134<273 435>
AnchorPoint: "Anchor-3" 443.596 710 basechar 0
AnchorPoint: "Anchor-1" 382 355 basechar 0
AnchorPoint: "Anchor-0" 318.404 0 basechar 0
LayerCount: 2
Fore
SplineSet
315.583007812 -16 m 0
 104.583007812 -16 2.4443359375 125 42.8232421875 354 c 0
 83.2021484375 583 235.416992188 726 446.416992188 726 c 0
 658.416992188 726 760.202148438 583 719.823242188 354 c 0
 679.444335938 125 527.583007812 -16 315.583007812 -16 c 0
335.5078125 97 m 0
 464.5078125 97 557.258789062 192 585.823242188 354 c 0
 614.388671875 516 555.4921875 613 426.4921875 613 c 0
 299.4921875 613 205.388671875 516 176.823242188 354 c 0
 148.258789062 192 208.5078125 97 335.5078125 97 c 0
EndSplineSet
Validated: 33
Substitution2: "Single Substitution lookup 27 subtable" ordmasculine
Substitution2: "'aalt' Access All Alternates in Latin lookup 0 subtable" ordmasculine
EndChar

StartChar: Oacute
Encoding: 211 211 76
Width: 763
GlyphClass: 2
Flags: HMW
HStem: -16 113<317.5 445.5 317.5 487> 613 113<317.5 445.5> 770 140<324 513 385 423>
VStem: 43 134<273 435 273 468.5> 586 134<273 435>
AnchorPoint: "Anchor-3" 427.374 710 basechar 0
AnchorPoint: "Anchor-1" 365.778 355 basechar 0
AnchorPoint: "Anchor-0" 302.182 0 basechar 0
LayerCount: 2
Fore
SplineSet
380.954101562 770 m 1
 466.639648438 910 l 1
 594.639648438 910 l 1
 479.954101562 770 l 1
 380.954101562 770 l 1
299.360351562 -16 m 0
 88.3603515625 -16 -13.77734375 125 26.6015625 354 c 0
 66.98046875 583 219.1953125 726 430.1953125 726 c 0
 642.1953125 726 743.98046875 583 703.6015625 354 c 0
 663.22265625 125 511.360351562 -16 299.360351562 -16 c 0
319.28515625 97 m 0
 448.28515625 97 541.036132812 192 569.6015625 354 c 0
 598.166992188 516 539.270507812 613 410.270507812 613 c 0
 283.270507812 613 189.166992188 516 160.6015625 354 c 0
 132.036132812 192 192.28515625 97 319.28515625 97 c 0
EndSplineSet
Validated: 33
EndChar

StartChar: Ocircumflex
Encoding: 212 212 77
Width: 763
GlyphClass: 2
Flags: HMW
HStem: -16 113<317.5 445.5 317.5 487> 613 113<317.5 445.5> 770 146<224 445 224 445 318 446 318 539>
VStem: 43 134<273 435 273 468.5> 586 134<273 435>
AnchorPoint: "Anchor-3" 426.845 710 basechar 0
AnchorPoint: "Anchor-1" 365.249 355 basechar 0
AnchorPoint: "Anchor-0" 301.653 0 basechar 0
LayerCount: 2
Fore
SplineSet
280.424804688 770 m 1
 400.16796875 916 l 1
 527.16796875 916 l 1
 595.424804688 770 l 1
 502.424804688 770 l 1
 453.118164062 859 l 1
 373.424804688 770 l 1
 280.424804688 770 l 1
298.83203125 -16 m 0
 87.83203125 -16 -14.306640625 125 26.072265625 354 c 0
 66.451171875 583 218.666015625 726 429.666015625 726 c 0
 641.666015625 726 743.451171875 583 703.072265625 354 c 0
 662.693359375 125 510.83203125 -16 298.83203125 -16 c 0
318.756835938 97 m 0
 447.756835938 97 540.5078125 192 569.072265625 354 c 0
 597.637695312 516 538.741210938 613 409.741210938 613 c 0
 282.741210938 613 188.637695312 516 160.072265625 354 c 0
 131.5078125 192 191.756835938 97 318.756835938 97 c 0
EndSplineSet
Validated: 33
EndChar

StartChar: Odieresis
Encoding: 214 214 78
Width: 763
GlyphClass: 2
Flags: HMW
HStem: -16 113<317.5 445.5 317.5 487> 613 113<317.5 445.5> 780 113<218 343 218 343 420 544 218 420>
VStem: 43 134<273 435 273 468.5> 218 125<780 893 780 893> 420 124<780 893 780 893> 586 134<273 435>
AnchorPoint: "Anchor-3" 428.873 710 basechar 0
AnchorPoint: "Anchor-1" 367.276 355 basechar 0
AnchorPoint: "Anchor-0" 303.681 0 basechar 0
LayerCount: 2
Fore
SplineSet
278.215820312 780 m 1
 298.140625 893 l 1
 423.140625 893 l 1
 403.215820312 780 l 1
 278.215820312 780 l 1
480.215820312 780 m 1
 500.140625 893 l 1
 624.140625 893 l 1
 604.215820312 780 l 1
 480.215820312 780 l 1
300.859375 -16 m 0
 89.859375 -16 -12.2783203125 125 28.1005859375 354 c 0
 68.4794921875 583 220.694335938 726 431.694335938 726 c 0
 643.694335938 726 745.479492188 583 705.100585938 354 c 0
 664.721679688 125 512.859375 -16 300.859375 -16 c 0
320.784179688 97 m 0
 449.784179688 97 542.53515625 192 571.100585938 354 c 0
 599.665039062 516 540.76953125 613 411.76953125 613 c 0
 284.76953125 613 190.665039062 516 162.100585938 354 c 0
 133.53515625 192 193.784179688 97 320.784179688 97 c 0
EndSplineSet
Validated: 33
Substitution2: "'ss08' Style Set 8 in Latin lookup 41 subtable" Odieresis.ss08
Substitution2: "'aalt' Access All Alternates in Latin lookup 0 subtable" Odieresis.ss08
EndChar

StartChar: Ograve
Encoding: 210 210 79
Width: 763
GlyphClass: 2
Flags: HMW
HStem: -16 113<317.5 445.5 317.5 487> 613 113<317.5 445.5> 775 141<339 339 339 378 249 439>
VStem: 43 134<273 435 273 468.5> 586 134<273 435>
AnchorPoint: "Anchor-3" 426.845 710 basechar 0
AnchorPoint: "Anchor-1" 365.249 355 basechar 0
AnchorPoint: "Anchor-0" 301.653 0 basechar 0
LayerCount: 2
Fore
SplineSet
396.306640625 775 m 1
 331.16796875 916 l 1
 460.16796875 916 l 1
 496.306640625 775 l 1
 396.306640625 775 l 1
298.83203125 -16 m 0
 87.83203125 -16 -14.306640625 125 26.072265625 354 c 0
 66.451171875 583 218.666015625 726 429.666015625 726 c 0
 641.666015625 726 743.451171875 583 703.072265625 354 c 0
 662.693359375 125 510.83203125 -16 298.83203125 -16 c 0
318.756835938 97 m 0
 447.756835938 97 540.5078125 192 569.072265625 354 c 0
 597.637695312 516 538.741210938 613 409.741210938 613 c 0
 282.741210938 613 188.637695312 516 160.072265625 354 c 0
 131.5078125 192 191.756835938 97 318.756835938 97 c 0
EndSplineSet
Validated: 33
EndChar

StartChar: Ohungarumlaut
Encoding: 336 336 80
Width: 763
GlyphClass: 2
Flags: HMW
HStem: -16 113<317.5 445.5 317.5 487> 613 113<317.5 445.5> 770 140<249 439 311 349 411 439 472 511 411 411>
VStem: 43 134<273 435 273 468.5> 586 134<273 435>
AnchorPoint: "Anchor-3" 427.374 710 basechar 0
AnchorPoint: "Anchor-1" 365.778 355 basechar 0
AnchorPoint: "Anchor-0" 302.182 0 basechar 0
LayerCount: 2
Fore
SplineSet
305.954101562 770 m 1
 392.639648438 910 l 1
 520.639648438 910 l 1
 405.954101562 770 l 1
 305.954101562 770 l 1
467.954101562 770 m 1
 553.639648438 910 l 1
 682.639648438 910 l 1
 567.954101562 770 l 1
 467.954101562 770 l 1
299.360351562 -16 m 0
 88.3603515625 -16 -13.77734375 125 26.6015625 354 c 0
 66.98046875 583 219.1953125 726 430.1953125 726 c 0
 642.1953125 726 743.98046875 583 703.6015625 354 c 0
 663.22265625 125 511.360351562 -16 299.360351562 -16 c 0
319.28515625 97 m 0
 448.28515625 97 541.036132812 192 569.6015625 354 c 0
 598.166992188 516 539.270507812 613 410.270507812 613 c 0
 283.270507812 613 189.166992188 516 160.6015625 354 c 0
 132.036132812 192 192.28515625 97 319.28515625 97 c 0
EndSplineSet
Validated: 33
EndChar

StartChar: Omacron
Encoding: 332 332 81
Width: 763
GlyphClass: 2
Flags: HMW
HStem: -16 113<317.5 445.5 317.5 487> 613 113<317.5 445.5> 789 97<237 526 237 526>
VStem: 43 134<273 435 273 468.5> 237 289<789 886 789 886> 586 134<273 435>
AnchorPoint: "Anchor-3" 429.49 710 basechar 0
AnchorPoint: "Anchor-1" 367.894 355 basechar 0
AnchorPoint: "Anchor-0" 304.298 0 basechar 0
LayerCount: 2
Fore
SplineSet
299.419921875 789 m 1
 316.5234375 886 l 1
 605.5234375 886 l 1
 588.419921875 789 l 1
 299.419921875 789 l 1
301.4765625 -16 m 0
 90.4765625 -16 -11.6611328125 125 28.7177734375 354 c 0
 69.0966796875 583 221.311523438 726 432.311523438 726 c 0
 644.311523438 726 746.096679688 583 705.717773438 354 c 0
 665.338867188 125 513.4765625 -16 301.4765625 -16 c 0
321.401367188 97 m 0
 450.401367188 97 543.15234375 192 571.717773438 354 c 0
 600.282226562 516 541.385742188 613 412.385742188 613 c 0
 285.385742188 613 191.282226562 516 162.717773438 354 c 0
 134.15234375 192 194.401367188 97 321.401367188 97 c 0
EndSplineSet
Validated: 33
EndChar

StartChar: Oslash
Encoding: 216 216 82
Width: 763
GlyphClass: 2
Flags: HMW
HStem: -16 113<360.5 445.5 360.5 487> 613 113<317.5 402>
VStem: 43 134<320.5 435 320.5 468.5> 586 134<273 388>
AnchorPoint: "Anchor-3" 443.596 710 basechar 0
AnchorPoint: "Anchor-1" 382 355 basechar 0
AnchorPoint: "Anchor-0" 318.404 0 basechar 0
LayerCount: 2
Fore
SplineSet
7.5830078125 -16 m 1
 89.1572265625 78 l 1
 39.4423828125 142 22.0166015625 236 42.8232421875 354 c 0
 83.2021484375 583 235.416992188 726 446.416992188 726 c 0
 515.416992188 726 571.772460938 711 615.834960938 683 c 1
 653.416992188 726 l 1
 755.416992188 726 l 1
 673.842773438 632 l 1
 724.380859375 567 740.629882812 472 719.823242188 354 c 0
 679.444335938 125 527.583007812 -16 315.583007812 -16 c 0
 247.583007812 -16 191.227539062 -1 146.98828125 26 c 1
 109.583007812 -16 l 1
 7.5830078125 -16 l 1
176.823242188 354 m 0
 165.009765625 287 169.135742188 231 185.729492188 189 c 1
 529.202148438 583 l 1
 502.729492188 603 468.4921875 613 426.4921875 613 c 0
 299.4921875 613 205.388671875 516 176.823242188 354 c 0
335.5078125 97 m 0
 464.5078125 97 557.258789062 192 585.823242188 354 c 0
 597.813476562 422 594.688476562 478 577.270507812 521 c 1
 233.62109375 126 l 1
 260.270507812 107 294.5078125 97 335.5078125 97 c 0
EndSplineSet
Validated: 33
EndChar

StartChar: Otilde
Encoding: 213 213 83
Width: 763
GlyphClass: 2
Flags: HMW
HStem: -16 113<317.5 445.5 317.5 487> 613 113<317.5 445.5> 773 134<214 336 214 336> 780 78<435 452.5 435 472> 780 136<423.5 548> 829 78<310.5 329>
VStem: 43 134<273 435 273 468.5> 214 67<773 773> 480 68<916 916> 586 134<273 435>
AnchorPoint: "Anchor-3" 426.845 710 basechar 0
AnchorPoint: "Anchor-1" 365.249 355 basechar 0
AnchorPoint: "Anchor-0" 301.653 0 basechar 0
LayerCount: 2
Fore
SplineSet
496.1875 780 m 0xcac0
 467.1875 780 448.598632812 788 427.125 808 c 0
 412.76953125 823 403.828125 829 387.828125 829 c 0xc740
 366.828125 829 348.711914062 817 337.954101562 773 c 1xe340
 270.954101562 773 l 1
 286.764648438 857 336.581054688 907 400.581054688 907 c 0xc740
 432.581054688 907 452.994140625 898 474.467773438 878 c 0
 489.823242188 863 499.94140625 858 513.94140625 858 c 0xd2c0
 534.94140625 858 551.057617188 870 562.16796875 916 c 1
 630.16796875 916 l 1
 612.180664062 831 564.1875 780 496.1875 780 c 0xcac0
298.83203125 -16 m 0
 87.83203125 -16 -14.306640625 125 26.072265625 354 c 0
 66.451171875 583 218.666015625 726 429.666015625 726 c 0
 641.666015625 726 743.451171875 583 703.072265625 354 c 0
 662.693359375 125 510.83203125 -16 298.83203125 -16 c 0
318.756835938 97 m 0
 447.756835938 97 540.5078125 192 569.072265625 354 c 0
 597.637695312 516 538.741210938 613 409.741210938 613 c 0
 282.741210938 613 188.637695312 516 160.072265625 354 c 0
 131.5078125 192 191.756835938 97 318.756835938 97 c 0
EndSplineSet
Validated: 33
EndChar

StartChar: OE
Encoding: 338 338 84
Width: 1109
GlyphClass: 2
Flags: HMW
HStem: -16 113<312 428> 0 113<732 1060 732 1060> 300 112<732 1040 732 1040> 597 113<732 1052 732 732> 613 113<311.5 428 276 450.5>
VStem: 43 134<279.5 428 279.5 468> 585 147<279.5 300 412 427.5> 602 130<0 300 79 300>
AnchorPoint: "Anchor-3" 616.596 710 basechar 0
AnchorPoint: "Anchor-0" 491.404 0 basechar 0
LayerCount: 2
Fore
SplineSet
314.583007812 -16 m 0xb5
 106.583007812 -16 2.9736328125 128 42.8232421875 354 c 0
 83.0263671875 582 237.416992188 726 445.416992188 726 c 0xae
 541.416992188 726 610.421875 692 650.490234375 630 c 1
 664.595703125 710 l 1x75
 1114.59570312 710 l 1
 1094.67089844 597 l 1
 774.670898438 597 l 1
 742.05078125 412 l 1
 1050.05078125 412 l 1
 1030.30175781 300 l 1
 722.301757812 300 l 1
 689.329101562 113 l 1x76
 1017.32910156 113 l 1
 997.404296875 0 l 1
 539.404296875 0 l 1x75
 553.333984375 79 l 1
 491.75390625 19 410.583007812 -16 314.583007812 -16 c 0xb5
334.5078125 97 m 0
 474.5078125 97 558.55078125 205 584.823242188 354 c 0
 610.744140625 501 566.4921875 613 425.4921875 613 c 0
 288.4921875 613 202.919921875 502 176.823242188 354 c 0
 150.55078125 205 198.5078125 97 334.5078125 97 c 0
EndSplineSet
Validated: 33
EndChar

StartChar: P
Encoding: 80 80 85
Width: 664
GlyphClass: 2
Flags: HMW
HStem: 0 21G<80 80 80 210> 256 113<210 349 349 355 210 349> 597 113<210 349 210 210>
VStem: 80 130<0 256 369 597> 486 134<446 521>
AnchorPoint: "Anchor-3" 394.596 710 basechar 0
AnchorPoint: "Anchor-0" 269.404 0 basechar 0
LayerCount: 2
Fore
SplineSet
17.404296875 0 m 1
 142.595703125 710 l 1
 417.595703125 710 l 2
 583.595703125 710 667.608398438 625 642.74609375 484 c 0
 617.708007812 342 503.543945312 256 337.543945312 256 c 2
 192.543945312 256 l 1
 147.404296875 0 l 1
 17.404296875 0 l 1
212.46875 369 m 1
 351.46875 369 l 2
 439.46875 369 495.345703125 408 508.74609375 484 c 0
 521.793945312 558 480.670898438 597 391.670898438 597 c 2
 252.670898438 597 l 1
 212.46875 369 l 1
EndSplineSet
Validated: 33
EndChar

StartChar: Thorn
Encoding: 222 222 86
Width: 634
GlyphClass: 2
Flags: HMW
HStem: 0 21G<80 80 80 210> 149 114<210 328 328 330 210 328> 469 113<210 328 210 330> 690 20G<80 210 210 210>
VStem: 80 130<0 149 0 263 263 469 582 710> 456 134<331.5 400>
AnchorPoint: "Anchor-3" 379.596 710 basechar 0
AnchorPoint: "Anchor-0" 254.404 0 basechar 0
LayerCount: 2
Fore
SplineSet
17.404296875 0 m 1
 142.595703125 710 l 1
 272.595703125 710 l 1
 250.026367188 582 l 1
 370.026367188 582 l 2
 535.026367188 582 616.096679688 503 591.939453125 366 c 0
 567.783203125 229 458.676757812 149 293.676757812 149 c 2
 173.676757812 149 l 1
 147.404296875 0 l 1
 17.404296875 0 l 1
348.1015625 469 m 2
 230.1015625 469 l 1
 193.778320312 263 l 1
 311.778320312 263 l 2
 396.778320312 263 445.7734375 297 457.939453125 366 c 0
 469.9296875 434 433.1015625 469 348.1015625 469 c 2
EndSplineSet
Validated: 33
EndChar

StartChar: Q
Encoding: 81 81 87
Width: 757
GlyphClass: 2
Flags: HMW
HStem: -16 113<310 389 310 403> 613 113<309 447>
VStem: 43 134<285 423.5 285 459> 580 134<306 423.5>
AnchorPoint: "Anchor-3" 444.828 710 basechar 0
AnchorPoint: "Anchor-0" 319.636 0 basechar 0
LayerCount: 2
Fore
SplineSet
490.350585938 -64 m 1
 446.870117188 7 l 1
 413.401367188 -7 366.814453125 -16 316.814453125 -16 c 0
 108.814453125 -16 9.498046875 141 47.0556640625 354 c 0
 84.083984375 564 231.649414062 726 447.649414062 726 c 0
 665.649414062 726 755.083984375 564 718.055664062 354 c 0
 694.95703125 223 629.265625 117 533.62890625 51 c 1
 605.350585938 -64 l 1
 490.350585938 -64 l 1
336.739257812 97 m 0
 358.739257812 97 377.091796875 99 391.150390625 105 c 1
 314.014648438 229 l 1
 428.014648438 229 l 1
 474.084960938 150 l 1
 529.490234375 192 567.127929688 258 584.055664062 354 c 0
 608.565429688 493 565.724609375 613 427.724609375 613 c 0
 289.724609375 613 205.565429688 493 181.055664062 354 c 0
 156.72265625 216 200.739257812 97 336.739257812 97 c 0
EndSplineSet
Validated: 33
EndChar

StartChar: R
Encoding: 82 82 88
Width: 689
GlyphClass: 2
Flags: HMW
HStem: 0 21G<80 80 80 210 502 502 502 634> 268 114<210 369 369 380 210 369> 597 113<210 363 210 210>
VStem: 80 130<0 268 382 597> 494 134<454.5 524>
AnchorPoint: "Anchor-3" 404.596 710 basechar 0
AnchorPoint: "Anchor-0" 294.404 0 basechar 0
LayerCount: 2
Fore
SplineSet
17.404296875 0 m 1
 142.595703125 710 l 1
 439.595703125 710 l 2
 592.595703125 710 675.9609375 627 653.038085938 497 c 0
 638.05078125 412 573.942382812 349 500.239257812 328 c 1
 565.475585938 318 596.422851562 278 589.55078125 205 c 2
 571.404296875 0 l 1
 439.404296875 0 l 1
 457.201171875 186 l 2
 463.250976562 243 438.659179688 268 364.659179688 268 c 2
 194.659179688 268 l 1
 147.404296875 0 l 1
 17.404296875 0 l 1
214.760742188 382 m 1
 373.760742188 382 l 2
 451.760742188 382 505.4609375 420 517.627929688 489 c 0
 529.970703125 559 489.670898438 597 405.670898438 597 c 2
 252.670898438 597 l 1
 214.760742188 382 l 1
EndSplineSet
Validated: 33
Substitution2: "'ss04' Style Set 4 in Latin lookup 37 subtable" R.ss04
Substitution2: "'aalt' Access All Alternates in Latin lookup 0 subtable" R.ss04
EndChar

StartChar: Racute
Encoding: 340 340 89
Width: 689
GlyphClass: 2
Flags: HMW
HStem: 0 21G<80 80 80 210 502 502 502 634> 268 114<210 369 369 380 210 369> 597 113<210 363 210 210> 770 140<284 474 346 384>
VStem: 80 130<0 268 382 597> 494 134<454.5 524>
AnchorPoint: "Anchor-3" 386.964 710 basechar 0
AnchorPoint: "Anchor-0" 276.771 0 basechar 0
LayerCount: 2
Fore
SplineSet
339.54296875 770 m 1
 426.228515625 910 l 1
 554.228515625 910 l 1
 439.54296875 770 l 1
 339.54296875 770 l 1
-0.228515625 0 m 1
 124.963867188 710 l 1
 421.963867188 710 l 2
 574.963867188 710 658.328125 627 635.405273438 497 c 0
 620.41796875 412 556.309570312 349 482.606445312 328 c 1
 547.842773438 318 578.790039062 278 571.91796875 205 c 2
 553.771484375 0 l 1
 421.771484375 0 l 1
 439.568359375 186 l 2
 445.619140625 243 421.026367188 268 347.026367188 268 c 2
 177.026367188 268 l 1
 129.771484375 0 l 1
 -0.228515625 0 l 1
197.127929688 382 m 1
 356.127929688 382 l 2
 434.127929688 382 487.828125 420 499.995117188 489 c 0
 512.337890625 559 472.038085938 597 388.038085938 597 c 2
 235.038085938 597 l 1
 197.127929688 382 l 1
EndSplineSet
Validated: 33
Substitution2: "'ss04' Style Set 4 in Latin lookup 37 subtable" Racute.ss04
Substitution2: "'aalt' Access All Alternates in Latin lookup 0 subtable" Racute.ss04
EndChar

StartChar: Rcaron
Encoding: 344 344 90
Width: 689
GlyphClass: 2
Flags: HMW
HStem: 0 21G<80 80 80 210 502 502 502 634> 268 114<210 369 369 380 210 369> 597 113<210 363 210 210> 770 146<184 406 184 278>
VStem: 80 130<0 268 382 597> 494 134<454.5 524>
AnchorPoint: "Anchor-3" 386.435 710 basechar 0
AnchorPoint: "Anchor-0" 276.242 0 basechar 0
LayerCount: 2
Fore
SplineSet
264.7578125 916 m 1
 358.7578125 916 l 1
 407.064453125 827 l 1
 487.7578125 916 l 1
 580.7578125 916 l 1
 461.013671875 770 l 1
 333.013671875 770 l 1
 264.7578125 916 l 1
-0.7578125 0 m 1
 124.434570312 710 l 1
 421.434570312 710 l 2
 574.434570312 710 657.798828125 627 634.876953125 497 c 0
 619.888671875 412 555.780273438 349 482.077148438 328 c 1
 547.314453125 318 578.260742188 278 571.389648438 205 c 2
 553.2421875 0 l 1
 421.2421875 0 l 1
 439.0390625 186 l 2
 445.08984375 243 420.498046875 268 346.498046875 268 c 2
 176.498046875 268 l 1
 129.2421875 0 l 1
 -0.7578125 0 l 1
196.599609375 382 m 1
 355.599609375 382 l 2
 433.599609375 382 487.299804688 420 499.465820312 489 c 0
 511.80859375 559 471.509765625 597 387.509765625 597 c 2
 234.509765625 597 l 1
 196.599609375 382 l 1
EndSplineSet
Validated: 33
Substitution2: "'ss04' Style Set 4 in Latin lookup 37 subtable" Rcaron.ss04
Substitution2: "'aalt' Access All Alternates in Latin lookup 0 subtable" Rcaron.ss04
EndChar

StartChar: uni0156
Encoding: 342 342 91
Width: 689
GlyphClass: 2
Flags: HMW
HStem: -158 108<297 332 297 417> 0 21G<80 80 80 210 502 502 502 634> 268 114<210 369 369 380 210 369> 597 113<210 363 210 210>
VStem: 80 130<0 268 382 597> 297 120<-147 -50 -147 -50 -147 -50> 494 134<454.5 524>
AnchorPoint: "Anchor-3" 426.549 710 basechar 0
AnchorPoint: "Anchor-0" 272.451 -249 basechar 0
LayerCount: 2
Fore
SplineSet
39.3564453125 0 m 1
 164.548828125 710 l 1
 461.548828125 710 l 2
 614.548828125 710 697.9140625 627 674.991210938 497 c 0
 660.002929688 412 595.89453125 349 522.19140625 328 c 1
 587.428710938 318 618.375976562 278 611.50390625 205 c 2
 593.356445312 0 l 1
 461.356445312 0 l 1
 479.153320312 186 l 2
 485.204101562 243 460.612304688 268 386.612304688 268 c 2
 216.612304688 268 l 1
 169.356445312 0 l 1
 39.3564453125 0 l 1
236.713867188 382 m 1
 395.713867188 382 l 2
 473.713867188 382 527.4140625 420 539.580078125 489 c 0
 551.923828125 559 511.624023438 597 427.624023438 597 c 2
 274.624023438 597 l 1
 236.713867188 382 l 1
194.451171875 -249 m 1
 263.497070312 -158 l 1
 228.497070312 -158 l 1
 247.540039062 -50 l 1
 367.540039062 -50 l 1
 350.436523438 -147 l 1
 272.451171875 -249 l 1
 194.451171875 -249 l 1
EndSplineSet
Validated: 33
Substitution2: "'ss04' Style Set 4 in Latin lookup 37 subtable" uni0156.ss04
Substitution2: "'aalt' Access All Alternates in Latin lookup 0 subtable" uni0156.ss04
EndChar

StartChar: S
Encoding: 83 83 92
Width: 668
GlyphClass: 2
Flags: HMW
HStem: -16 112<301 392 301 428.5> 614 112<283.5 366>
VStem: 67 133<492 548.5 492 578> 482 133<157.5 215.5>
AnchorPoint: "Anchor-3" 386.596 710 basechar 0
AnchorPoint: "Anchor-0" 279.404 0 basechar 0
LayerCount: 2
Fore
SplineSet
282.583007812 -16 m 0
 106.583007812 -16 16.0390625 83 31.1357421875 231 c 1
 164.545898438 239 l 1
 160.32421875 147 206.331054688 96 304.331054688 96 c 0
 388.331054688 96 441.797851562 127 452.553710938 188 c 0
 462.250976562 243 440.0703125 276 301.065429688 310 c 0
 132.118164062 350 74.9345703125 400 95.388671875 516 c 0
 117.252929688 640 229.416992188 726 388.416992188 726 c 0
 558.416992188 726 633.9609375 627 625.803710938 490 c 1
 493.74609375 484 l 1
 498.323242188 561 456.668945312 614 366.668945312 614 c 0
 291.668945312 614 238.96875 576 229.270507812 521 c 0
 219.04296875 463 248.1640625 441 370.05078125 412 c 0
 553.821289062 371 605.478515625 301 586.788085938 195 c 0
 563.865234375 65 443.583007812 -16 282.583007812 -16 c 0
EndSplineSet
Validated: 33
EndChar

StartChar: Sacute
Encoding: 346 346 93
Width: 668
GlyphClass: 2
Flags: HMW
HStem: -16 112<301 392 301 428.5> 614 112<283.5 366> 770 140<266 456 327 366>
VStem: 67 133<492 548.5 492 578> 482 133<157.5 215.5>
AnchorPoint: "Anchor-3" 370.374 710 basechar 0
AnchorPoint: "Anchor-0" 263.182 0 basechar 0
LayerCount: 2
Fore
SplineSet
322.954101562 770 m 1
 408.639648438 910 l 1
 537.639648438 910 l 1
 422.954101562 770 l 1
 322.954101562 770 l 1
266.360351562 -16 m 0
 90.3603515625 -16 -0.1826171875 83 14.9130859375 231 c 1
 148.32421875 239 l 1
 144.1015625 147 190.109375 96 288.109375 96 c 0
 372.109375 96 425.575195312 127 436.331054688 188 c 0
 446.029296875 243 423.84765625 276 284.842773438 310 c 0
 115.896484375 350 58.712890625 400 79.1669921875 516 c 0
 101.03125 640 213.1953125 726 372.1953125 726 c 0
 542.1953125 726 617.739257812 627 609.58203125 490 c 1
 477.524414062 484 l 1
 482.1015625 561 440.446289062 614 350.446289062 614 c 0
 275.446289062 614 222.74609375 576 213.047851562 521 c 0
 202.821289062 463 231.942382812 441 353.828125 412 c 0
 537.599609375 371 589.255859375 301 570.565429688 195 c 0
 547.643554688 65 427.360351562 -16 266.360351562 -16 c 0
EndSplineSet
Validated: 33
EndChar

StartChar: Scaron
Encoding: 352 352 94
Width: 668
GlyphClass: 2
Flags: HMW
HStem: -16 112<301 392 301 428.5> 614 112<283.5 366> 770 146<166 388 166 260>
VStem: 67 133<492 548.5 492 578> 482 133<157.5 215.5>
AnchorPoint: "Anchor-3" 369.845 710 basechar 0
AnchorPoint: "Anchor-0" 262.653 0 basechar 0
LayerCount: 2
Fore
SplineSet
248.16796875 916 m 1
 341.16796875 916 l 1
 390.475585938 827 l 1
 471.16796875 916 l 1
 564.16796875 916 l 1
 444.424804688 770 l 1
 316.424804688 770 l 1
 248.16796875 916 l 1
265.83203125 -16 m 0
 89.83203125 -16 -0.7119140625 83 14.384765625 231 c 1
 147.794921875 239 l 1
 143.573242188 147 189.580078125 96 287.580078125 96 c 0
 371.580078125 96 425.045898438 127 435.802734375 188 c 0
 445.5 243 423.319335938 276 284.314453125 310 c 0
 115.3671875 350 58.18359375 400 78.6376953125 516 c 0
 100.501953125 640 212.666015625 726 371.666015625 726 c 0
 541.666015625 726 617.209960938 627 609.052734375 490 c 1
 476.995117188 484 l 1
 481.572265625 561 439.91796875 614 349.91796875 614 c 0
 274.91796875 614 222.216796875 576 212.51953125 521 c 0
 202.291992188 463 231.413085938 441 353.299804688 412 c 0
 537.0703125 371 588.727539062 301 570.036132812 195 c 0
 547.114257812 65 426.83203125 -16 265.83203125 -16 c 0
EndSplineSet
Validated: 33
EndChar

StartChar: Scedilla
Encoding: 350 350 95
Width: 668
GlyphClass: 2
Flags: HMW
HStem: -228 67<316 347.5 316 369> -82 49<313 360> -82 178<313 341.5> -13 21G<297 297> 614 112<283.5 366>
VStem: 67 133<492 548.5 492 578> 382 74<-135 -111> 482 133<157.5 215.5>
AnchorPoint: "Anchor-3" 405.287 710 basechar 0
AnchorPoint: "Anchor-0" 298.095 0 basechar 0
LayerCount: 2
Fore
SplineSet
250.891601562 -228 m 0xce
 184.891601562 -228 147.88671875 -194 140.174804688 -147 c 1
 205.758789062 -121 l 1
 211.998046875 -148 227.706054688 -161 259.706054688 -161 c 0
 290.706054688 -161 312.174804688 -147 316.40625 -123 c 0
 320.638671875 -99 311.635742188 -82 254.635742188 -82 c 1xae
 224.807617188 -47 l 1
 250.802734375 -13 l 1x9e
 107.799804688 4 36.375 98 49.826171875 231 c 1
 183.236328125 239 l 1
 179.014648438 147 225.021484375 96 323.021484375 96 c 0
 407.021484375 96 460.48828125 127 471.244140625 188 c 0
 480.942382812 243 458.760742188 276 319.755859375 310 c 0
 150.80859375 350 93.625 400 114.079101562 516 c 0
 135.944335938 640 248.108398438 726 407.108398438 726 c 0
 577.108398438 726 652.651367188 627 644.495117188 490 c 1
 512.436523438 484 l 1
 517.013671875 561 475.359375 614 385.359375 614 c 0
 310.359375 614 257.659179688 576 247.9609375 521 c 0
 237.734375 463 266.854492188 441 388.741210938 412 c 0
 572.51171875 371 624.168945312 301 605.478515625 195 c 0xad
 583.614257812 71 473.68359375 -8 325.44921875 -15 c 1
 310.275390625 -33 l 1
 375.39453125 -38 398.693359375 -76 389.876953125 -126 c 0
 378.240234375 -192 318.891601562 -228 250.891601562 -228 c 0xce
EndSplineSet
Validated: 33
Substitution2: "'locl' Localized Forms in Latin lookup 10 subtable" uni0218
Substitution2: "'aalt' Access All Alternates in Latin lookup 0 subtable" uni0218
EndChar

StartChar: Scircumflex
Encoding: 348 348 96
Width: 668
GlyphClass: 2
Flags: HMW
HStem: -16 112<301 392 301 428.5> 614 112<283.5 366> 770 146<166 388 166 388 260 389 260 482>
VStem: 67 133<492 548.5 492 578> 482 133<157.5 215.5>
AnchorPoint: "Anchor-3" 369.845 710 basechar 0
AnchorPoint: "Anchor-0" 262.653 0 basechar 0
LayerCount: 2
Fore
SplineSet
222.424804688 770 m 1
 342.16796875 916 l 1
 470.16796875 916 l 1
 538.424804688 770 l 1
 445.424804688 770 l 1
 396.118164062 859 l 1
 315.424804688 770 l 1
 222.424804688 770 l 1
265.83203125 -16 m 0
 89.83203125 -16 -0.7119140625 83 14.384765625 231 c 1
 147.794921875 239 l 1
 143.573242188 147 189.580078125 96 287.580078125 96 c 0
 371.580078125 96 425.045898438 127 435.802734375 188 c 0
 445.5 243 423.319335938 276 284.314453125 310 c 0
 115.3671875 350 58.18359375 400 78.6376953125 516 c 0
 100.501953125 640 212.666015625 726 371.666015625 726 c 0
 541.666015625 726 617.209960938 627 609.052734375 490 c 1
 476.995117188 484 l 1
 481.572265625 561 439.91796875 614 349.91796875 614 c 0
 274.91796875 614 222.216796875 576 212.51953125 521 c 0
 202.291992188 463 231.413085938 441 353.299804688 412 c 0
 537.0703125 371 588.727539062 301 570.036132812 195 c 0
 547.114257812 65 426.83203125 -16 265.83203125 -16 c 0
EndSplineSet
Validated: 33
EndChar

StartChar: uni0218
Encoding: 536 536 97
Width: 668
GlyphClass: 2
Flags: HMW
HStem: -158 108<282 317 282 402> -16 112<301 392 301 428.5> 614 112<283.5 366>
VStem: 67 133<492 548.5 492 578> 282 120<-147 -50 -147 -50 -147 -50> 482 133<157.5 215.5>
AnchorPoint: "Anchor-3" 407.138 710 basechar 0
AnchorPoint: "Anchor-0" 256.041 -249 basechar 0
LayerCount: 2
Fore
SplineSet
303.125 -16 m 0
 127.125 -16 36.5810546875 83 51.677734375 231 c 1
 185.087890625 239 l 1
 180.866210938 147 226.873046875 96 324.873046875 96 c 0
 408.873046875 96 462.33984375 127 473.095703125 188 c 0
 482.793945312 243 460.612304688 276 321.607421875 310 c 0
 152.66015625 350 95.4765625 400 115.930664062 516 c 0
 137.794921875 640 249.958984375 726 408.958984375 726 c 0
 578.958984375 726 654.502929688 627 646.346679688 490 c 1
 514.288085938 484 l 1
 518.865234375 561 477.2109375 614 387.2109375 614 c 0
 312.2109375 614 259.510742188 576 249.8125 521 c 0
 239.584960938 463 268.706054688 441 390.592773438 412 c 0
 574.36328125 371 626.020507812 301 607.330078125 195 c 0
 584.407226562 65 464.125 -16 303.125 -16 c 0
178.041015625 -249 m 1
 247.0859375 -158 l 1
 212.0859375 -158 l 1
 231.129882812 -50 l 1
 351.129882812 -50 l 1
 334.026367188 -147 l 1
 256.041015625 -249 l 1
 178.041015625 -249 l 1
EndSplineSet
Validated: 33
EndChar

StartChar: uni1E9E
Encoding: 7838 7838 98
Width: 725
GlyphClass: 2
Flags: HMW
HStem: 0 113<80 402 277 402 277 402> 597 113<283 632 319 477>
VStem: 80 130<0 479 0 552.5> 537 133<187.5 256>
AnchorPoint: "Anchor-3" 424.596 710 basechar 0
AnchorPoint: "Anchor-0" 299.404 0 basechar 0
LayerCount: 2
Fore
SplineSet
17.404296875 0 m 1
 101.864257812 479 l 2
 127.784179688 626 228.595703125 710 381.595703125 710 c 2
 694.595703125 710 l 1
 673.7890625 592 l 1
 457.166992188 424 l 1
 603.345703125 408 667.001953125 338 646.372070312 221 c 0
 622.0390625 83 507.404296875 0 339.404296875 0 c 2
 214.404296875 0 l 1
 234.329101562 113 l 1
 359.329101562 113 l 2
 443.329101562 113 501.55859375 154 513.372070312 221 c 0
 525.71484375 291 477.591796875 330 388.591796875 330 c 2
 288.591796875 330 l 1
 305.342773438 425 l 1
 519.670898438 597 l 1
 361.670898438 597 l 2
 289.670898438 597 245.618164062 557 231.864257812 479 c 2
 147.404296875 0 l 1
 17.404296875 0 l 1
EndSplineSet
Validated: 33
EndChar

StartChar: T
Encoding: 84 84 99
Width: 584
GlyphClass: 2
Flags: HMW
HStem: 0 21G<227 227 227 357> 597 113<11 227 11 572 357 357 357 572>
VStem: 227 130<0 597 0 597>
AnchorPoint: "Anchor-3" 354.596 710 basechar 0
AnchorPoint: "Anchor-1" 288.297 334 basechar 0
AnchorPoint: "Anchor-0" 229.404 0 basechar 0
LayerCount: 2
Fore
SplineSet
164.404296875 0 m 1
 269.670898438 597 l 1
 53.6708984375 597 l 1
 73.595703125 710 l 1
 634.595703125 710 l 1
 614.670898438 597 l 1
 399.670898438 597 l 1
 294.404296875 0 l 1
 164.404296875 0 l 1
EndSplineSet
Validated: 1
EndChar

StartChar: Tbar
Encoding: 358 358 100
Width: 584
GlyphClass: 2
Flags: HMW
HStem: 0 21G<227 227 227 357> 282 103<98 227 98 227 357 486> 597 113<11 227 11 572 357 357 357 572>
VStem: 227 130<0 282 0 282 385 597>
AnchorPoint: "Anchor-3" 354.596 710 basechar 0
AnchorPoint: "Anchor-1" 288.297 334 basechar 0
AnchorPoint: "Anchor-0" 229.404 0 basechar 0
LayerCount: 2
Fore
SplineSet
164.404296875 0 m 1
 214.127929688 282 l 1
 85.1279296875 282 l 1
 103.290039062 385 l 1
 232.290039062 385 l 1
 269.670898438 597 l 1
 53.6708984375 597 l 1
 73.595703125 710 l 1
 634.595703125 710 l 1
 614.670898438 597 l 1
 399.670898438 597 l 1
 362.290039062 385 l 1
 491.290039062 385 l 1
 473.127929688 282 l 1
 344.127929688 282 l 1
 294.404296875 0 l 1
 164.404296875 0 l 1
EndSplineSet
Validated: 1
EndChar

StartChar: Tcaron
Encoding: 356 356 101
Width: 584
GlyphClass: 2
Flags: HMW
HStem: 0 21G<227 227 227 357> 597 113<11 227 11 572 357 357 357 572> 770 146<134 355 134 228>
VStem: 227 130<0 597 0 597>
AnchorPoint: "Anchor-3" 336.435 710 basechar 0
AnchorPoint: "Anchor-1" 270.136 334 basechar 0
AnchorPoint: "Anchor-0" 211.242 0 basechar 0
LayerCount: 2
Fore
SplineSet
214.7578125 916 m 1
 307.7578125 916 l 1
 357.064453125 827 l 1
 436.7578125 916 l 1
 529.7578125 916 l 1
 410.013671875 770 l 1
 283.013671875 770 l 1
 214.7578125 916 l 1
146.2421875 0 m 1
 251.509765625 597 l 1
 35.509765625 597 l 1
 55.4345703125 710 l 1
 616.434570312 710 l 1
 596.509765625 597 l 1
 381.509765625 597 l 1
 276.2421875 0 l 1
 146.2421875 0 l 1
EndSplineSet
Validated: 1
EndChar

StartChar: uni0162
Encoding: 354 354 102
Width: 584
GlyphClass: 2
Flags: HMW
HStem: -228 67<266 297 266 318.5> -82 49<263 310> 0 21G<227 227 227 255 333 333 333 357> 597 113<11 227 11 572 357 357 357 572>
VStem: 227 130<0 597 0 597> 332 74<-135 -111>
AnchorPoint: "Anchor-3" 374.697 710 basechar 0
AnchorPoint: "Anchor-1" 308.398 334 basechar 0
AnchorPoint: "Anchor-0" 249.505 0 basechar 0
LayerCount: 2
Fore
SplineSet
184.504882812 0 m 1xf8
 289.772460938 597 l 1
 73.7724609375 597 l 1
 93.697265625 710 l 1
 654.697265625 710 l 1
 634.772460938 597 l 1
 419.772460938 597 l 1
 314.504882812 0 l 1xf8
 290.504882812 0 l 1
 261.686523438 -33 l 1
 326.8046875 -38 350.104492188 -76 341.288085938 -126 c 0
 329.650390625 -192 270.302734375 -228 201.302734375 -228 c 0
 135.302734375 -228 99.2978515625 -194 91.5849609375 -147 c 1
 157.169921875 -121 l 1
 163.409179688 -148 179.116210938 -161 211.116210938 -161 c 0
 241.116210938 -161 263.584960938 -147 267.817382812 -123 c 0xf4
 272.048828125 -99 263.045898438 -82 206.045898438 -82 c 1
 175.217773438 -47 l 1
 212.504882812 0 l 1
 184.504882812 0 l 1xf8
EndSplineSet
Validated: 33
Substitution2: "'locl' Localized Forms in Latin lookup 10 subtable" uni021A
Substitution2: "'aalt' Access All Alternates in Latin lookup 0 subtable" uni021A
EndChar

StartChar: uni021A
Encoding: 538 538 103
Width: 584
GlyphClass: 2
Flags: HMW
HStem: -158 108<232 267 232 352> 0 21G<227 227 227 357> 597 113<11 227 11 572 357 357 357 572>
VStem: 227 125<-147 597> 227 130<0 597 0 597> 232 125<-158 597 -50 597>
AnchorPoint: "Anchor-3" 376.549 710 basechar 0
AnchorPoint: "Anchor-1" 310.25 334 basechar 0
AnchorPoint: "Anchor-0" 207.451 -249 basechar 0
LayerCount: 2
Fore
SplineSet
186.356445312 0 m 1xe8
 291.624023438 597 l 1
 75.6240234375 597 l 1
 95.548828125 710 l 1
 656.548828125 710 l 1
 636.624023438 597 l 1
 421.624023438 597 l 1
 316.356445312 0 l 1
 186.356445312 0 l 1xe8
129.451171875 -249 m 1
 198.497070312 -158 l 1
 163.497070312 -158 l 1
 182.540039062 -50 l 1xe4
 302.540039062 -50 l 1
 285.436523438 -147 l 1xf0
 207.451171875 -249 l 1
 129.451171875 -249 l 1
EndSplineSet
Validated: 1
EndChar

StartChar: U
Encoding: 85 85 104
Width: 699
GlyphClass: 2
Flags: HMW
HStem: -16 113<300 398.5 300 436.5> 691 20G<65 195 195 195 504 634 634 634>
VStem: 65 130<254 711> 504 130<254 711>
AnchorPoint: "Anchor-3" 412.919 710 basechar 0
AnchorPoint: "Anchor-2" 402.079 2 basechar 0
AnchorPoint: "Anchor-0" 287.727 0 basechar 0
LayerCount: 2
Fore
SplineSet
284.905273438 -16 m 0
 110.905273438 -16 19.2431640625 88 48.513671875 254 c 2
 129.094726562 711 l 1
 259.094726562 711 l 1
 178.513671875 254 l 2
 160.704101562 153 206.830078125 97 304.830078125 97 c 0
 403.830078125 97 469.704101562 153 487.513671875 254 c 2
 568.094726562 711 l 1
 698.094726562 711 l 1
 617.513671875 254 l 2
 588.243164062 88 459.905273438 -16 284.905273438 -16 c 0
EndSplineSet
Validated: 33
EndChar

StartChar: Uacute
Encoding: 218 218 105
Width: 699
GlyphClass: 2
Flags: HMW
HStem: -16 113<300 398.5 300 436.5> 691 20G<65 195 195 195 504 634 634 634> 770 140<292 481 353 391>
VStem: 65 130<254 711> 504 130<254 711>
AnchorPoint: "Anchor-3" 395.374 710 basechar 0
AnchorPoint: "Anchor-2" 384.534 2 basechar 0
AnchorPoint: "Anchor-0" 270.182 0 basechar 0
LayerCount: 2
Fore
SplineSet
348.954101562 770 m 1
 434.639648438 910 l 1
 562.639648438 910 l 1
 447.954101562 770 l 1
 348.954101562 770 l 1
267.360351562 -16 m 0
 93.3603515625 -16 1.6982421875 88 30.96875 254 c 2
 111.55078125 711 l 1
 241.55078125 711 l 1
 160.96875 254 l 2
 143.16015625 153 189.28515625 97 287.28515625 97 c 0
 386.28515625 97 452.16015625 153 469.96875 254 c 2
 550.55078125 711 l 1
 680.55078125 711 l 1
 599.96875 254 l 2
 570.698242188 88 442.360351562 -16 267.360351562 -16 c 0
EndSplineSet
Validated: 33
EndChar

StartChar: Ubreve
Encoding: 364 364 106
Width: 699
GlyphClass: 2
Flags: HMW
HStem: -16 113<300 398.5 300 436.5> 691 20G<65 195 195 195 504 634 634 634> 771 76<328 370 328 394>
VStem: 65 130<254 711> 504 130<254 711>
AnchorPoint: "Anchor-3" 395.197 710 basechar 0
AnchorPoint: "Anchor-2" 384.358 2 basechar 0
AnchorPoint: "Anchor-0" 270.006 0 basechar 0
LayerCount: 2
Fore
SplineSet
405.954101562 771 m 0
 316.954101562 771 268.298828125 824 279.815429688 912 c 1
 356.815429688 912 l 1
 354.705078125 866 377.354492188 847 419.354492188 847 c 0
 461.354492188 847 491.705078125 866 504.815429688 912 c 1
 581.815429688 912 l 1
 562.298828125 824 495.954101562 771 405.954101562 771 c 0
267.184570312 -16 m 0
 93.1845703125 -16 1.5224609375 88 30.79296875 254 c 2
 111.374023438 711 l 1
 241.374023438 711 l 1
 160.79296875 254 l 2
 142.983398438 153 189.109375 97 287.109375 97 c 0
 386.109375 97 451.983398438 153 469.79296875 254 c 2
 550.374023438 711 l 1
 680.374023438 711 l 1
 599.79296875 254 l 2
 570.522460938 88 442.184570312 -16 267.184570312 -16 c 0
EndSplineSet
Validated: 33
EndChar

StartChar: Ucircumflex
Encoding: 219 219 107
Width: 699
GlyphClass: 2
Flags: HMW
HStem: -16 113<300 398.5 300 436.5> 691 20G<65 195 195 195 504 634 634 634> 770 146<192 413 192 413 286 414 286 507>
VStem: 65 130<254 711> 504 130<254 711>
AnchorPoint: "Anchor-3" 394.845 710 basechar 0
AnchorPoint: "Anchor-2" 384.006 2 basechar 0
AnchorPoint: "Anchor-0" 269.653 0 basechar 0
LayerCount: 2
Fore
SplineSet
248.424804688 770 m 1
 368.16796875 916 l 1
 495.16796875 916 l 1
 563.424804688 770 l 1
 470.424804688 770 l 1
 421.118164062 859 l 1
 341.424804688 770 l 1
 248.424804688 770 l 1
266.83203125 -16 m 0
 92.83203125 -16 1.169921875 88 30.439453125 254 c 2
 111.021484375 711 l 1
 241.021484375 711 l 1
 160.439453125 254 l 2
 142.630859375 153 188.756835938 97 286.756835938 97 c 0
 385.756835938 97 451.630859375 153 469.439453125 254 c 2
 550.021484375 711 l 1
 680.021484375 711 l 1
 599.439453125 254 l 2
 570.169921875 88 441.83203125 -16 266.83203125 -16 c 0
EndSplineSet
Validated: 33
EndChar

StartChar: Udieresis
Encoding: 220 220 108
Width: 699
GlyphClass: 2
Flags: HMW
HStem: -16 113<300 398.5 300 436.5> 691 20G<65 195 195 195 504 634 634 634> 780 113<186 311 186 311 388 512 186 388>
VStem: 65 130<254 711> 186 125<780 893 780 893> 388 124<780 893 780 893> 504 130<254 711>
AnchorPoint: "Anchor-3" 396.873 710 basechar 0
AnchorPoint: "Anchor-2" 386.033 2 basechar 0
AnchorPoint: "Anchor-0" 271.681 0 basechar 0
LayerCount: 2
Fore
SplineSet
246.215820312 780 m 1xec
 266.140625 893 l 1
 391.140625 893 l 1
 371.215820312 780 l 1
 246.215820312 780 l 1xec
448.215820312 780 m 1
 468.140625 893 l 1
 592.140625 893 l 1
 572.215820312 780 l 1
 448.215820312 780 l 1
268.859375 -16 m 0
 94.859375 -16 3.197265625 88 32.4677734375 254 c 2
 113.048828125 711 l 1
 243.048828125 711 l 1
 162.467773438 254 l 2
 144.658203125 153 190.784179688 97 288.784179688 97 c 0
 387.784179688 97 453.658203125 153 471.467773438 254 c 2
 552.048828125 711 l 1
 682.048828125 711 l 1
 601.467773438 254 l 2xf2
 572.197265625 88 443.859375 -16 268.859375 -16 c 0
EndSplineSet
Validated: 33
Substitution2: "'ss08' Style Set 8 in Latin lookup 41 subtable" Udieresis.ss08
Substitution2: "'aalt' Access All Alternates in Latin lookup 0 subtable" Udieresis.ss08
EndChar

StartChar: Ugrave
Encoding: 217 217 109
Width: 699
GlyphClass: 2
Flags: HMW
HStem: -16 113<300 398.5 300 436.5> 691 20G<65 195 195 195 504 634 634 634> 775 141<307 307 307 346 217 407>
VStem: 65 130<254 711> 504 130<254 711>
AnchorPoint: "Anchor-3" 394.845 710 basechar 0
AnchorPoint: "Anchor-2" 384.006 2 basechar 0
AnchorPoint: "Anchor-0" 269.653 0 basechar 0
LayerCount: 2
Fore
SplineSet
364.306640625 775 m 1
 299.16796875 916 l 1
 428.16796875 916 l 1
 464.306640625 775 l 1
 364.306640625 775 l 1
266.83203125 -16 m 0
 92.83203125 -16 1.169921875 88 30.439453125 254 c 2
 111.021484375 711 l 1
 241.021484375 711 l 1
 160.439453125 254 l 2
 142.630859375 153 188.756835938 97 286.756835938 97 c 0
 385.756835938 97 451.630859375 153 469.439453125 254 c 2
 550.021484375 711 l 1
 680.021484375 711 l 1
 599.439453125 254 l 2
 570.169921875 88 441.83203125 -16 266.83203125 -16 c 0
EndSplineSet
Validated: 33
EndChar

StartChar: Uhungarumlaut
Encoding: 368 368 110
Width: 699
GlyphClass: 2
Flags: HMW
HStem: -16 113<300 398.5 300 436.5> 691 20G<65 195 195 195 504 634 634 634> 770 140<217 407 279 317 379 407 440 479 379 379>
VStem: 65 130<254 711> 504 130<254 711>
AnchorPoint: "Anchor-3" 395.374 710 basechar 0
AnchorPoint: "Anchor-2" 384.534 2 basechar 0
AnchorPoint: "Anchor-0" 270.182 0 basechar 0
LayerCount: 2
Fore
SplineSet
273.954101562 770 m 1
 360.639648438 910 l 1
 488.639648438 910 l 1
 373.954101562 770 l 1
 273.954101562 770 l 1
435.954101562 770 m 1
 521.639648438 910 l 1
 650.639648438 910 l 1
 535.954101562 770 l 1
 435.954101562 770 l 1
267.360351562 -16 m 0
 93.3603515625 -16 1.6982421875 88 30.96875 254 c 2
 111.55078125 711 l 1
 241.55078125 711 l 1
 160.96875 254 l 2
 143.16015625 153 189.28515625 97 287.28515625 97 c 0
 386.28515625 97 452.16015625 153 469.96875 254 c 2
 550.55078125 711 l 1
 680.55078125 711 l 1
 599.96875 254 l 2
 570.698242188 88 442.360351562 -16 267.360351562 -16 c 0
EndSplineSet
Validated: 33
EndChar

StartChar: Umacron
Encoding: 362 362 111
Width: 699
GlyphClass: 2
Flags: HMW
HStem: -16 113<300 398.5 300 436.5> 691 20G<65 195 195 195 504 634 634 634> 789 97<205 494 205 494>
VStem: 65 130<254 711> 205 289<789 886 789 886> 504 130<254 711>
AnchorPoint: "Anchor-3" 397.49 710 basechar 0
AnchorPoint: "Anchor-2" 386.65 2 basechar 0
AnchorPoint: "Anchor-0" 272.298 0 basechar 0
LayerCount: 2
Fore
SplineSet
267.419921875 789 m 1
 284.5234375 886 l 1
 573.5234375 886 l 1
 556.419921875 789 l 1
 267.419921875 789 l 1
269.4765625 -16 m 0
 95.4765625 -16 3.814453125 88 33.0849609375 254 c 2
 113.666015625 711 l 1
 243.666015625 711 l 1
 163.084960938 254 l 2
 145.275390625 153 191.401367188 97 289.401367188 97 c 0
 388.401367188 97 454.275390625 153 472.084960938 254 c 2
 552.666015625 711 l 1
 682.666015625 711 l 1
 602.084960938 254 l 2xf4
 572.814453125 88 444.4765625 -16 269.4765625 -16 c 0
EndSplineSet
Validated: 33
EndChar

StartChar: Uogonek
Encoding: 370 370 112
Width: 699
GlyphClass: 2
Flags: HMW
HStem: -213 82<419.5 420> -16 113<348 348> 691 20G<65 195 195 195 504 634 634 634>
VStem: 65 130<254 711> 293 107<-113.5 -113> 504 130<254 711>
AnchorPoint: "Anchor-3" 430.287 710 basechar 0
AnchorPoint: "Anchor-2" 419.447 2 basechar 0
AnchorPoint: "Anchor-0" 305.095 0 basechar 0
LayerCount: 2
Fore
SplineSet
318.537109375 -213 m 0
 251.537109375 -213 216.473632812 -185 225.643554688 -133 c 0
 232.696289062 -93 266.749023438 -53 298.744140625 -19 c 2
 301.2734375 -16 l 1
 127.44921875 -15 36.7880859375 89 65.8818359375 254 c 2
 146.462890625 711 l 1
 276.462890625 711 l 1
 195.881835938 254 l 2
 178.072265625 153 224.198242188 97 322.198242188 97 c 0
 421.198242188 97 487.072265625 153 504.881835938 254 c 2
 585.462890625 711 l 1
 715.462890625 711 l 1
 634.881835938 254 l 2
 612.6640625 128 532.794921875 38 419.270507812 1 c 1
 380.865234375 -41 l 2
 353.751953125 -70 340.401367188 -89 337.580078125 -105 c 0
 334.583007812 -122 344.99609375 -131 359.99609375 -131 c 0
 377.99609375 -131 396.053710938 -125 408.463867188 -117 c 1
 423.12109375 -187 l 1
 403.4765625 -202 358.537109375 -213 318.537109375 -213 c 0
EndSplineSet
Validated: 33
EndChar

StartChar: Uring
Encoding: 366 366 113
Width: 699
GlyphClass: 2
Flags: HMW
HStem: -16 113<300 398.5 300 436.5> 691 20G<65 195 195 195 504 634 634 634> 751 60<338 360.5 338 377> 888 60<338 360.5>
VStem: 65 130<254 711> 250 61<838.5 861 838.5 878> 388 61<838.5 861> 504 130<254 711>
AnchorPoint: "Anchor-3" 392.023 710 basechar 0
AnchorPoint: "Anchor-2" 381.185 2 basechar 0
AnchorPoint: "Anchor-0" 266.832 0 basechar 0
LayerCount: 2
Fore
SplineSet
399.252929688 751 m 0
 343.252929688 751 307.834960938 794 317.709960938 850 c 0
 327.583984375 906 377.989257812 948 433.989257812 948 c 0
 489.989257812 948 526.583984375 906 516.709960938 850 c 0
 506.834960938 794 455.252929688 751 399.252929688 751 c 0
409.833007812 811 m 0
 432.833007812 811 451.654296875 827 455.709960938 850 c 0
 459.588867188 872 446.41015625 888 423.41015625 888 c 0
 401.41015625 888 382.588867188 872 378.709960938 850 c 0
 374.654296875 827 387.833007812 811 409.833007812 811 c 0
264.010742188 -16 m 0
 90.0107421875 -16 -1.6513671875 88 27.619140625 254 c 2
 108.200195312 711 l 1
 238.200195312 711 l 1
 157.619140625 254 l 2
 139.809570312 153 185.935546875 97 283.935546875 97 c 0
 382.935546875 97 448.809570312 153 466.619140625 254 c 2
 547.200195312 711 l 1
 677.200195312 711 l 1
 596.619140625 254 l 2
 567.348632812 88 439.010742188 -16 264.010742188 -16 c 0
EndSplineSet
Validated: 33
EndChar

StartChar: Utilde
Encoding: 360 360 114
Width: 699
GlyphClass: 2
Flags: HMW
HStem: -16 113<300 398.5 300 436.5> 691 20G<65 195 195 195 504 634 634 634> 773 134<182 304 182 304> 780 78<403 420.5 403 440> 780 136<391.5 516> 829 78<278.5 297>
VStem: 65 130<254 711> 182 67<773 773> 448 68<916 916> 504 130<254 711>
AnchorPoint: "Anchor-3" 394.845 710 basechar 0
AnchorPoint: "Anchor-2" 384.006 2 basechar 0
AnchorPoint: "Anchor-0" 269.653 0 basechar 0
LayerCount: 2
Fore
SplineSet
464.1875 780 m 0xca80
 435.1875 780 416.598632812 788 395.125 808 c 0
 380.76953125 823 371.828125 829 355.828125 829 c 0xc540
 334.828125 829 316.711914062 817 305.954101562 773 c 1xe140
 238.954101562 773 l 1
 254.764648438 857 304.581054688 907 368.581054688 907 c 0xc540
 400.581054688 907 420.994140625 898 442.467773438 878 c 0
 457.823242188 863 467.94140625 858 481.94140625 858 c 0xd280
 502.94140625 858 519.057617188 870 530.16796875 916 c 1
 598.16796875 916 l 1
 580.180664062 831 532.1875 780 464.1875 780 c 0xca80
266.83203125 -16 m 0
 92.83203125 -16 1.169921875 88 30.439453125 254 c 2
 111.021484375 711 l 1
 241.021484375 711 l 1
 160.439453125 254 l 2xc640
 142.630859375 153 188.756835938 97 286.756835938 97 c 0
 385.756835938 97 451.630859375 153 469.439453125 254 c 2
 550.021484375 711 l 1
 680.021484375 711 l 1
 599.439453125 254 l 2
 570.169921875 88 441.83203125 -16 266.83203125 -16 c 0
EndSplineSet
Validated: 33
EndChar

StartChar: V
Encoding: 86 86 115
Width: 709
GlyphClass: 2
Flags: HMW
HStem: 0 21G<276 276 276 432> 0 145<276 355 355 355 355 432> 690 20G<19 156 156 156 553 690 690 690>
VStem: 19 671<710 710>
AnchorPoint: "Anchor-3" 417.596 710 basechar 0
AnchorPoint: "Anchor-0" 292.404 0 basechar 0
LayerCount: 2
Fore
SplineSet
213.404296875 0 m 1xb0
 81.595703125 710 l 1
 218.595703125 710 l 1
 317.971679688 145 l 1x70
 615.595703125 710 l 1
 752.595703125 710 l 1
 369.404296875 0 l 1
 213.404296875 0 l 1xb0
EndSplineSet
Validated: 1
EndChar

StartChar: W
Encoding: 87 87 116
Width: 991
GlyphClass: 2
Flags: HMW
HStem: 0 21G<227 227 227 372 620 620 620 764> 0 180<227 304 304 304 304 372> 690 20G<37 174 174 174 435 556 556 556 816 954 954 954>
VStem: 37 917<710 710>
AnchorPoint: "Anchor-3" 558.596 710 basechar 0
AnchorPoint: "Anchor-0" 433.404 0 basechar 0
LayerCount: 2
Fore
SplineSet
164.404296875 0 m 1xb0
 99.595703125 710 l 1
 236.595703125 710 l 1
 273.142578125 180 l 1
 497.595703125 710 l 1
 618.595703125 710 l 1
 656.142578125 180 l 1x70
 878.595703125 710 l 1
 1016.59570312 710 l 1
 701.404296875 0 l 1
 557.404296875 0 l 1
 519.098632812 486 l 1
 309.404296875 0 l 1
 164.404296875 0 l 1xb0
EndSplineSet
Validated: 1
EndChar

StartChar: Wacute
Encoding: 7810 7810 117
Width: 991
GlyphClass: 2
Flags: HMW
HStem: 0 21G<227 227 227 372 620 620 620 764> 0 180<227 304 304 304 304 372> 690 20G<37 174 174 174 435 556 556 556 816 954 954 954> 770 140<438 627 499 537>
VStem: 37 917<710 710>
AnchorPoint: "Anchor-3" 540.964 710 basechar 0
AnchorPoint: "Anchor-0" 415.771 0 basechar 0
LayerCount: 2
Fore
SplineSet
493.54296875 770 m 1xb8
 579.228515625 910 l 1
 707.228515625 910 l 1
 592.54296875 770 l 1
 493.54296875 770 l 1xb8
146.771484375 0 m 1
 81.9638671875 710 l 1
 218.963867188 710 l 1
 255.509765625 180 l 1
 479.963867188 710 l 1
 600.963867188 710 l 1
 638.509765625 180 l 1x78
 860.963867188 710 l 1
 998.963867188 710 l 1
 683.771484375 0 l 1
 539.771484375 0 l 1
 501.465820312 486 l 1
 291.771484375 0 l 1
 146.771484375 0 l 1
EndSplineSet
Validated: 1
EndChar

StartChar: Wcircumflex
Encoding: 372 372 118
Width: 991
GlyphClass: 2
Flags: HMW
HStem: 0 21G<227 227 227 372 620 620 620 764> 0 180<227 304 304 304 304 372> 690 20G<37 174 174 174 435 556 556 556 816 954 954 954> 770 146<338 559 338 559 432 560 432 653>
VStem: 37 917<710 710>
AnchorPoint: "Anchor-3" 540.435 710 basechar 0
AnchorPoint: "Anchor-0" 415.242 0 basechar 0
LayerCount: 2
Fore
SplineSet
393.013671875 770 m 1xb8
 512.7578125 916 l 1
 639.7578125 916 l 1
 708.013671875 770 l 1
 615.013671875 770 l 1
 566.70703125 859 l 1
 486.013671875 770 l 1
 393.013671875 770 l 1xb8
146.2421875 0 m 1
 81.4345703125 710 l 1
 218.434570312 710 l 1
 254.981445312 180 l 1
 479.434570312 710 l 1
 600.434570312 710 l 1
 637.981445312 180 l 1x78
 860.434570312 710 l 1
 998.434570312 710 l 1
 683.2421875 0 l 1
 539.2421875 0 l 1
 500.9375 486 l 1
 291.2421875 0 l 1
 146.2421875 0 l 1
EndSplineSet
Validated: 1
EndChar

StartChar: Wdieresis
Encoding: 7812 7812 119
Width: 991
GlyphClass: 2
Flags: HMW
HStem: 0 21G<227 227 227 372 620 620 620 764> 0 180<227 304 304 304 304 372> 690 20G<37 174 174 174 435 556 556 556 816 954 954 954> 780 113<333 457 333 457 534 659 333 534>
VStem: 333 124<780 893 780 893> 534 125<780 893 780 893>
AnchorPoint: "Anchor-3" 542.462 710 basechar 0
AnchorPoint: "Anchor-0" 417.27 0 basechar 0
LayerCount: 2
Fore
SplineSet
391.8046875 780 m 1xbc
 411.73046875 893 l 1
 535.73046875 893 l 1
 515.8046875 780 l 1
 391.8046875 780 l 1xbc
592.8046875 780 m 1
 612.73046875 893 l 1
 737.73046875 893 l 1
 717.8046875 780 l 1
 592.8046875 780 l 1
148.26953125 0 m 1
 83.4619140625 710 l 1
 220.461914062 710 l 1
 257.008789062 180 l 1
 481.461914062 710 l 1
 602.461914062 710 l 1
 640.008789062 180 l 1x7c
 862.461914062 710 l 1
 1000.46191406 710 l 1
 685.26953125 0 l 1
 541.26953125 0 l 1
 502.96484375 486 l 1
 293.26953125 0 l 1
 148.26953125 0 l 1
EndSplineSet
Validated: 1
Substitution2: "'ss08' Style Set 8 in Latin lookup 41 subtable" Wdieresis.ss08
Substitution2: "'aalt' Access All Alternates in Latin lookup 0 subtable" Wdieresis.ss08
EndChar

StartChar: Wgrave
Encoding: 7808 7808 120
Width: 991
GlyphClass: 2
Flags: HMW
HStem: 0 21G<227 227 227 372 620 620 620 764> 0 180<227 304 304 304 304 372> 690 20G<37 174 174 174 435 556 556 556 816 954 954 954> 775 141<453 453 453 492 363 553>
VStem: 37 917<710 710>
AnchorPoint: "Anchor-3" 540.435 710 basechar 0
AnchorPoint: "Anchor-0" 415.242 0 basechar 0
LayerCount: 2
Fore
SplineSet
508.895507812 775 m 1xb8
 443.7578125 916 l 1
 572.7578125 916 l 1
 608.895507812 775 l 1
 508.895507812 775 l 1xb8
146.2421875 0 m 1
 81.4345703125 710 l 1
 218.434570312 710 l 1
 254.981445312 180 l 1
 479.434570312 710 l 1
 600.434570312 710 l 1
 637.981445312 180 l 1x78
 860.434570312 710 l 1
 998.434570312 710 l 1
 683.2421875 0 l 1
 539.2421875 0 l 1
 500.9375 486 l 1
 291.2421875 0 l 1
 146.2421875 0 l 1
EndSplineSet
Validated: 1
EndChar

StartChar: X
Encoding: 88 88 121
Width: 660
GlyphClass: 2
Flags: HMW
HStem: 0 21G<13 13 13 164 496 496 496 647> 690 20G<15 167 167 167 493 644 644 644>
VStem: 13 634<0 0>
AnchorPoint: "Anchor-3" 392.596 710 basechar 0
AnchorPoint: "Anchor-0" 267.404 0 basechar 0
LayerCount: 2
Fore
SplineSet
-49.595703125 0 m 1
 252.176757812 356 l 1
 77.595703125 710 l 1
 229.595703125 710 l 1
 349.6328125 455 l 1
 555.595703125 710 l 1
 706.595703125 710 l 1
 408.529296875 358 l 1
 584.404296875 0 l 1
 433.404296875 0 l 1
 313.072265625 259 l 1
 101.404296875 0 l 1
 -49.595703125 0 l 1
EndSplineSet
Validated: 1
EndChar

StartChar: Y
Encoding: 89 89 122
Width: 613
GlyphClass: 2
Flags: HMW
HStem: 0 21G<241 241 241 372> 690 20G<-7 139 139 139 474 620 620 620>
VStem: 241 131<0 280 0 280>
AnchorPoint: "Anchor-3" 369.596 710 basechar 0
AnchorPoint: "Anchor-0" 244.404 0 basechar 0
LayerCount: 2
Fore
SplineSet
178.404296875 0 m 1
 227.775390625 280 l 1
 55.595703125 710 l 1
 201.595703125 710 l 1
 316.345703125 408 l 1
 536.595703125 710 l 1
 682.595703125 710 l 1
 358.775390625 280 l 1
 309.404296875 0 l 1
 178.404296875 0 l 1
EndSplineSet
Validated: 1
EndChar

StartChar: Yacute
Encoding: 221 221 123
Width: 613
GlyphClass: 2
Flags: HMW
HStem: 0 21G<241 241 241 372> 690 20G<-7 139 139 139 474 620 620 620> 770 140<249 439 310 349>
VStem: 241 131<0 280 0 280>
AnchorPoint: "Anchor-3" 351.964 710 basechar 0
AnchorPoint: "Anchor-0" 226.771 0 basechar 0
LayerCount: 2
Fore
SplineSet
304.54296875 770 m 1
 390.228515625 910 l 1
 519.228515625 910 l 1
 404.54296875 770 l 1
 304.54296875 770 l 1
160.771484375 0 m 1
 210.142578125 280 l 1
 37.9638671875 710 l 1
 183.963867188 710 l 1
 298.712890625 408 l 1
 518.963867188 710 l 1
 664.963867188 710 l 1
 341.142578125 280 l 1
 291.771484375 0 l 1
 160.771484375 0 l 1
EndSplineSet
Validated: 1
EndChar

StartChar: Ycircumflex
Encoding: 374 374 124
Width: 613
GlyphClass: 2
Flags: HMW
HStem: 0 21G<241 241 241 372> 690 20G<-7 139 139 139 474 620 620 620> 770 146<149 371 149 371 243 371 243 465>
VStem: 241 131<0 280 0 280>
AnchorPoint: "Anchor-3" 351.435 710 basechar 0
AnchorPoint: "Anchor-0" 226.242 0 basechar 0
LayerCount: 2
Fore
SplineSet
204.013671875 770 m 1
 323.7578125 916 l 1
 451.7578125 916 l 1
 520.013671875 770 l 1
 426.013671875 770 l 1
 377.70703125 859 l 1
 297.013671875 770 l 1
 204.013671875 770 l 1
160.2421875 0 m 1
 209.614257812 280 l 1
 37.4345703125 710 l 1
 183.434570312 710 l 1
 298.18359375 408 l 1
 518.434570312 710 l 1
 664.434570312 710 l 1
 340.614257812 280 l 1
 291.2421875 0 l 1
 160.2421875 0 l 1
EndSplineSet
Validated: 1
EndChar

StartChar: Ydieresis
Encoding: 376 376 125
Width: 613
GlyphClass: 2
Flags: HMW
HStem: 0 21G<241 241 241 372> 690 20G<-7 139 139 139 474 620 620 620> 780 113<144 269 144 269 345 470 144 345>
VStem: 144 125<780 893 780 893> 241 131<0 280 0 280> 345 125<780 893 780 893>
AnchorPoint: "Anchor-3" 353.462 710 basechar 0
AnchorPoint: "Anchor-0" 228.27 0 basechar 0
LayerCount: 2
Fore
SplineSet
202.8046875 780 m 1xf4
 222.73046875 893 l 1
 347.73046875 893 l 1
 327.8046875 780 l 1
 202.8046875 780 l 1xf4
403.8046875 780 m 1
 423.73046875 893 l 1
 548.73046875 893 l 1
 528.8046875 780 l 1
 403.8046875 780 l 1
162.26953125 0 m 1xe8
 211.641601562 280 l 1
 39.4619140625 710 l 1
 185.461914062 710 l 1
 300.2109375 408 l 1
 520.461914062 710 l 1
 666.461914062 710 l 1
 342.641601562 280 l 1
 293.26953125 0 l 1
 162.26953125 0 l 1xe8
EndSplineSet
Validated: 1
Substitution2: "'ss08' Style Set 8 in Latin lookup 41 subtable" Ydieresis.ss08
Substitution2: "'aalt' Access All Alternates in Latin lookup 0 subtable" Ydieresis.ss08
EndChar

StartChar: Ygrave
Encoding: 7922 7922 126
Width: 613
GlyphClass: 2
Flags: HMW
HStem: 0 21G<241 241 241 372> 690 20G<-7 139 139 139 474 620 620 620> 775 141<265 265 265 303 175 364>
VStem: 241 131<0 280 0 280>
AnchorPoint: "Anchor-3" 351.435 710 basechar 0
AnchorPoint: "Anchor-0" 226.242 0 basechar 0
LayerCount: 2
Fore
SplineSet
320.895507812 775 m 1
 255.7578125 916 l 1
 383.7578125 916 l 1
 419.895507812 775 l 1
 320.895507812 775 l 1
160.2421875 0 m 1
 209.614257812 280 l 1
 37.4345703125 710 l 1
 183.434570312 710 l 1
 298.18359375 408 l 1
 518.434570312 710 l 1
 664.434570312 710 l 1
 340.614257812 280 l 1
 291.2421875 0 l 1
 160.2421875 0 l 1
EndSplineSet
Validated: 1
EndChar

StartChar: uni1EF8
Encoding: 7928 7928 127
Width: 613
GlyphClass: 2
Flags: HMW
HStem: 0 21G<241 241 241 372> 690 20G<-7 139 139 139 474 620 620 620> 773 134<140 261 140 261> 780 78<360 378 360 397.5> 780 136<349.5 473> 829 78<236.5 255>
VStem: 140 67<773 773> 241 131<0 280 0 280> 406 67<916 916>
AnchorPoint: "Anchor-3" 351.435 710 basechar 0
AnchorPoint: "Anchor-0" 226.242 0 basechar 0
LayerCount: 2
Fore
SplineSet
420.77734375 780 m 0xc980
 391.77734375 780 372.1875 788 351.71484375 808 c 0
 336.359375 823 328.416992188 829 312.416992188 829 c 0xc7
 291.416992188 829 273.301757812 817 262.54296875 773 c 1xe3
 195.54296875 773 l 1
 211.354492188 857 260.170898438 907 324.170898438 907 c 0xc7
 356.170898438 907 377.583984375 898 399.057617188 878 c 0
 413.412109375 863 423.53125 858 437.53125 858 c 0xd180
 459.53125 858 475.646484375 870 486.7578125 916 c 1
 553.7578125 916 l 1
 536.76953125 831 487.77734375 780 420.77734375 780 c 0xc980
160.2421875 0 m 1
 209.614257812 280 l 1
 37.4345703125 710 l 1
 183.434570312 710 l 1
 298.18359375 408 l 1
 518.434570312 710 l 1
 664.434570312 710 l 1
 340.614257812 280 l 1
 291.2421875 0 l 1
 160.2421875 0 l 1
EndSplineSet
Validated: 1
EndChar

StartChar: Z
Encoding: 90 90 128
Width: 577
GlyphClass: 2
Flags: HMW
HStem: 0 113<182 550 182 550> 597 113<42 380 42 538>
VStem: 27 523<0 112 112 112>
AnchorPoint: "Anchor-3" 359.596 710 basechar 0
AnchorPoint: "Anchor-0" 234.404 0 basechar 0
LayerCount: 2
Fore
SplineSet
-35.595703125 0 m 1
 -15.84765625 112 l 1
 422.670898438 597 l 1
 84.6708984375 597 l 1
 104.595703125 710 l 1
 600.595703125 710 l 1
 580.84765625 598 l 1
 139.329101562 113 l 1
 507.329101562 113 l 1
 487.404296875 0 l 1
 -35.595703125 0 l 1
EndSplineSet
Validated: 1
EndChar

StartChar: Zacute
Encoding: 377 377 129
Width: 577
GlyphClass: 2
Flags: HMW
HStem: 0 113<182 550 182 550> 597 113<42 380 42 538> 770 140<239 429 301 339>
VStem: 27 523<0 112 112 112>
AnchorPoint: "Anchor-3" 341.964 710 basechar 0
AnchorPoint: "Anchor-0" 216.771 0 basechar 0
LayerCount: 2
Fore
SplineSet
294.54296875 770 m 1
 381.228515625 910 l 1
 509.228515625 910 l 1
 394.54296875 770 l 1
 294.54296875 770 l 1
-53.228515625 0 m 1
 -33.48046875 112 l 1
 405.038085938 597 l 1
 67.0380859375 597 l 1
 86.9638671875 710 l 1
 582.963867188 710 l 1
 563.21484375 598 l 1
 121.696289062 113 l 1
 489.696289062 113 l 1
 469.771484375 0 l 1
 -53.228515625 0 l 1
EndSplineSet
Validated: 1
EndChar

StartChar: Zcaron
Encoding: 381 381 130
Width: 577
GlyphClass: 2
Flags: HMW
HStem: 0 113<182 550 182 550> 597 113<42 380 42 538> 770 146<139 361 139 233>
VStem: 27 523<0 112 112 112>
AnchorPoint: "Anchor-3" 341.435 710 basechar 0
AnchorPoint: "Anchor-0" 216.242 0 basechar 0
LayerCount: 2
Fore
SplineSet
219.7578125 916 m 1
 313.7578125 916 l 1
 362.064453125 827 l 1
 442.7578125 916 l 1
 535.7578125 916 l 1
 416.013671875 770 l 1
 288.013671875 770 l 1
 219.7578125 916 l 1
-53.7578125 0 m 1
 -34.0087890625 112 l 1
 404.509765625 597 l 1
 66.509765625 597 l 1
 86.4345703125 710 l 1
 582.434570312 710 l 1
 562.685546875 598 l 1
 121.166992188 113 l 1
 489.166992188 113 l 1
 469.2421875 0 l 1
 -53.7578125 0 l 1
EndSplineSet
Validated: 1
EndChar

StartChar: Zdotaccent
Encoding: 379 379 131
Width: 577
GlyphClass: 2
Flags: HMW
HStem: 0 113<182 550 182 550> 597 113<42 380 42 538> 781 114<231 364 231 364>
VStem: 231 133<781 895 781 895>
AnchorPoint: "Anchor-3" 343.286 710 basechar 0
AnchorPoint: "Anchor-0" 218.094 0 basechar 0
LayerCount: 2
Fore
SplineSet
289.8046875 781 m 1
 309.90625 895 l 1
 442.90625 895 l 1
 422.8046875 781 l 1
 289.8046875 781 l 1
-51.90625 0 m 1
 -32.1572265625 112 l 1
 406.361328125 597 l 1
 68.361328125 597 l 1
 88.2861328125 710 l 1
 584.286132812 710 l 1
 564.537109375 598 l 1
 123.018554688 113 l 1
 491.018554688 113 l 1
 471.09375 0 l 1
 -51.90625 0 l 1
EndSplineSet
Validated: 1
Substitution2: "'ss08' Style Set 8 in Latin lookup 41 subtable" Zdotaccent.ss08
Substitution2: "'aalt' Access All Alternates in Latin lookup 0 subtable" Zdotaccent.ss08
EndChar

StartChar: uniA78B
Encoding: 42891 42891 132
Width: 210
GlyphClass: 1
Flags: HMW
HStem: 690 20G<43 167 167 167>
VStem: 43 124<576 710 576 710>
LayerCount: 2
Fore
SplineSet
23.0263671875 336 m 1
 52.345703125 576 l 1
 75.9736328125 710 l 1
 199.973632812 710 l 1
 176.345703125 576 l 1
 121.026367188 336 l 1
 23.0263671875 336 l 1
EndSplineSet
Validated: 1
EndChar

StartChar: uni013B.loclMAH
Encoding: 65538 -1 133
Width: 586
GlyphClass: 2
Flags: HMW
HStem: -158 108<253 289 253 373> 0 113<210 547 210 547> 690 20G<80 210 210 210>
VStem: 80 130<113 710 113 710 113 710> 253 120<-147 -50 -147 -50 -147 -50>
AnchorPoint: "Anchor-4" 421.516 534 basechar 0
AnchorPoint: "Anchor-3" 229.549 710 basechar 0
AnchorPoint: "Anchor-1" 206.361 380 basechar 0
AnchorPoint: "Anchor-0" 228.451 -249 basechar 0
LayerCount: 2
Fore
SplineSet
39.3564453125 0 m 1
 164.548828125 710 l 1
 294.548828125 710 l 1
 189.28125 113 l 1
 526.28125 113 l 1
 506.356445312 0 l 1
 39.3564453125 0 l 1
151.451171875 -249 m 1
 220.497070312 -158 l 1
 184.497070312 -158 l 1
 203.540039062 -50 l 1
 323.540039062 -50 l 1
 306.436523438 -147 l 1
 229.451171875 -249 l 1
 151.451171875 -249 l 1
EndSplineSet
Validated: 1
EndChar

StartChar: uni0145.loclMAH
Encoding: 65539 -1 134
Width: 748
GlyphClass: 2
Flags: HMW
HStem: -158 108<311 346 311 431> 0 21G<80 80 80 210 512 512 512 668> 690 20G<80 232 232 232 538 668 668 668>
VStem: 80 130<0 519 0 710> 311 120<-147 -50 -147 -50 -147 -50> 538 130<176 710 0 710>
AnchorPoint: "Anchor-3" 467.549 710 basechar 0
AnchorPoint: "Anchor-0" 286.451 -249 basechar 0
LayerCount: 2
Fore
SplineSet
39.3564453125 0 m 1
 164.548828125 710 l 1
 316.548828125 710 l 1
 528.390625 176 l 1
 622.548828125 710 l 1
 752.548828125 710 l 1
 627.356445312 0 l 1
 471.356445312 0 l 1
 260.870117188 519 l 1
 169.356445312 0 l 1
 39.3564453125 0 l 1
208.451171875 -249 m 1
 277.497070312 -158 l 1
 242.497070312 -158 l 1
 261.540039062 -50 l 1
 381.540039062 -50 l 1
 364.436523438 -147 l 1
 286.451171875 -249 l 1
 208.451171875 -249 l 1
EndSplineSet
Validated: 1
EndChar

StartChar: R.ss04
Encoding: 65540 -1 135
Width: 698
GlyphClass: 2
Flags: HMW
HStem: 0 21G<80 80 80 210 503 503 503 644> 269 113<210 349 349 356 210 349> 597 113<210 349 210 210>
VStem: 80 130<0 269 382 597> 486 134<453 523.5>
AnchorPoint: "Anchor-3" 401.596 710 basechar 0
AnchorPoint: "Anchor-0" 276.404 0 basechar 0
LayerCount: 2
Fore
SplineSet
17.404296875 0 m 1
 142.595703125 710 l 1
 417.595703125 710 l 2
 585.595703125 710 668.137695312 628 643.451171875 488 c 0
 627.052734375 395 566.004882812 321 470.71484375 291 c 1
 581.404296875 0 l 1
 440.404296875 0 l 1
 340.8359375 269 l 1
 194.8359375 269 l 1
 147.404296875 0 l 1
 17.404296875 0 l 1
214.760742188 382 m 1
 353.760742188 382 l 2
 439.760742188 382 497.108398438 418 509.451171875 488 c 0
 521.970703125 559 477.670898438 597 391.670898438 597 c 2
 252.670898438 597 l 1
 214.760742188 382 l 1
EndSplineSet
Validated: 33
EndChar

StartChar: Racute.ss04
Encoding: 65541 -1 136
Width: 698
GlyphClass: 2
Flags: HMW
HStem: 0 21G<80 80 80 210 503 503 503 644> 269 113<210 349 349 356 210 349> 597 113<210 349 210 210> 770 140<281 471 342 381>
VStem: 80 130<0 269 382 597> 486 134<453 523.5>
AnchorPoint: "Anchor-3" 383.964 710 basechar 0
AnchorPoint: "Anchor-0" 258.771 0 basechar 0
LayerCount: 2
Fore
SplineSet
336.54296875 770 m 1
 422.228515625 910 l 1
 551.228515625 910 l 1
 436.54296875 770 l 1
 336.54296875 770 l 1
-0.228515625 0 m 1
 124.963867188 710 l 1
 399.963867188 710 l 2
 567.963867188 710 650.504882812 628 625.818359375 488 c 0
 609.419921875 395 548.372070312 321 453.08203125 291 c 1
 563.771484375 0 l 1
 422.771484375 0 l 1
 323.203125 269 l 1
 177.203125 269 l 1
 129.771484375 0 l 1
 -0.228515625 0 l 1
197.127929688 382 m 1
 336.127929688 382 l 2
 422.127929688 382 479.475585938 418 491.818359375 488 c 0
 504.337890625 559 460.038085938 597 374.038085938 597 c 2
 235.038085938 597 l 1
 197.127929688 382 l 1
EndSplineSet
Validated: 33
EndChar

StartChar: Rcaron.ss04
Encoding: 65542 -1 137
Width: 698
GlyphClass: 2
Flags: HMW
HStem: 0 21G<80 80 80 210 503 503 503 644> 269 113<210 349 349 356 210 349> 597 113<210 349 210 210> 770 146<181 403 181 275>
VStem: 80 130<0 269 382 597> 486 134<453 523.5>
AnchorPoint: "Anchor-3" 383.435 710 basechar 0
AnchorPoint: "Anchor-0" 258.242 0 basechar 0
LayerCount: 2
Fore
SplineSet
261.7578125 916 m 1
 354.7578125 916 l 1
 404.064453125 827 l 1
 483.7578125 916 l 1
 577.7578125 916 l 1
 458.013671875 770 l 1
 330.013671875 770 l 1
 261.7578125 916 l 1
-0.7578125 0 m 1
 124.434570312 710 l 1
 399.434570312 710 l 2
 567.434570312 710 649.975585938 628 625.290039062 488 c 0
 608.891601562 395 547.842773438 321 452.553710938 291 c 1
 563.2421875 0 l 1
 422.2421875 0 l 1
 322.673828125 269 l 1
 176.673828125 269 l 1
 129.2421875 0 l 1
 -0.7578125 0 l 1
196.599609375 382 m 1
 335.599609375 382 l 2
 421.599609375 382 478.947265625 418 491.290039062 488 c 0
 503.80859375 559 459.509765625 597 373.509765625 597 c 2
 234.509765625 597 l 1
 196.599609375 382 l 1
EndSplineSet
Validated: 33
EndChar

StartChar: uni0156.ss04
Encoding: 65543 -1 138
Width: 698
GlyphClass: 2
Flags: HMW
HStem: -158 108<279 314 279 399> 0 21G<80 80 80 210 503 503 503 644> 269 113<210 349 349 356 210 349> 597 113<210 349 210 210>
VStem: 80 130<0 269 382 597> 279 120<-147 -50 -147 -50 -147 -50> 486 134<453 523.5>
AnchorPoint: "Anchor-3" 423.549 710 basechar 0
AnchorPoint: "Anchor-0" 254.451 -249 basechar 0
LayerCount: 2
Fore
SplineSet
39.3564453125 0 m 1
 164.548828125 710 l 1
 439.548828125 710 l 2
 607.548828125 710 690.08984375 628 665.404296875 488 c 0
 649.005859375 395 587.958007812 321 492.66796875 291 c 1
 603.356445312 0 l 1
 462.356445312 0 l 1
 362.7890625 269 l 1
 216.7890625 269 l 1
 169.356445312 0 l 1
 39.3564453125 0 l 1
236.713867188 382 m 1
 375.713867188 382 l 2
 461.713867188 382 519.061523438 418 531.404296875 488 c 0
 543.923828125 559 499.624023438 597 413.624023438 597 c 2
 274.624023438 597 l 1
 236.713867188 382 l 1
176.451171875 -249 m 1
 245.497070312 -158 l 1
 210.497070312 -158 l 1
 229.540039062 -50 l 1
 349.540039062 -50 l 1
 332.436523438 -147 l 1
 254.451171875 -249 l 1
 176.451171875 -249 l 1
EndSplineSet
Validated: 33
EndChar

StartChar: I.ss05
Encoding: 65544 -1 139
Width: 457
GlyphClass: 2
Flags: HMW
HStem: 0 113<43 163 43 163 294 414> 597 113<49 163 49 408 294 294 294 408>
VStem: 163 131<113 597 113 597>
AnchorPoint: "Anchor-3" 290.596 710 basechar 0
AnchorPoint: "Anchor-2" 351.404 0 basechar 0
AnchorPoint: "Anchor-0" 165.404 0 basechar 0
LayerCount: 2
Fore
SplineSet
-19.595703125 0 m 1
 0.3291015625 113 l 1
 120.329101562 113 l 1
 205.670898438 597 l 1
 91.6708984375 597 l 1
 111.595703125 710 l 1
 470.595703125 710 l 1
 450.670898438 597 l 1
 336.670898438 597 l 1
 251.329101562 113 l 1
 371.329101562 113 l 1
 351.404296875 0 l 1
 -19.595703125 0 l 1
EndSplineSet
Validated: 1
EndChar

StartChar: Iacute.ss05
Encoding: 65545 -1 140
Width: 457
GlyphClass: 2
Flags: HMW
HStem: 0 113<43 163 43 163 294 414> 597 113<49 163 49 408 294 294 294 408> 770 140<170 360 232 270>
VStem: 163 131<113 597 113 597>
AnchorPoint: "Anchor-3" 272.964 710 basechar 0
AnchorPoint: "Anchor-2" 333.771 0 basechar 0
AnchorPoint: "Anchor-0" 147.771 0 basechar 0
LayerCount: 2
Fore
SplineSet
225.54296875 770 m 1
 312.228515625 910 l 1
 440.228515625 910 l 1
 325.54296875 770 l 1
 225.54296875 770 l 1
-37.228515625 0 m 1
 -17.3037109375 113 l 1
 102.696289062 113 l 1
 188.038085938 597 l 1
 74.0380859375 597 l 1
 93.9638671875 710 l 1
 452.963867188 710 l 1
 433.038085938 597 l 1
 319.038085938 597 l 1
 233.696289062 113 l 1
 353.696289062 113 l 1
 333.771484375 0 l 1
 -37.228515625 0 l 1
EndSplineSet
Validated: 1
EndChar

StartChar: Icircumflex.ss05
Encoding: 65546 -1 141
Width: 457
GlyphClass: 2
Flags: HMW
HStem: 0 113<43 163 43 163 294 414> 597 113<49 163 49 408 294 294 294 408> 770 146<70 292 70 292 164 293 164 386>
VStem: 163 131<113 597 113 597>
AnchorPoint: "Anchor-3" 272.435 710 basechar 0
AnchorPoint: "Anchor-2" 333.242 0 basechar 0
AnchorPoint: "Anchor-0" 147.242 0 basechar 0
LayerCount: 2
Fore
SplineSet
125.013671875 770 m 1
 244.7578125 916 l 1
 372.7578125 916 l 1
 441.013671875 770 l 1
 348.013671875 770 l 1
 298.70703125 859 l 1
 219.013671875 770 l 1
 125.013671875 770 l 1
-37.7578125 0 m 1
 -17.8330078125 113 l 1
 102.166992188 113 l 1
 187.509765625 597 l 1
 73.509765625 597 l 1
 93.4345703125 710 l 1
 452.434570312 710 l 1
 432.509765625 597 l 1
 318.509765625 597 l 1
 233.166992188 113 l 1
 353.166992188 113 l 1
 333.2421875 0 l 1
 -37.7578125 0 l 1
EndSplineSet
Validated: 1
EndChar

StartChar: Idieresis.ss05
Encoding: 65547 -1 142
Width: 457
GlyphClass: 2
Flags: HMW
HStem: 0 113<43 163 43 163 294 414> 597 113<49 163 49 408 294 294 294 408> 780 113<65 190 65 190 266 391 65 266>
VStem: 49 141<597 893 710 893> 65 125<780 893 780 893> 163 131<113 597 113 597> 266 125<780 893 780 893> 266 142<597 893>
AnchorPoint: "Anchor-3" 274.462 710 basechar 0
AnchorPoint: "Anchor-2" 335.27 0 basechar 0
AnchorPoint: "Anchor-0" 149.27 0 basechar 0
LayerCount: 2
Fore
SplineSet
123.8046875 780 m 1xea
 143.73046875 893 l 1
 268.73046875 893 l 1
 248.8046875 780 l 1
 123.8046875 780 l 1xea
324.8046875 780 m 1
 344.73046875 893 l 1
 469.73046875 893 l 1
 449.8046875 780 l 1
 324.8046875 780 l 1
-35.73046875 0 m 1
 -15.8046875 113 l 1
 104.1953125 113 l 1
 189.537109375 597 l 1xe4
 75.537109375 597 l 1
 95.4619140625 710 l 1
 454.461914062 710 l 1
 434.537109375 597 l 1xf1
 320.537109375 597 l 1
 235.1953125 113 l 1xe4
 355.1953125 113 l 1
 335.26953125 0 l 1
 -35.73046875 0 l 1
EndSplineSet
Validated: 1
Substitution2: "'ss08' Style Set 8 in Latin lookup 41 subtable" Idieresis.ss05.ss08
Substitution2: "'aalt' Access All Alternates in Latin lookup 0 subtable" Idieresis.ss05.ss08
EndChar

StartChar: Idotaccent.ss05
Encoding: 65548 -1 143
Width: 457
GlyphClass: 2
Flags: HMW
HStem: 0 113<43 163 43 163 294 414> 597 113<49 163 49 408 294 294 294 408> 781 114<162 295 162 295>
VStem: 162 133<781 895 781 895> 163 131<113 597 113 597>
AnchorPoint: "Anchor-3" 274.286 710 basechar 0
AnchorPoint: "Anchor-2" 335.094 0 basechar 0
AnchorPoint: "Anchor-0" 149.094 0 basechar 0
LayerCount: 2
Fore
SplineSet
220.8046875 781 m 1xf0
 240.90625 895 l 1
 373.90625 895 l 1
 353.8046875 781 l 1
 220.8046875 781 l 1xf0
-35.90625 0 m 1
 -15.9814453125 113 l 1
 104.018554688 113 l 1
 189.361328125 597 l 1
 75.361328125 597 l 1
 95.2861328125 710 l 1
 454.286132812 710 l 1
 434.361328125 597 l 1
 320.361328125 597 l 1
 235.018554688 113 l 1xe8
 355.018554688 113 l 1
 335.09375 0 l 1
 -35.90625 0 l 1
EndSplineSet
Validated: 1
Substitution2: "'ss08' Style Set 8 in Latin lookup 41 subtable" Idotaccent.ss05.ss08
Substitution2: "'aalt' Access All Alternates in Latin lookup 0 subtable" Idotaccent.ss05.ss08
EndChar

StartChar: Igrave.ss05
Encoding: 65549 -1 144
Width: 457
GlyphClass: 2
Flags: HMW
HStem: 0 113<43 163 43 163 294 414> 597 113<49 163 49 408 294 294 294 408> 775 141<186 186 186 224 96 286>
VStem: 163 131<113 597 113 597>
AnchorPoint: "Anchor-3" 272.435 710 basechar 0
AnchorPoint: "Anchor-2" 333.242 0 basechar 0
AnchorPoint: "Anchor-0" 147.242 0 basechar 0
LayerCount: 2
Fore
SplineSet
241.895507812 775 m 1
 176.7578125 916 l 1
 304.7578125 916 l 1
 341.895507812 775 l 1
 241.895507812 775 l 1
-37.7578125 0 m 1
 -17.8330078125 113 l 1
 102.166992188 113 l 1
 187.509765625 597 l 1
 73.509765625 597 l 1
 93.4345703125 710 l 1
 452.434570312 710 l 1
 432.509765625 597 l 1
 318.509765625 597 l 1
 233.166992188 113 l 1
 353.166992188 113 l 1
 333.2421875 0 l 1
 -37.7578125 0 l 1
EndSplineSet
Validated: 1
EndChar

StartChar: Imacron.ss05
Encoding: 65550 -1 145
Width: 457
GlyphClass: 2
Flags: HMW
HStem: 0 113<43 163 43 163 294 414> 597 113<49 163 49 408 294 294 294 408> 789 97<84 373 84 373>
VStem: 84 289<789 886 789 886> 163 131<113 597 113 597>
AnchorPoint: "Anchor-3" 275.079 710 basechar 0
AnchorPoint: "Anchor-2" 335.887 0 basechar 0
AnchorPoint: "Anchor-0" 149.887 0 basechar 0
LayerCount: 2
Fore
SplineSet
145.008789062 789 m 1xf0
 162.11328125 886 l 1
 451.11328125 886 l 1
 434.008789062 789 l 1
 145.008789062 789 l 1xf0
-35.11328125 0 m 1
 -15.1875 113 l 1
 104.8125 113 l 1
 190.154296875 597 l 1
 76.154296875 597 l 1
 96.0791015625 710 l 1
 455.079101562 710 l 1
 435.154296875 597 l 1
 321.154296875 597 l 1
 235.8125 113 l 1xe8
 355.8125 113 l 1
 335.88671875 0 l 1
 -35.11328125 0 l 1
EndSplineSet
Validated: 1
EndChar

StartChar: Iogonek.ss05
Encoding: 65551 -1 146
Width: 457
GlyphClass: 2
Flags: HMW
HStem: -215 83<317 386.5> 0 113<43 163 43 163 294 312> 597 113<49 163 49 408 294 294 294 408>
VStem: 163 131<113 597 113 597> 244 107<-115.5 -114.5>
AnchorPoint: "Anchor-3" 309.551 710 basechar 0
AnchorPoint: "Anchor-2" 370.359 0 basechar 0
AnchorPoint: "Anchor-0" 184.359 0 basechar 0
LayerCount: 2
Fore
SplineSet
-0.640625 0 m 1xe8
 19.2841796875 113 l 1
 139.284179688 113 l 1
 224.625976562 597 l 1
 110.625976562 597 l 1
 130.55078125 710 l 1
 489.55078125 710 l 1
 469.625976562 597 l 1
 355.625976562 597 l 1
 270.284179688 113 l 1x70
 390.284179688 113 l 1
 370.359375 0 l 1
 330.953125 -42 l 2
 304.663085938 -72 291.313476562 -91 288.4921875 -107 c 0
 285.494140625 -124 296.083984375 -132 311.083984375 -132 c 0
 328.083984375 -132 346.965820312 -127 359.375976562 -119 c 1
 373.033203125 -189 l 1
 353.564453125 -203 309.44921875 -215 268.44921875 -215 c 0
 202.44921875 -215 167.385742188 -187 176.731445312 -134 c 0
 183.608398438 -95 217.661132812 -55 248.833007812 -20 c 2
 268.359375 0 l 1
 -0.640625 0 l 1xe8
EndSplineSet
Validated: 33
EndChar

StartChar: Itilde.ss05
Encoding: 65552 -1 147
Width: 457
GlyphClass: 2
Flags: HMW
HStem: 0 113<43 163 43 163 294 414> 597 113<49 163 49 408 294 294 294 408> 773 134<61 182 61 182> 780 78<281.5 299 281.5 319> 780 136<270.5 394> 829 78<157.5 176>
VStem: 49 79<597 773 710 773> 61 67<773 773> 163 131<113 597 113 597> 327 67<916 916>
AnchorPoint: "Anchor-3" 272.435 710 basechar 0
AnchorPoint: "Anchor-2" 333.242 0 basechar 0
AnchorPoint: "Anchor-0" 147.242 0 basechar 0
LayerCount: 2
Fore
SplineSet
341.77734375 780 m 0xc8c0
 312.77734375 780 294.1875 788 272.71484375 808 c 0
 257.359375 823 249.416992188 829 233.416992188 829 c 0xc580
 212.416992188 829 194.301757812 817 183.54296875 773 c 1xe180
 116.54296875 773 l 1
 132.354492188 857 181.170898438 907 245.170898438 907 c 0xc580
 277.170898438 907 298.583984375 898 320.057617188 878 c 0
 335.412109375 863 345.53125 858 358.53125 858 c 0xd0c0
 380.53125 858 396.646484375 870 407.7578125 916 c 1
 474.7578125 916 l 1
 457.76953125 831 409.77734375 780 341.77734375 780 c 0xc8c0
-37.7578125 0 m 1
 -17.8330078125 113 l 1
 102.166992188 113 l 1
 187.509765625 597 l 1
 73.509765625 597 l 1
 93.4345703125 710 l 1xc280
 452.434570312 710 l 1
 432.509765625 597 l 1
 318.509765625 597 l 1
 233.166992188 113 l 1
 353.166992188 113 l 1
 333.2421875 0 l 1
 -37.7578125 0 l 1
EndSplineSet
Validated: 1
EndChar

StartChar: G.ss06
Encoding: 65553 -1 148
Width: 716
GlyphClass: 2
Flags: HMW
HStem: -16 113<306 428.5 306 469> 265 101<376 551 376 678> 613 113<306.5 427.5>
VStem: 43 134<279.5 426 279.5 459> 551 127<265 265>
AnchorPoint: "Anchor-3" 438.596 710 basechar 0
AnchorPoint: "Anchor-0" 315.404 0 basechar 0
LayerCount: 2
Fore
SplineSet
308.583007812 -16 m 0
 90.5830078125 -16 5.9716796875 145 42.8232421875 354 c 0
 79.8525390625 564 228.416992188 726 443.416992188 726 c 0
 612.416992188 726 695.842773438 632 698.393554688 482 c 1
 561.159179688 475 l 1
 560.44140625 556 524.4921875 613 421.4921875 613 c 0
 282.4921875 613 202.21484375 498 176.823242188 354 c 0
 150.55078125 205 194.5078125 97 326.5078125 97 c 0
 439.5078125 97 512.850585938 167 535.130859375 265 c 1
 360.130859375 265 l 1
 377.939453125 366 l 1
 679.939453125 366 l 1
 672.357421875 323 l 2
 633.389648438 102 498.583007812 -16 308.583007812 -16 c 0
EndSplineSet
Validated: 33
EndChar

StartChar: Gbreve.ss06
Encoding: 65554 -1 149
Width: 716
GlyphClass: 2
Flags: HMW
HStem: -16 113<306 428.5 306 469> 265 101<376 551 376 678> 613 113<306.5 427.5> 771 76<355 397 355 420.5>
VStem: 43 134<279.5 426 279.5 459> 551 127<265 265>
AnchorPoint: "Anchor-3" 422.197 710 basechar 0
AnchorPoint: "Anchor-0" 299.006 0 basechar 0
LayerCount: 2
Fore
SplineSet
432.954101562 771 m 0
 343.954101562 771 295.298828125 824 306.815429688 912 c 1
 383.815429688 912 l 1
 380.705078125 866 404.354492188 847 446.354492188 847 c 0
 488.354492188 847 517.705078125 866 530.815429688 912 c 1
 607.815429688 912 l 1
 588.298828125 824 521.954101562 771 432.954101562 771 c 0
292.184570312 -16 m 0
 74.1845703125 -16 -10.4267578125 145 26.4248046875 354 c 0
 63.4541015625 564 212.018554688 726 427.018554688 726 c 0
 596.018554688 726 679.444335938 632 681.995117188 482 c 1
 544.760742188 475 l 1
 544.04296875 556 508.09375 613 405.09375 613 c 0
 266.09375 613 185.81640625 498 160.424804688 354 c 0
 134.15234375 205 178.109375 97 310.109375 97 c 0
 423.109375 97 496.452148438 167 518.732421875 265 c 1
 343.732421875 265 l 1
 361.541015625 366 l 1
 663.541015625 366 l 1
 655.958984375 323 l 2
 616.991210938 102 482.184570312 -16 292.184570312 -16 c 0
EndSplineSet
Validated: 33
EndChar

StartChar: Gcircumflex.ss06
Encoding: 65555 -1 150
Width: 716
GlyphClass: 2
Flags: HMW
HStem: -16 113<306 428.5 306 469> 265 101<376 551 376 678> 613 113<306.5 427.5> 770 146<218 440 218 440 312 440 312 534>
VStem: 43 134<279.5 426 279.5 459> 551 127<265 265>
AnchorPoint: "Anchor-3" 421.845 710 basechar 0
AnchorPoint: "Anchor-0" 298.653 0 basechar 0
LayerCount: 2
Fore
SplineSet
274.424804688 770 m 1
 394.16796875 916 l 1
 522.16796875 916 l 1
 590.424804688 770 l 1
 496.424804688 770 l 1
 448.118164062 859 l 1
 367.424804688 770 l 1
 274.424804688 770 l 1
291.83203125 -16 m 0
 73.83203125 -16 -10.779296875 145 26.072265625 354 c 0
 63.1015625 564 211.666015625 726 426.666015625 726 c 0
 595.666015625 726 679.091796875 632 681.642578125 482 c 1
 544.408203125 475 l 1
 543.690429688 556 507.741210938 613 404.741210938 613 c 0
 265.741210938 613 185.463867188 498 160.072265625 354 c 0
 133.799804688 205 177.756835938 97 309.756835938 97 c 0
 422.756835938 97 496.099609375 167 518.379882812 265 c 1
 343.379882812 265 l 1
 361.188476562 366 l 1
 663.188476562 366 l 1
 655.606445312 323 l 2
 616.638671875 102 481.83203125 -16 291.83203125 -16 c 0
EndSplineSet
Validated: 33
EndChar

StartChar: uni0122.ss06
Encoding: 65556 -1 151
Width: 716
GlyphClass: 2
Flags: HMW
HStem: -158 108<318 353 318 438> -16 113<306 428.5 306 469> 265 101<376 551 376 678> 613 113<306.5 427.5>
VStem: 43 134<279.5 426 279.5 459> 318 120<-147 -50 -147 -50 -147 -50> 551 127<265 265>
AnchorPoint: "Anchor-3" 459.138 710 basechar 0
AnchorPoint: "Anchor-0" 292.041 -249 basechar 0
LayerCount: 2
Fore
SplineSet
329.125 -16 m 0
 111.125 -16 26.513671875 145 63.3662109375 354 c 0
 100.39453125 564 248.958984375 726 463.958984375 726 c 0
 632.958984375 726 716.384765625 632 718.935546875 482 c 1
 581.701171875 475 l 1
 580.983398438 556 545.034179688 613 442.034179688 613 c 0
 303.034179688 613 222.756835938 498 197.366210938 354 c 0
 171.092773438 205 215.049804688 97 347.049804688 97 c 0
 460.049804688 97 533.392578125 167 555.672851562 265 c 1
 380.672851562 265 l 1
 398.481445312 366 l 1
 700.481445312 366 l 1
 692.899414062 323 l 2
 653.931640625 102 519.125 -16 329.125 -16 c 0
214.041015625 -249 m 1
 283.0859375 -158 l 1
 248.0859375 -158 l 1
 267.129882812 -50 l 1
 387.129882812 -50 l 1
 370.026367188 -147 l 1
 292.041015625 -249 l 1
 214.041015625 -249 l 1
EndSplineSet
Validated: 33
EndChar

StartChar: Gdotaccent.ss06
Encoding: 65557 -1 152
Width: 716
GlyphClass: 2
Flags: HMW
HStem: -16 113<306 428.5 306 469> 265 101<376 551 376 678> 613 113<306.5 427.5> 781 114<309 442 309 442>
VStem: 43 134<279.5 426 279.5 459> 309 133<781 895 781 895> 551 127<265 265>
AnchorPoint: "Anchor-3" 423.696 710 basechar 0
AnchorPoint: "Anchor-0" 300.504 0 basechar 0
LayerCount: 2
Fore
SplineSet
369.215820312 781 m 1
 389.317382812 895 l 1
 522.317382812 895 l 1
 502.215820312 781 l 1
 369.215820312 781 l 1
293.682617188 -16 m 0
 75.6826171875 -16 -8.9287109375 145 27.923828125 354 c 0
 64.953125 564 213.517578125 726 428.517578125 726 c 0
 597.517578125 726 680.943359375 632 683.494140625 482 c 1
 546.259765625 475 l 1
 545.541992188 556 509.592773438 613 406.592773438 613 c 0
 267.592773438 613 187.315429688 498 161.923828125 354 c 0
 135.651367188 205 179.608398438 97 311.608398438 97 c 0
 424.608398438 97 497.951171875 167 520.23046875 265 c 1
 345.23046875 265 l 1
 363.040039062 366 l 1
 665.040039062 366 l 1
 657.458007812 323 l 2
 618.489257812 102 483.682617188 -16 293.682617188 -16 c 0
EndSplineSet
Validated: 33
Substitution2: "'ss08' Style Set 8 in Latin lookup 41 subtable" Gdotaccent.ss06.ss08
Substitution2: "'aalt' Access All Alternates in Latin lookup 0 subtable" Gdotaccent.ss06.ss08
EndChar

StartChar: uni1E20.ss06
Encoding: 65558 -1 153
Width: 716
GlyphClass: 2
Flags: HMW
HStem: -16 113<306 428.5 306 469> 265 101<376 551 376 678> 613 113<306.5 427.5> 789 97<231 520 231 520>
VStem: 43 134<279.5 426 279.5 459> 231 289<789 886 789 886> 551 127<265 265>
AnchorPoint: "Anchor-3" 424.49 710 basechar 0
AnchorPoint: "Anchor-0" 301.298 0 basechar 0
LayerCount: 2
Fore
SplineSet
293.419921875 789 m 1
 310.5234375 886 l 1
 599.5234375 886 l 1
 582.419921875 789 l 1
 293.419921875 789 l 1
294.4765625 -16 m 0
 76.4765625 -16 -8.134765625 145 28.7177734375 354 c 0
 65.74609375 564 214.311523438 726 429.311523438 726 c 0
 598.311523438 726 681.736328125 632 684.287109375 482 c 1
 547.052734375 475 l 1
 546.3359375 556 510.385742188 613 407.385742188 613 c 0
 268.385742188 613 188.108398438 498 162.717773438 354 c 0
 136.444335938 205 180.401367188 97 312.401367188 97 c 0
 425.401367188 97 498.744140625 167 521.024414062 265 c 1
 346.024414062 265 l 1
 363.833007812 366 l 1
 665.833007812 366 l 1
 658.250976562 323 l 2
 619.283203125 102 484.4765625 -16 294.4765625 -16 c 0
EndSplineSet
Validated: 33
EndChar

StartChar: Adieresis.ss08
Encoding: 65559 -1 154
Width: 709
GlyphClass: 2
Flags: HMW
HStem: 0 21G<19 19 19 155 554 554 554 690> 168 111<252 457 252 495 214 457> 579 131<355 355> 690 20G<275 434 434 434> 773 129<235.5 274.5 435.5 474.5>
VStem: 190 130<817.5 857.5> 390 130<817.5 857.5>
AnchorPoint: "Anchor-3" 400.669 710 basechar 0
AnchorPoint: "Anchor-2" 610.477 0 basechar 0
AnchorPoint: "Anchor-0" 275.477 0 basechar 0
LayerCount: 2
Fore
SplineSet
311.77734375 773 m 0xde
 272.77734375 773 251.008789062 797 258.23828125 838 c 0
 265.115234375 877 295.5234375 902 334.5234375 902 c 0
 373.5234375 902 395.115234375 877 388.23828125 838 c 0
 381.008789062 797 350.77734375 773 311.77734375 773 c 0xde
511.77734375 773 m 0
 472.77734375 773 451.008789062 797 458.23828125 838 c 0
 465.115234375 877 495.5234375 902 534.5234375 902 c 0
 573.5234375 902 595.115234375 877 588.23828125 838 c 0
 581.008789062 797 550.77734375 773 511.77734375 773 c 0
-60.5234375 0 m 1
 320.668945312 710 l 1
 479.668945312 710 l 1
 610.4765625 0 l 1
 474.4765625 0 l 1
 445.099609375 168 l 1
 164.099609375 168 l 1
 75.4765625 0 l 1
 -60.5234375 0 l 1
221.671875 279 m 1
 426.671875 279 l 1
 377.5703125 579 l 1xee
 221.671875 279 l 1
EndSplineSet
Validated: 33
EndChar

StartChar: Cdotaccent.ss08
Encoding: 65560 -1 155
Width: 724
GlyphClass: 2
Flags: HMW
HStem: -16 113<313 425 313 461.5> 613 113<312.5 422> 773 129<353 392.5>
VStem: 43 134<274 433 274 468> 306 133<817.5 857.5>
AnchorPoint: "Anchor-3" 419.079 710 basechar 0
AnchorPoint: "Anchor-0" 295.887 0 basechar 0
LayerCount: 2
Fore
SplineSet
431.1875 773 m 0
 391.1875 773 368.419921875 797 375.649414062 838 c 0
 382.526367188 877 413.934570312 902 453.934570312 902 c 0
 492.934570312 902 515.526367188 877 508.649414062 838 c 0
 501.419921875 797 470.1875 773 431.1875 773 c 0
291.065429688 -16 m 0
 97.0654296875 -16 -13.6005859375 122 27.306640625 354 c 0
 67.509765625 582 223.900390625 726 422.900390625 726 c 0
 603.900390625 726 684.149414062 631 686.760742188 470 c 1
 549.526367188 463 l 1
 547.924804688 556 500.975585938 613 402.975585938 613 c 0
 281.975585938 613 189.166992188 512 161.306640625 354 c 0
 133.094726562 194 192.991210938 97 310.991210938 97 c 0
 416.991210938 97 483.747070312 158 517.732421875 260 c 1
 652.498046875 253 l 1
 595.05078125 86 470.065429688 -16 291.065429688 -16 c 0
EndSplineSet
Validated: 33
EndChar

StartChar: Edieresis.ss08
Encoding: 65561 -1 156
Width: 615
GlyphClass: 2
Flags: HMW
HStem: 0 113<210 566 210 566> 300 112<210 546 210 546> 597 113<210 558 210 210> 773 129<200.5 239.5 400.5 439.5>
VStem: 80 130<113 300 412 597> 155 130<817.5 857.5> 355 130<817.5 857.5>
AnchorPoint: "Anchor-3" 365.669 710 basechar 0
AnchorPoint: "Anchor-2" 486.477 0 basechar 0
AnchorPoint: "Anchor-0" 241.477 0 basechar 0
LayerCount: 2
Fore
SplineSet
276.77734375 773 m 0xf6
 237.77734375 773 216.008789062 797 223.23828125 838 c 0
 230.115234375 877 260.5234375 902 299.5234375 902 c 0
 338.5234375 902 360.115234375 877 353.23828125 838 c 0
 346.008789062 797 315.77734375 773 276.77734375 773 c 0xf6
476.77734375 773 m 0
 437.77734375 773 416.008789062 797 423.23828125 838 c 0
 430.115234375 877 460.5234375 902 499.5234375 902 c 0
 538.5234375 902 560.115234375 877 553.23828125 838 c 0
 546.008789062 797 515.77734375 773 476.77734375 773 c 0
0.4765625 0 m 1xe8
 125.668945312 710 l 1
 603.668945312 710 l 1
 583.744140625 597 l 1
 235.744140625 597 l 1
 203.123046875 412 l 1
 539.123046875 412 l 1
 519.375 300 l 1
 183.375 300 l 1
 150.401367188 113 l 1
 506.401367188 113 l 1
 486.4765625 0 l 1
 0.4765625 0 l 1xe8
EndSplineSet
Validated: 33
EndChar

StartChar: Edotaccent.ss08
Encoding: 65562 -1 157
Width: 615
GlyphClass: 2
Flags: HMW
HStem: 0 113<210 566 210 566> 300 112<210 546 210 546> 597 113<210 558 210 210> 773 129<301.5 340.5>
VStem: 80 130<113 300 412 597> 254 133<817.5 857.5>
AnchorPoint: "Anchor-3" 365.669 710 basechar 0
AnchorPoint: "Anchor-2" 486.477 0 basechar 0
AnchorPoint: "Anchor-0" 241.477 0 basechar 0
LayerCount: 2
Fore
SplineSet
377.77734375 773 m 0
 338.77734375 773 315.008789062 797 322.23828125 838 c 0
 329.115234375 877 361.5234375 902 400.5234375 902 c 0
 439.5234375 902 462.115234375 877 455.23828125 838 c 0
 448.008789062 797 416.77734375 773 377.77734375 773 c 0
0.4765625 0 m 1
 125.668945312 710 l 1
 603.668945312 710 l 1
 583.744140625 597 l 1
 235.744140625 597 l 1
 203.123046875 412 l 1
 539.123046875 412 l 1
 519.375 300 l 1
 183.375 300 l 1
 150.401367188 113 l 1
 506.401367188 113 l 1
 486.4765625 0 l 1
 0.4765625 0 l 1
EndSplineSet
Validated: 33
EndChar

StartChar: Gdotaccent.ss08
Encoding: 65563 -1 158
Width: 726
GlyphClass: 2
Flags: HMW
HStem: -16 113<307.5 417> 0 21G<594 678 594 594> 265 101<376 551 376 678> 613 113<307 426> 773 129<355.5 395>
VStem: 43 134<280 426 280 460.5> 309 133<817.5 857.5> 551 127<265 265> 591 87
AnchorPoint: "Anchor-3" 422.079 710 basechar 0
AnchorPoint: "Anchor-0" 299.887 0 basechar 0
LayerCount: 2
Fore
SplineSet
433.1875 773 m 0xbe80
 394.1875 773 371.419921875 797 378.649414062 838 c 0
 385.526367188 877 416.934570312 902 455.934570312 902 c 0
 495.934570312 902 518.526367188 877 511.649414062 838 c 0
 504.419921875 797 473.1875 773 433.1875 773 c 0xbe80
286.065429688 -16 m 0
 83.0654296875 -16 -10.9560546875 137 27.306640625 354 c 0
 64.8642578125 567 215.900390625 726 423.900390625 726 c 0
 603.900390625 726 678.444335938 627 682.876953125 482 c 1
 545.642578125 475 l 1
 545.27734375 558 506.975585938 613 404.975585938 613 c 0
 268.975585938 613 186.698242188 498 161.306640625 354 c 0
 135.2109375 206 177.991210938 97 314.991210938 97 c 0
 419.991210938 97 497.862304688 170 519.614257812 265 c 1xb5
 344.614257812 265 l 1
 362.422851562 366 l 1
 664.422851562 366 l 1
 599.88671875 0 l 1
 515.88671875 0 l 1x7480
 528.75390625 107 l 1
 479.706054688 33 386.065429688 -16 286.065429688 -16 c 0
EndSplineSet
Validated: 33
EndChar

StartChar: Idieresis.ss08
Encoding: 65564 -1 159
Width: 290
GlyphClass: 2
Flags: HMW
HStem: 0 21G<80 80 80 210> 690 20G<80 210 210 210> 773 129<25.5 64.5 225.5 264.5>
VStem: -20 130<817.5 857.5> 80 130<0 710 0 710> 180 130<817.5 857.5>
AnchorPoint: "Anchor-3" 190.669 710 basechar 0
AnchorPoint: "Anchor-2" 130.477 0 basechar 0
AnchorPoint: "Anchor-0" 65.4766 0 basechar 0
LayerCount: 2
Fore
SplineSet
101.77734375 773 m 0xf4
 62.77734375 773 41.0087890625 797 48.23828125 838 c 0
 55.115234375 877 85.5234375 902 124.5234375 902 c 0
 163.5234375 902 185.115234375 877 178.23828125 838 c 0
 171.008789062 797 140.77734375 773 101.77734375 773 c 0xf4
301.77734375 773 m 0
 262.77734375 773 241.008789062 797 248.23828125 838 c 0
 255.115234375 877 285.5234375 902 324.5234375 902 c 0
 363.5234375 902 385.115234375 877 378.23828125 838 c 0
 371.008789062 797 340.77734375 773 301.77734375 773 c 0
0.4765625 0 m 1xe8
 125.668945312 710 l 1
 255.668945312 710 l 1
 130.4765625 0 l 1
 0.4765625 0 l 1xe8
EndSplineSet
Validated: 33
EndChar

StartChar: Idotaccent.ss08
Encoding: 65565 -1 160
Width: 290
GlyphClass: 2
Flags: HMW
HStem: 0 21G<80 80 80 210> 690 20G<80 210 210 210> 773 129<126 165.5>
VStem: 79 133<817.5 857.5> 80 130<0 710 0 710>
AnchorPoint: "Anchor-3" 190.669 710 basechar 0
AnchorPoint: "Anchor-2" 130.477 0 basechar 0
AnchorPoint: "Anchor-0" 65.4766 0 basechar 0
LayerCount: 2
Fore
SplineSet
202.77734375 773 m 0xf0
 162.77734375 773 140.008789062 797 147.23828125 838 c 0
 154.115234375 877 185.5234375 902 225.5234375 902 c 0
 264.5234375 902 287.115234375 877 280.23828125 838 c 0
 273.008789062 797 241.77734375 773 202.77734375 773 c 0xf0
0.4765625 0 m 1xe8
 125.668945312 710 l 1
 255.668945312 710 l 1
 130.4765625 0 l 1
 0.4765625 0 l 1xe8
EndSplineSet
Validated: 33
EndChar

StartChar: Odieresis.ss08
Encoding: 65566 -1 161
Width: 763
GlyphClass: 2
Flags: HMW
HStem: -16 113<317.5 445.5 317.5 487> 613 113<317.5 445.5> 773 129<261.5 301 461.5 501>
VStem: 43 134<273 435 273 468.5> 217 129<817.5 857.5> 417 129<817.5 857.5> 586 134<273 435>
AnchorPoint: "Anchor-3" 428.079 710 basechar 0
AnchorPoint: "Anchor-1" 366.483 355 basechar 0
AnchorPoint: "Anchor-0" 302.887 0 basechar 0
LayerCount: 2
Fore
SplineSet
339.1875 773 m 0
 300.1875 773 279.419921875 797 286.649414062 838 c 0
 293.526367188 877 322.934570312 902 361.934570312 902 c 0
 401.934570312 902 422.526367188 877 415.649414062 838 c 0
 408.419921875 797 379.1875 773 339.1875 773 c 0
539.1875 773 m 0
 500.1875 773 479.419921875 797 486.649414062 838 c 0
 493.526367188 877 522.934570312 902 561.934570312 902 c 0
 601.934570312 902 622.526367188 877 615.649414062 838 c 0
 608.419921875 797 579.1875 773 539.1875 773 c 0
300.065429688 -16 m 0
 89.0654296875 -16 -13.072265625 125 27.306640625 354 c 0
 67.685546875 583 219.900390625 726 430.900390625 726 c 0
 642.900390625 726 744.685546875 583 704.306640625 354 c 0
 663.927734375 125 512.065429688 -16 300.065429688 -16 c 0
319.991210938 97 m 0
 448.991210938 97 541.7421875 192 570.306640625 354 c 0
 598.872070312 516 539.975585938 613 410.975585938 613 c 0
 283.975585938 613 189.872070312 516 161.306640625 354 c 0
 132.7421875 192 192.991210938 97 319.991210938 97 c 0
EndSplineSet
Validated: 33
EndChar

StartChar: Udieresis.ss08
Encoding: 65567 -1 162
Width: 699
GlyphClass: 2
Flags: HMW
HStem: -16 113<300 398.5 300 436.5> 691 20G<65 195 195 195 504 634 634 634> 773 129<229.5 269 429.5 469>
VStem: 65 130<254 711> 185 129<817.5 857.5> 385 129<817.5 857.5> 504 130<254 711>
AnchorPoint: "Anchor-3" 396.079 710 basechar 0
AnchorPoint: "Anchor-2" 385.24 2 basechar 0
AnchorPoint: "Anchor-0" 270.887 0 basechar 0
LayerCount: 2
Fore
SplineSet
307.1875 773 m 0xec
 268.1875 773 247.419921875 797 254.649414062 838 c 0
 261.526367188 877 290.934570312 902 329.934570312 902 c 0
 369.934570312 902 390.526367188 877 383.649414062 838 c 0
 376.419921875 797 347.1875 773 307.1875 773 c 0xec
507.1875 773 m 0
 468.1875 773 447.419921875 797 454.649414062 838 c 0
 461.526367188 877 490.934570312 902 529.934570312 902 c 0
 569.934570312 902 590.526367188 877 583.649414062 838 c 0
 576.419921875 797 547.1875 773 507.1875 773 c 0
268.065429688 -16 m 0
 94.0654296875 -16 2.404296875 88 31.673828125 254 c 2
 112.255859375 711 l 1
 242.255859375 711 l 1
 161.673828125 254 l 2
 143.865234375 153 189.991210938 97 287.991210938 97 c 0
 386.991210938 97 452.865234375 153 470.673828125 254 c 2
 551.255859375 711 l 1
 681.255859375 711 l 1
 600.673828125 254 l 2xf2
 571.404296875 88 443.065429688 -16 268.065429688 -16 c 0
EndSplineSet
Validated: 33
EndChar

StartChar: Wdieresis.ss08
Encoding: 65568 -1 163
Width: 991
GlyphClass: 2
Flags: HMW
HStem: 0 21G<227 227 227 372 620 620 620 764> 0 180<227 304 304 304 304 372> 690 20G<37 174 174 174 435 556 556 556 816 954 954 954> 773 129<376 415.5 576 615.5>
VStem: 331 129<817.5 857.5> 531 129<817.5 857.5>
AnchorPoint: "Anchor-3" 541.669 710 basechar 0
AnchorPoint: "Anchor-0" 416.477 0 basechar 0
LayerCount: 2
Fore
SplineSet
452.77734375 773 m 0xbc
 412.77734375 773 392.008789062 797 399.23828125 838 c 0
 406.115234375 877 435.5234375 902 475.5234375 902 c 0
 514.5234375 902 535.115234375 877 528.23828125 838 c 0
 521.008789062 797 491.77734375 773 452.77734375 773 c 0xbc
652.77734375 773 m 0
 612.77734375 773 592.008789062 797 599.23828125 838 c 0
 606.115234375 877 635.5234375 902 675.5234375 902 c 0
 714.5234375 902 735.115234375 877 728.23828125 838 c 0
 721.008789062 797 691.77734375 773 652.77734375 773 c 0
147.4765625 0 m 1
 82.6689453125 710 l 1
 219.668945312 710 l 1
 256.215820312 180 l 1
 480.668945312 710 l 1
 601.668945312 710 l 1
 639.215820312 180 l 1x7c
 861.668945312 710 l 1
 999.668945312 710 l 1
 684.4765625 0 l 1
 540.4765625 0 l 1
 502.171875 486 l 1
 292.4765625 0 l 1
 147.4765625 0 l 1
EndSplineSet
Validated: 33
EndChar

StartChar: Ydieresis.ss08
Encoding: 65569 -1 164
Width: 613
GlyphClass: 2
Flags: HMW
HStem: 0 21G<241 241 241 372> 690 20G<-7 139 139 139 474 620 620 620> 773 129<187.5 226.5 387.5 426.5>
VStem: 142 130<817.5 857.5> 241 131<0 280 0 280> 342 130<817.5 857.5>
AnchorPoint: "Anchor-3" 352.669 710 basechar 0
AnchorPoint: "Anchor-0" 227.477 0 basechar 0
LayerCount: 2
Fore
SplineSet
263.77734375 773 m 0xf4
 224.77734375 773 203.008789062 797 210.23828125 838 c 0
 217.115234375 877 247.5234375 902 286.5234375 902 c 0
 325.5234375 902 347.115234375 877 340.23828125 838 c 0
 333.008789062 797 302.77734375 773 263.77734375 773 c 0xf4
463.77734375 773 m 0
 424.77734375 773 403.008789062 797 410.23828125 838 c 0
 417.115234375 877 447.5234375 902 486.5234375 902 c 0
 525.5234375 902 547.115234375 877 540.23828125 838 c 0
 533.008789062 797 502.77734375 773 463.77734375 773 c 0
161.4765625 0 m 1xe8
 210.84765625 280 l 1
 38.6689453125 710 l 1
 184.668945312 710 l 1
 299.41796875 408 l 1
 519.668945312 710 l 1
 665.668945312 710 l 1
 341.84765625 280 l 1
 292.4765625 0 l 1
 161.4765625 0 l 1xe8
EndSplineSet
Validated: 33
EndChar

StartChar: Zdotaccent.ss08
Encoding: 65570 -1 165
Width: 577
GlyphClass: 2
Flags: HMW
HStem: 0 113<182 550 182 550> 597 113<42 380 42 538> 773 129<278.5 317.5>
VStem: 231 133<817.5 857.5>
AnchorPoint: "Anchor-3" 342.669 710 basechar 0
AnchorPoint: "Anchor-0" 217.477 0 basechar 0
LayerCount: 2
Fore
SplineSet
354.77734375 773 m 0
 315.77734375 773 292.008789062 797 299.23828125 838 c 0
 306.115234375 877 338.5234375 902 377.5234375 902 c 0
 416.5234375 902 439.115234375 877 432.23828125 838 c 0
 425.008789062 797 393.77734375 773 354.77734375 773 c 0
-52.5234375 0 m 1
 -32.7744140625 112 l 1
 405.744140625 597 l 1
 67.744140625 597 l 1
 87.6689453125 710 l 1
 583.668945312 710 l 1
 563.919921875 598 l 1
 122.401367188 113 l 1
 490.401367188 113 l 1
 470.4765625 0 l 1
 -52.5234375 0 l 1
EndSplineSet
Validated: 33
EndChar

StartChar: Idieresis.ss05.ss08
Encoding: 65571 -1 166
Width: 457
GlyphClass: 2
Flags: HMW
HStem: 0 113<43 163 43 163 294 414> 597 113<49 163 49 408 294 294 294 408> 773 129<108.5 147.5 308.5 347.5>
VStem: 63 130<817.5 857.5> 163 131<113 597 113 597> 263 130<817.5 857.5>
AnchorPoint: "Anchor-3" 273.669 710 basechar 0
AnchorPoint: "Anchor-2" 334.477 0 basechar 0
AnchorPoint: "Anchor-0" 148.477 0 basechar 0
LayerCount: 2
Fore
SplineSet
184.77734375 773 m 0xf4
 145.77734375 773 124.008789062 797 131.23828125 838 c 0
 138.115234375 877 168.5234375 902 207.5234375 902 c 0
 246.5234375 902 268.115234375 877 261.23828125 838 c 0
 254.008789062 797 223.77734375 773 184.77734375 773 c 0xf4
384.77734375 773 m 0
 345.77734375 773 324.008789062 797 331.23828125 838 c 0
 338.115234375 877 368.5234375 902 407.5234375 902 c 0
 446.5234375 902 468.115234375 877 461.23828125 838 c 0
 454.008789062 797 423.77734375 773 384.77734375 773 c 0
-36.5234375 0 m 1
 -16.5986328125 113 l 1
 103.401367188 113 l 1
 188.744140625 597 l 1
 74.744140625 597 l 1
 94.6689453125 710 l 1
 453.668945312 710 l 1
 433.744140625 597 l 1
 319.744140625 597 l 1
 234.401367188 113 l 1xc8
 354.401367188 113 l 1
 334.4765625 0 l 1
 -36.5234375 0 l 1
EndSplineSet
Validated: 33
EndChar

StartChar: Idotaccent.ss05.ss08
Encoding: 65572 -1 167
Width: 457
GlyphClass: 2
Flags: HMW
HStem: 0 113<43 163 43 163 294 414> 597 113<49 163 49 408 294 294 294 408> 773 129<209.5 248.5>
VStem: 162 133<817.5 857.5> 163 131<113 597 113 597>
AnchorPoint: "Anchor-3" 273.669 710 basechar 0
AnchorPoint: "Anchor-2" 334.477 0 basechar 0
AnchorPoint: "Anchor-0" 148.477 0 basechar 0
LayerCount: 2
Fore
SplineSet
285.77734375 773 m 0xf0
 246.77734375 773 223.008789062 797 230.23828125 838 c 0
 237.115234375 877 269.5234375 902 308.5234375 902 c 0
 347.5234375 902 370.115234375 877 363.23828125 838 c 0
 356.008789062 797 324.77734375 773 285.77734375 773 c 0xf0
-36.5234375 0 m 1
 -16.5986328125 113 l 1
 103.401367188 113 l 1
 188.744140625 597 l 1
 74.744140625 597 l 1
 94.6689453125 710 l 1
 453.668945312 710 l 1
 433.744140625 597 l 1
 319.744140625 597 l 1
 234.401367188 113 l 1xc8
 354.401367188 113 l 1
 334.4765625 0 l 1
 -36.5234375 0 l 1
EndSplineSet
Validated: 33
EndChar

StartChar: Gdotaccent.ss06.ss08
Encoding: 65573 -1 168
Width: 716
GlyphClass: 2
Flags: HMW
HStem: -16 113<306 428.5 306 469> 265 101<376 551 376 678> 613 113<306.5 427.5> 773 129<356.5 396>
VStem: 43 134<279.5 426 279.5 459> 310 133<817.5 857.5> 551 127<265 265>
AnchorPoint: "Anchor-3" 423.079 710 basechar 0
AnchorPoint: "Anchor-0" 299.887 0 basechar 0
LayerCount: 2
Fore
SplineSet
434.1875 773 m 0
 395.1875 773 372.419921875 797 379.649414062 838 c 0
 386.526367188 877 417.934570312 902 456.934570312 902 c 0
 496.934570312 902 519.526367188 877 512.649414062 838 c 0
 505.419921875 797 474.1875 773 434.1875 773 c 0
293.065429688 -16 m 0
 75.0654296875 -16 -9.5458984375 145 27.306640625 354 c 0
 64.3359375 564 212.900390625 726 427.900390625 726 c 0
 596.900390625 726 680.326171875 632 682.876953125 482 c 1
 545.642578125 475 l 1
 544.924804688 556 508.975585938 613 405.975585938 613 c 0
 266.975585938 613 186.698242188 498 161.306640625 354 c 0
 135.034179688 205 178.991210938 97 310.991210938 97 c 0
 423.991210938 97 497.333984375 167 519.614257812 265 c 1
 344.614257812 265 l 1
 362.422851562 366 l 1
 664.422851562 366 l 1
 656.840820312 323 l 2
 617.872070312 102 483.065429688 -16 293.065429688 -16 c 0
EndSplineSet
Validated: 33
EndChar

StartChar: A_I.dlig
Encoding: 65574 -1 169
Width: 1166
GlyphClass: 3
Flags: HMW
HStem: 0 113<554 872 752 872 1003 1123 752 872> 168 111<252 457 252 495 214 457> 597 113<758 872 1003 1003 1003 1117>
VStem: 872 131<113 597 113 597>
AnchorPoint: "Anchor-8" 417.596 710 baselig 0
AnchorPoint: "Anchor-7" 627.404 0 baselig 0
AnchorPoint: "Anchor-5" 292.404 0 baselig 0
AnchorPoint: "Anchor-8" 999.596 710 baselig 1
AnchorPoint: "Anchor-5" 874.404 0 baselig 1
AnchorPoint: "Anchor-7" 1060.4 0 baselig 1
LayerCount: 2
Fore
SplineSet
-43.595703125 0 m 1
 337.595703125 710 l 1
 496.595703125 710 l 1
 627.404296875 0 l 1
 491.404296875 0 l 1
 462.026367188 168 l 1
 181.026367188 168 l 1
 92.404296875 0 l 1
 -43.595703125 0 l 1
689.404296875 0 m 1
 709.329101562 113 l 1
 829.329101562 113 l 1
 914.670898438 597 l 1
 800.670898438 597 l 1
 820.595703125 710 l 1
 1179.59570312 710 l 1
 1159.67089844 597 l 1
 1045.67089844 597 l 1
 960.329101562 113 l 1
 1080.32910156 113 l 1
 1060.40429688 0 l 1
 689.404296875 0 l 1
238.599609375 279 m 1
 443.599609375 279 l 1
 394.497070312 579 l 1
 238.599609375 279 l 1
EndSplineSet
Validated: 1
Ligature2: "'dlig' Discretionary Ligatures in Latin lookup 32 subtable" A I
EndChar

StartChar: U_I.dlig
Encoding: 65575 -1 170
Width: 1155
GlyphClass: 3
Flags: HMW
HStem: -16 113<300 398.5 300 436.5> 0 113<742 862 742 862 992 1112> 597 113<748 862 748 1106 992 992 992 1106>
VStem: 65 130<254 711> 504 130<254 711> 862 130<113 597 113 597>
AnchorPoint: "Anchor-8" 412.919 710 baselig 0
AnchorPoint: "Anchor-7" 402.079 2 baselig 0
AnchorPoint: "Anchor-5" 287.727 0 baselig 0
AnchorPoint: "Anchor-8" 990.919 710 baselig 1
AnchorPoint: "Anchor-5" 865.727 0 baselig 1
AnchorPoint: "Anchor-7" 1050.73 0 baselig 1
LayerCount: 2
Fore
SplineSet
284.905273438 -16 m 0xbc
 110.905273438 -16 19.2431640625 88 48.513671875 254 c 2
 129.094726562 711 l 1
 259.094726562 711 l 1
 178.513671875 254 l 2
 160.704101562 153 206.830078125 97 304.830078125 97 c 0
 403.830078125 97 469.704101562 153 487.513671875 254 c 2
 568.094726562 711 l 1
 698.094726562 711 l 1
 617.513671875 254 l 2
 588.243164062 88 459.905273438 -16 284.905273438 -16 c 0xbc
680.7265625 0 m 1x7c
 700.651367188 113 l 1
 820.651367188 113 l 1
 905.993164062 597 l 1
 791.993164062 597 l 1
 811.918945312 710 l 1
 1169.91894531 710 l 1
 1149.99316406 597 l 1
 1035.99316406 597 l 1
 950.651367188 113 l 1
 1070.65136719 113 l 1
 1050.7265625 0 l 1
 680.7265625 0 l 1x7c
EndSplineSet
Validated: 33
Ligature2: "'dlig' Discretionary Ligatures in Latin lookup 32 subtable" U I
EndChar

StartChar: a
Encoding: 97 97 171
Width: 580
GlyphClass: 2
Flags: HMW
HStem: -12 93<225.5 268.5> -4 97<489 565> 447 99<256 321>
VStem: 39 133<125 164.5 125 180> 390 128<216 246 246 246>
AnchorPoint: "Anchor-3" 337.079 534 basechar 0
AnchorPoint: "Anchor-2" 517.921 0 basechar 0
AnchorPoint: "Anchor-0" 236.921 0 basechar 0
LayerCount: 2
Fore
SplineSet
175.8046875 -12 m 0xa8
 63.8046875 -12 -0.849609375 41 15.548828125 134 c 0
 31.7705078125 226 97.41015625 275 218.465820312 298 c 2
 401.637695312 333 l 1
 414.862304688 408 386.739257812 447 318.739257812 447 c 0
 256.739257812 447 216.625 418 195.103515625 364 c 1
 66.162109375 370 l 1
 106.91015625 482 204.1953125 546 336.1953125 546 c 0
 488.1953125 546 553.088867188 466 528.05078125 324 c 2
 493.842773438 130 l 2
 488.729492188 101 497.319335938 93 517.319335938 93 c 2
 534.319335938 93 l 1
 517.920898438 0 l 1
 508.568359375 -2 488.215820312 -4 470.215820312 -4 c 0x78
 412.215820312 -4 372.91796875 17 374.379882812 82 c 1
 337.329101562 25 262.8046875 -12 175.8046875 -12 c 0xa8
218.203125 81 m 0
 303.203125 81 366.724609375 135 381.006835938 216 c 2
 386.296875 246 l 1
 243.360351562 218 l 2
 184.419921875 207 157.188476562 183 150.6640625 146 c 0xb8
 143.258789062 104 167.203125 81 218.203125 81 c 0
EndSplineSet
Validated: 33
Substitution2: "'ss02' Style Set 2 in Latin lookup 35 subtable" a.ss02
Substitution2: "'ss01' Style Set 1 in Latin lookup 34 subtable" a.ss01
Substitution2: "Single Substitution lookup 27 subtable" ordfeminine
AlternateSubs2: "'aalt' Access All Alternates in Latin lookup 1 subtable" ordfeminine a.ss01 a.ss02
EndChar

StartChar: aacute
Encoding: 225 225 172
Width: 580
GlyphClass: 2
Flags: HMW
HStem: -12 93<225.5 268.5> -4 97<489 565> 447 99<256 321> 594 140<233 422 294 332>
VStem: 39 133<125 164.5 125 180> 390 128<216 246 246 246>
AnchorPoint: "Anchor-3" 320.505 534 basechar 0
AnchorPoint: "Anchor-2" 501.346 0 basechar 0
AnchorPoint: "Anchor-0" 220.346 0 basechar 0
LayerCount: 2
Fore
SplineSet
274.083984375 594 m 1xb4
 359.76953125 734 l 1
 487.76953125 734 l 1
 373.083984375 594 l 1
 274.083984375 594 l 1xb4
159.23046875 -12 m 0
 47.23046875 -12 -17.4248046875 41 -1.0263671875 134 c 0
 15.1962890625 226 80.8359375 275 201.891601562 298 c 2
 385.0625 333 l 1
 398.287109375 408 370.1640625 447 302.1640625 447 c 0
 240.1640625 447 200.05078125 418 178.529296875 364 c 1
 49.5869140625 370 l 1
 90.3359375 482 187.620117188 546 319.620117188 546 c 0
 471.620117188 546 536.514648438 466 511.475585938 324 c 2
 477.268554688 130 l 2
 472.155273438 101 480.744140625 93 500.744140625 93 c 2
 517.744140625 93 l 1
 501.345703125 0 l 1
 491.993164062 -2 471.640625 -4 453.640625 -4 c 0x7c
 395.640625 -4 356.34375 17 357.8046875 82 c 1
 320.75390625 25 246.23046875 -12 159.23046875 -12 c 0
201.62890625 81 m 0
 286.62890625 81 350.150390625 135 364.432617188 216 c 2
 369.72265625 246 l 1
 226.78515625 218 l 2
 167.845703125 207 140.614257812 183 134.08984375 146 c 0xbc
 126.68359375 104 150.62890625 81 201.62890625 81 c 0
EndSplineSet
Validated: 33
Substitution2: "'ss02' Style Set 2 in Latin lookup 35 subtable" aacute.ss02
Substitution2: "'ss01' Style Set 1 in Latin lookup 34 subtable" aacute.ss01
AlternateSubs2: "'aalt' Access All Alternates in Latin lookup 1 subtable" aacute.ss01 aacute.ss02
EndChar

StartChar: abreve
Encoding: 259 259 173
Width: 580
GlyphClass: 2
Flags: HMW
HStem: -12 93<225.5 268.5> -4 97<489 565> 447 99<256 321> 595 76<269 311 269 335>
VStem: 39 133<125 164.5 125 180> 390 128<216 246 246 246>
AnchorPoint: "Anchor-3" 320.328 534 basechar 0
AnchorPoint: "Anchor-2" 501.17 0 basechar 0
AnchorPoint: "Anchor-0" 220.17 0 basechar 0
LayerCount: 2
Fore
SplineSet
331.083984375 595 m 0xb4
 242.083984375 595 193.4296875 648 204.946289062 736 c 1
 281.946289062 736 l 1
 279.834960938 690 302.485351562 671 344.485351562 671 c 0
 386.485351562 671 416.834960938 690 429.946289062 736 c 1
 506.946289062 736 l 1
 487.4296875 648 421.083984375 595 331.083984375 595 c 0xb4
159.053710938 -12 m 0
 47.0537109375 -12 -17.6005859375 41 -1.2021484375 134 c 0
 15.01953125 226 80.6591796875 275 201.71484375 298 c 2
 384.88671875 333 l 1
 398.111328125 408 369.98828125 447 301.98828125 447 c 0
 239.98828125 447 199.874023438 418 178.352539062 364 c 1
 49.41015625 370 l 1
 90.1591796875 482 187.444335938 546 319.444335938 546 c 0
 471.444335938 546 536.337890625 466 511.299804688 324 c 2
 477.091796875 130 l 2
 471.978515625 101 480.568359375 93 500.568359375 93 c 2
 517.568359375 93 l 1
 501.169921875 0 l 1
 491.817382812 -2 471.463867188 -4 453.463867188 -4 c 0x7c
 395.463867188 -4 356.166992188 17 357.62890625 82 c 1
 320.578125 25 246.053710938 -12 159.053710938 -12 c 0
201.452148438 81 m 0
 286.452148438 81 349.973632812 135 364.255859375 216 c 2
 369.545898438 246 l 1
 226.609375 218 l 2
 167.668945312 207 140.4375 183 133.913085938 146 c 0xbc
 126.5078125 104 150.452148438 81 201.452148438 81 c 0
EndSplineSet
Validated: 33
Substitution2: "'ss02' Style Set 2 in Latin lookup 35 subtable" abreve.ss02
Substitution2: "'ss01' Style Set 1 in Latin lookup 34 subtable" abreve.ss01
AlternateSubs2: "'aalt' Access All Alternates in Latin lookup 1 subtable" abreve.ss01 abreve.ss02
EndChar

StartChar: uni01CE
Encoding: 462 462 174
Width: 580
GlyphClass: 2
Flags: HMW
HStem: -12 93<225.5 268.5> -4 97<489 565> 447 99<256 321> 594 146<133 354 133 227>
VStem: 39 133<125 164.5 125 180> 390 128<216 246 246 246>
AnchorPoint: "Anchor-3" 319.976 534 basechar 0
AnchorPoint: "Anchor-2" 500.817 0 basechar 0
AnchorPoint: "Anchor-0" 219.817 0 basechar 0
LayerCount: 2
Fore
SplineSet
199.298828125 740 m 1xb4
 292.298828125 740 l 1
 340.60546875 651 l 1
 421.298828125 740 l 1
 514.298828125 740 l 1
 394.555664062 594 l 1
 267.555664062 594 l 1
 199.298828125 740 l 1xb4
158.701171875 -12 m 0
 46.701171875 -12 -17.9541015625 41 -1.5556640625 134 c 0
 14.6669921875 226 80.306640625 275 201.362304688 298 c 2
 384.534179688 333 l 1
 397.758789062 408 369.634765625 447 301.634765625 447 c 0
 239.634765625 447 199.521484375 418 178 364 c 1
 49.0576171875 370 l 1
 89.806640625 482 187.091796875 546 319.091796875 546 c 0
 471.091796875 546 535.985351562 466 510.947265625 324 c 2
 476.739257812 130 l 2
 471.625976562 101 480.215820312 93 500.215820312 93 c 2
 517.215820312 93 l 1
 500.817382812 0 l 1
 491.463867188 -2 471.111328125 -4 453.111328125 -4 c 0x7c
 395.111328125 -4 355.814453125 17 357.275390625 82 c 1
 320.225585938 25 245.701171875 -12 158.701171875 -12 c 0
201.099609375 81 m 0
 286.099609375 81 349.62109375 135 363.903320312 216 c 2
 369.193359375 246 l 1
 226.255859375 218 l 2
 167.31640625 207 140.084960938 183 133.560546875 146 c 0xbc
 126.155273438 104 150.099609375 81 201.099609375 81 c 0
EndSplineSet
Validated: 33
Substitution2: "'ss02' Style Set 2 in Latin lookup 35 subtable" uni01CE.ss02
Substitution2: "'ss01' Style Set 1 in Latin lookup 34 subtable" uni01CE.ss01
AlternateSubs2: "'aalt' Access All Alternates in Latin lookup 1 subtable" uni01CE.ss01 uni01CE.ss02
EndChar

StartChar: acircumflex
Encoding: 226 226 175
Width: 580
GlyphClass: 2
Flags: HMW
HStem: -12 93<225.5 268.5> -4 97<489 565> 447 99<256 321> 594 146<133 354 133 354 227 355 227 448>
VStem: 39 133<125 164.5 125 180> 390 128<216 246 246 246>
AnchorPoint: "Anchor-3" 319.976 534 basechar 0
AnchorPoint: "Anchor-2" 500.817 0 basechar 0
AnchorPoint: "Anchor-0" 219.817 0 basechar 0
LayerCount: 2
Fore
SplineSet
173.555664062 594 m 1xb4
 293.298828125 740 l 1
 420.298828125 740 l 1
 488.555664062 594 l 1
 395.555664062 594 l 1
 346.248046875 683 l 1
 266.555664062 594 l 1
 173.555664062 594 l 1xb4
158.701171875 -12 m 0
 46.701171875 -12 -17.9541015625 41 -1.5556640625 134 c 0
 14.6669921875 226 80.306640625 275 201.362304688 298 c 2
 384.534179688 333 l 1
 397.758789062 408 369.634765625 447 301.634765625 447 c 0
 239.634765625 447 199.521484375 418 178 364 c 1
 49.0576171875 370 l 1
 89.806640625 482 187.091796875 546 319.091796875 546 c 0
 471.091796875 546 535.985351562 466 510.947265625 324 c 2
 476.739257812 130 l 2
 471.625976562 101 480.215820312 93 500.215820312 93 c 2
 517.215820312 93 l 1
 500.817382812 0 l 1
 491.463867188 -2 471.111328125 -4 453.111328125 -4 c 0x7c
 395.111328125 -4 355.814453125 17 357.275390625 82 c 1
 320.225585938 25 245.701171875 -12 158.701171875 -12 c 0
201.099609375 81 m 0
 286.099609375 81 349.62109375 135 363.903320312 216 c 2
 369.193359375 246 l 1
 226.255859375 218 l 2
 167.31640625 207 140.084960938 183 133.560546875 146 c 0xbc
 126.155273438 104 150.099609375 81 201.099609375 81 c 0
EndSplineSet
Validated: 33
Substitution2: "'ss02' Style Set 2 in Latin lookup 35 subtable" acircumflex.ss02
Substitution2: "'ss01' Style Set 1 in Latin lookup 34 subtable" acircumflex.ss01
AlternateSubs2: "'aalt' Access All Alternates in Latin lookup 1 subtable" acircumflex.ss01 acircumflex.ss02
EndChar

StartChar: adieresis
Encoding: 228 228 176
Width: 580
GlyphClass: 2
Flags: HMW
HStem: -12 93<225.5 268.5> -4 97<489 565> 447 99<256 321> 604 113<127 252 127 252 329 453 127 329>
VStem: 39 133<125 164.5 125 180> 127 125<604 717> 329 124<604 717 604 717> 390 128<216 246 246 246>
AnchorPoint: "Anchor-3" 322.003 534 basechar 0
AnchorPoint: "Anchor-2" 502.845 0 basechar 0
AnchorPoint: "Anchor-0" 221.845 0 basechar 0
LayerCount: 2
Fore
SplineSet
171.346679688 604 m 1xb6
 191.271484375 717 l 1
 316.271484375 717 l 1
 296.346679688 604 l 1
 171.346679688 604 l 1xb6
373.346679688 604 m 1
 393.271484375 717 l 1
 517.271484375 717 l 1
 497.346679688 604 l 1
 373.346679688 604 l 1
160.728515625 -12 m 0
 48.728515625 -12 -15.92578125 41 0.47265625 134 c 0
 16.6943359375 226 82.3349609375 275 203.390625 298 c 2
 386.561523438 333 l 1
 399.786132812 408 371.663085938 447 303.663085938 447 c 0
 241.663085938 447 201.549804688 418 180.02734375 364 c 1
 51.0859375 370 l 1
 91.833984375 482 189.119140625 546 321.119140625 546 c 0
 473.119140625 546 538.012695312 466 512.974609375 324 c 2
 478.767578125 130 l 2
 473.653320312 101 482.243164062 93 502.243164062 93 c 2
 519.243164062 93 l 1
 502.844726562 0 l 1
 493.4921875 -2 473.139648438 -4 455.139648438 -4 c 0x79
 397.139648438 -4 357.842773438 17 359.303710938 82 c 1
 322.252929688 25 247.728515625 -12 160.728515625 -12 c 0
203.126953125 81 m 0
 288.126953125 81 351.6484375 135 365.931640625 216 c 2
 371.220703125 246 l 1
 228.284179688 218 l 2
 169.344726562 207 142.112304688 183 135.588867188 146 c 0xb9
 128.182617188 104 152.126953125 81 203.126953125 81 c 0
EndSplineSet
Validated: 33
Substitution2: "'ss08' Style Set 8 in Latin lookup 41 subtable" adieresis.ss08
Substitution2: "'ss02' Style Set 2 in Latin lookup 35 subtable" adieresis.ss02
Substitution2: "'ss01' Style Set 1 in Latin lookup 34 subtable" adieresis.ss01
AlternateSubs2: "'aalt' Access All Alternates in Latin lookup 1 subtable" adieresis.ss01 adieresis.ss02 adieresis.ss08
EndChar

StartChar: agrave
Encoding: 224 224 177
Width: 580
GlyphClass: 2
Flags: HMW
HStem: -12 93<225.5 268.5> -4 97<489 565> 447 99<256 321> 599 141<248 248 248 287 158 348>
VStem: 39 133<125 164.5 125 180> 390 128<216 246 246 246>
AnchorPoint: "Anchor-3" 319.976 534 basechar 0
AnchorPoint: "Anchor-2" 500.817 0 basechar 0
AnchorPoint: "Anchor-0" 219.817 0 basechar 0
LayerCount: 2
Fore
SplineSet
289.436523438 599 m 1xb4
 224.298828125 740 l 1
 353.298828125 740 l 1
 389.436523438 599 l 1
 289.436523438 599 l 1xb4
158.701171875 -12 m 0
 46.701171875 -12 -17.9541015625 41 -1.5556640625 134 c 0
 14.6669921875 226 80.306640625 275 201.362304688 298 c 2
 384.534179688 333 l 1
 397.758789062 408 369.634765625 447 301.634765625 447 c 0
 239.634765625 447 199.521484375 418 178 364 c 1
 49.0576171875 370 l 1
 89.806640625 482 187.091796875 546 319.091796875 546 c 0
 471.091796875 546 535.985351562 466 510.947265625 324 c 2
 476.739257812 130 l 2
 471.625976562 101 480.215820312 93 500.215820312 93 c 2
 517.215820312 93 l 1
 500.817382812 0 l 1
 491.463867188 -2 471.111328125 -4 453.111328125 -4 c 0x7c
 395.111328125 -4 355.814453125 17 357.275390625 82 c 1
 320.225585938 25 245.701171875 -12 158.701171875 -12 c 0
201.099609375 81 m 0
 286.099609375 81 349.62109375 135 363.903320312 216 c 2
 369.193359375 246 l 1
 226.255859375 218 l 2
 167.31640625 207 140.084960938 183 133.560546875 146 c 0xbc
 126.155273438 104 150.099609375 81 201.099609375 81 c 0
EndSplineSet
Validated: 33
Substitution2: "'ss02' Style Set 2 in Latin lookup 35 subtable" agrave.ss02
Substitution2: "'ss01' Style Set 1 in Latin lookup 34 subtable" agrave.ss01
AlternateSubs2: "'aalt' Access All Alternates in Latin lookup 1 subtable" agrave.ss01 agrave.ss02
EndChar

StartChar: amacron
Encoding: 257 257 178
Width: 580
GlyphClass: 2
Flags: HMW
HStem: -12 93<225.5 268.5> -4 97<489 565> 447 99<256 321> 613 97<146 435 146 435>
VStem: 39 133<125 164.5 125 180> 146 289<613 710 613 710> 390 128<216 246 246 246>
AnchorPoint: "Anchor-3" 322.62 534 basechar 0
AnchorPoint: "Anchor-2" 503.462 0 basechar 0
AnchorPoint: "Anchor-0" 222.462 0 basechar 0
LayerCount: 2
Fore
SplineSet
192.55078125 613 m 1xb4
 209.654296875 710 l 1
 498.654296875 710 l 1
 481.55078125 613 l 1
 192.55078125 613 l 1xb4
161.345703125 -12 m 0
 49.345703125 -12 -15.30859375 41 1.08984375 134 c 0
 17.3115234375 226 82.9521484375 275 204.006835938 298 c 2
 387.178710938 333 l 1
 400.403320312 408 372.280273438 447 304.280273438 447 c 0
 242.280273438 447 202.166992188 418 180.64453125 364 c 1
 51.703125 370 l 1
 92.451171875 482 189.736328125 546 321.736328125 546 c 0
 473.736328125 546 538.629882812 466 513.591796875 324 c 2
 479.384765625 130 l 2
 474.270507812 101 482.860351562 93 502.860351562 93 c 2
 519.860351562 93 l 1
 503.461914062 0 l 1
 494.109375 -2 473.756835938 -4 455.756835938 -4 c 0x7a
 397.756835938 -4 358.458984375 17 359.920898438 82 c 1
 322.870117188 25 248.345703125 -12 161.345703125 -12 c 0
203.744140625 81 m 0
 288.744140625 81 352.265625 135 366.548828125 216 c 2
 371.837890625 246 l 1
 228.901367188 218 l 2
 169.961914062 207 142.729492188 183 136.206054688 146 c 0xba
 128.799804688 104 152.744140625 81 203.744140625 81 c 0
EndSplineSet
Validated: 33
Substitution2: "'ss02' Style Set 2 in Latin lookup 35 subtable" amacron.ss02
Substitution2: "'ss01' Style Set 1 in Latin lookup 34 subtable" amacron.ss01
AlternateSubs2: "'aalt' Access All Alternates in Latin lookup 1 subtable" amacron.ss01 amacron.ss02
EndChar

StartChar: aogonek
Encoding: 261 261 179
Width: 580
GlyphClass: 2
Flags: HMW
HStem: -215 83<468 537.5> -12 93<225.5 268.5> 447 99<256 321>
VStem: 39 133<125 164.5 125 180> 390 128<216 246 246 246> 395 107<-115.5 -114.5> 407 111
AnchorPoint: "Anchor-3" 354.977 534 basechar 0
AnchorPoint: "Anchor-2" 535.818 0 basechar 0
AnchorPoint: "Anchor-0" 254.818 0 basechar 0
LayerCount: 2
Fore
SplineSet
193.702148438 -12 m 0xe2
 81.7021484375 -12 17.046875 41 33.4453125 134 c 0
 49.66796875 226 115.307617188 275 236.36328125 298 c 2
 419.53515625 333 l 1
 432.759765625 408 404.635742188 447 336.635742188 447 c 0
 274.635742188 447 234.522460938 418 213.000976562 364 c 1
 84.05859375 370 l 1
 124.807617188 482 222.092773438 546 354.092773438 546 c 0
 506.092773438 546 570.986328125 466 545.948242188 324 c 2
 511.740234375 130 l 2xf8
 506.626953125 101 515.215820312 93 535.215820312 93 c 2
 552.215820312 93 l 1
 535.818359375 0 l 1
 496.412109375 -42 l 2
 470.122070312 -72 456.772460938 -91 453.951171875 -107 c 0
 450.953125 -124 461.54296875 -132 476.54296875 -132 c 0
 493.54296875 -132 512.424804688 -127 524.834960938 -119 c 1
 538.4921875 -189 l 1
 519.0234375 -203 474.907226562 -215 433.907226562 -215 c 0
 367.907226562 -215 332.844726562 -187 342.190429688 -134 c 0xe4
 349.06640625 -95 383.120117188 -55 414.291015625 -20 c 2
 436.5234375 4 l 1
 408.462890625 15 391.694335938 39 392.276367188 82 c 1
 355.225585938 25 280.702148438 -12 193.702148438 -12 c 0xe2
236.100585938 81 m 0
 321.100585938 81 384.622070312 135 398.904296875 216 c 2
 404.194335938 246 l 1
 261.256835938 218 l 2
 202.317382812 207 175.0859375 183 168.561523438 146 c 0
 161.15625 104 185.100585938 81 236.100585938 81 c 0
EndSplineSet
Validated: 33
Substitution2: "'ss02' Style Set 2 in Latin lookup 35 subtable" aogonek.ss02
Substitution2: "'ss01' Style Set 1 in Latin lookup 34 subtable" aogonek.ss01
AlternateSubs2: "'aalt' Access All Alternates in Latin lookup 1 subtable" aogonek.ss01 aogonek.ss02
EndChar

StartChar: aring
Encoding: 229 229 180
Width: 580
GlyphClass: 2
Flags: HMW
HStem: -12 93<225.5 268.5> -4 97<489 565> 447 99<256 321> 575 60<279 301.5 279 318> 712 60<279 301.5>
VStem: 39 133<125 164.5 125 180> 191 61<662.5 685> 329 61<662.5 685> 390 128<216 246 246 246>
AnchorPoint: "Anchor-3" 317.154 534 basechar 0
AnchorPoint: "Anchor-2" 497.996 0 basechar 0
AnchorPoint: "Anchor-0" 216.996 0 basechar 0
LayerCount: 2
Fore
SplineSet
324.383789062 575 m 0x9b
 268.383789062 575 232.965820312 618 242.83984375 674 c 0
 252.71484375 730 303.120117188 772 359.120117188 772 c 0
 415.120117188 772 451.71484375 730 441.83984375 674 c 0
 431.965820312 618 380.383789062 575 324.383789062 575 c 0x9b
334.963867188 635 m 0
 357.963867188 635 376.784179688 651 380.83984375 674 c 0
 384.719726562 696 371.541015625 712 348.541015625 712 c 0
 326.541015625 712 307.719726562 696 303.83984375 674 c 0
 299.784179688 651 312.963867188 635 334.963867188 635 c 0
155.879882812 -12 m 0
 43.8798828125 -12 -20.7744140625 41 -4.3759765625 134 c 0
 11.845703125 226 77.4853515625 275 198.541015625 298 c 2
 381.712890625 333 l 1
 394.9375 408 366.813476562 447 298.813476562 447 c 0
 236.813476562 447 196.700195312 418 175.178710938 364 c 1
 46.236328125 370 l 1
 86.9853515625 482 184.270507812 546 316.270507812 546 c 0
 468.270507812 546 533.1640625 466 508.125976562 324 c 2
 473.91796875 130 l 2
 468.8046875 101 477.39453125 93 497.39453125 93 c 2
 514.39453125 93 l 1
 497.99609375 0 l 1
 488.643554688 -2 468.290039062 -4 450.290039062 -4 c 0x6c80
 392.290039062 -4 352.993164062 17 354.454101562 82 c 1
 317.404296875 25 242.879882812 -12 155.879882812 -12 c 0
198.278320312 81 m 0
 283.278320312 81 346.799804688 135 361.08203125 216 c 2
 366.372070312 246 l 1
 223.434570312 218 l 2
 164.495117188 207 137.263671875 183 130.739257812 146 c 0xac80
 123.333984375 104 147.278320312 81 198.278320312 81 c 0
EndSplineSet
Validated: 33
Substitution2: "'ss02' Style Set 2 in Latin lookup 35 subtable" aring.ss02
Substitution2: "'ss01' Style Set 1 in Latin lookup 34 subtable" aring.ss01
AlternateSubs2: "'aalt' Access All Alternates in Latin lookup 1 subtable" aring.ss01 aring.ss02
EndChar

StartChar: atilde
Encoding: 227 227 181
Width: 580
GlyphClass: 2
Flags: HMW
HStem: -12 93<225.5 268.5> -4 97<489 565> 447 99<256 321> 597 134<123 245 123 245> 604 78<344 361.5 344 381> 604 136<332.5 457> 653 78<219.5 238>
VStem: 39 133<125 164.5 125 180> 123 67<597 597> 389 68<740 740> 390 128<216 246 246 246>
AnchorPoint: "Anchor-3" 319.976 534 basechar 0
AnchorPoint: "Anchor-2" 500.817 0 basechar 0
AnchorPoint: "Anchor-0" 219.817 0 basechar 0
LayerCount: 2
Fore
SplineSet
389.318359375 604 m 0xa440
 360.318359375 604 341.729492188 612 320.255859375 632 c 0
 305.900390625 647 296.958984375 653 280.958984375 653 c 0xa2a0
 259.958984375 653 241.842773438 641 231.083984375 597 c 1xb0a0
 164.083984375 597 l 1
 179.895507812 681 229.711914062 731 293.711914062 731 c 0xa2a0
 325.711914062 731 346.125 722 367.598632812 702 c 0
 382.954101562 687 393.072265625 682 407.072265625 682 c 0xa840
 428.072265625 682 444.1875 694 455.298828125 740 c 1
 523.298828125 740 l 1
 505.311523438 655 457.318359375 604 389.318359375 604 c 0xa440
158.701171875 -12 m 0
 46.701171875 -12 -17.9541015625 41 -1.5556640625 134 c 0
 14.6669921875 226 80.306640625 275 201.362304688 298 c 2
 384.534179688 333 l 1
 397.758789062 408 369.634765625 447 301.634765625 447 c 0
 239.634765625 447 199.521484375 418 178 364 c 1
 49.0576171875 370 l 1
 89.806640625 482 187.091796875 546 319.091796875 546 c 0
 471.091796875 546 535.985351562 466 510.947265625 324 c 2
 476.739257812 130 l 2
 471.625976562 101 480.215820312 93 500.215820312 93 c 2
 517.215820312 93 l 1
 500.817382812 0 l 1
 491.463867188 -2 471.111328125 -4 453.111328125 -4 c 0x6320
 395.111328125 -4 355.814453125 17 357.275390625 82 c 1
 320.225585938 25 245.701171875 -12 158.701171875 -12 c 0
201.099609375 81 m 0
 286.099609375 81 349.62109375 135 363.903320312 216 c 2
 369.193359375 246 l 1
 226.255859375 218 l 2
 167.31640625 207 140.084960938 183 133.560546875 146 c 0xa320
 126.155273438 104 150.099609375 81 201.099609375 81 c 0
EndSplineSet
Validated: 33
Substitution2: "'ss02' Style Set 2 in Latin lookup 35 subtable" atilde.ss02
Substitution2: "'ss01' Style Set 1 in Latin lookup 34 subtable" atilde.ss01
AlternateSubs2: "'aalt' Access All Alternates in Latin lookup 1 subtable" atilde.ss01 atilde.ss02
EndChar

StartChar: ae
Encoding: 230 230 182
Width: 945
GlyphClass: 2
Flags: HMW
HStem: -12 92 -12 102<618.5 685.5 618.5 717> 231 86<527 773 527 906 527 773> 445 101<618.5 687> 447 99<254.5 321>
VStem: 39 133<124 163.5 124 186.5> 390 137<231 231 231 240 231 240 231 368.5> 773 133<231 317>
AnchorPoint: "Anchor-3" 521.079 534 basechar 0
AnchorPoint: "Anchor-2" 767.211 30 basechar 0
AnchorPoint: "Anchor-0" 426.921 0 basechar 0
LayerCount: 2
Fore
SplineSet
176.8046875 -12 m 0x77
 67.8046875 -12 -1.2021484375 39 15.548828125 134 c 0
 34.0625 239 115.46875 281 218.465820312 298 c 2
 400.580078125 327 l 1
 415.21484375 410 387.739257812 447 317.739257812 447 c 0x6f
 254.739257812 447 213.919921875 414 195.103515625 364 c 1
 66.162109375 370 l 1
 106.91015625 482 203.1953125 546 334.1953125 546 c 0
 417.1953125 546 477.139648438 523 507.852539062 476 c 1
 560.787109375 521 627.1953125 546 702.1953125 546 c 0
 854.1953125 546 936.504882812 440 904.765625 260 c 2
 899.65234375 231 l 1
 520.65234375 231 l 1
 508.077148438 137 548.790039062 90 625.790039062 90 c 0
 682.790039062 90 725.55078125 117 749.837890625 164 c 1
 879.427734375 156 l 1
 832.08984375 52 729.8046875 -12 605.8046875 -12 c 0
 509.8046875 -12 441.857421875 28 409.024414062 97 c 1
 357.681640625 27 274.8046875 -12 176.8046875 -12 c 0x77
535.81640625 317 m 1
 781.81640625 317 l 1
 792.157226562 404 752.385742188 445 684.385742188 445 c 0xb7
 615.385742188 445 560.451171875 400 535.81640625 317 c 1
231.026367188 80 m 0
 304.555664062 83 365.490234375 128 380.654296875 214 c 2
 385.239257812 240 l 1
 243.360351562 218 l 2
 180.596679688 208 157.01171875 182 150.48828125 145 c 0
 143.08203125 103 165.673828125 78 231.026367188 80 c 0
EndSplineSet
Validated: 33
EndChar

StartChar: b
Encoding: 98 98 183
Width: 621
GlyphClass: 2
Flags: HMW
HStem: -12 104<319.5 364.5 287 426> 0 21G<70 192 70 70> 442 104<320 365.5> 690 20G<70 198 198 198>
VStem: 70 123.5 70 128<212.5 322.5 458 710> 449 133<212.5 322.5>
AnchorPoint: "Anchor-3" 344.62 534 basechar 0
AnchorPoint: "Anchor-1" 141.541 267 basechar 0
AnchorPoint: "Anchor-0" 250.462 0 basechar 0
LayerCount: 2
Fore
SplineSet
293.345703125 -12 m 0xb6
 218.345703125 -12 167.340820312 22 147.391601562 79 c 1
 130.461914062 0 l 1x7a
 8.4619140625 0 l 1x76
 133.654296875 710 l 1
 261.654296875 710 l 1
 217.219726562 458 l 1
 253.68359375 506 317.736328125 546 391.736328125 546 c 0
 529.736328125 546 597.516601562 437 567.541015625 267 c 0
 537.565429688 97 431.345703125 -12 293.345703125 -12 c 0xb6
282.68359375 92 m 0
 355.68359375 92 415.321289062 158 434.541015625 267 c 0
 454.11328125 378 418.3984375 442 345.3984375 442 c 0
 262.3984375 442 203.11328125 378 183.541015625 267 c 0xb6
 164.321289062 158 200.68359375 92 282.68359375 92 c 0
EndSplineSet
Validated: 33
EndChar

StartChar: c
Encoding: 99 99 184
Width: 580
GlyphClass: 2
Flags: HMW
HStem: -12 104<260.5 333 260.5 370.5> 442 104<260.5 333>
VStem: 39 133<211.5 322 211.5 351>
AnchorPoint: "Anchor-3" 349.079 534 basechar 0
AnchorPoint: "Anchor-0" 254.921 0 basechar 0
LayerCount: 2
Fore
SplineSet
252.8046875 -12 m 0
 93.8046875 -12 9.201171875 98 39 267 c 0
 68.623046875 435 192.1953125 546 351.1953125 546 c 0
 486.1953125 546 571.147460938 472 564.75390625 345 c 1
 431.51953125 338 l 1
 432.509765625 406 394.857421875 442 332.857421875 442 c 0
 249.857421875 442 191.395507812 377 172 267 c 0
 152.427734375 156 188.142578125 92 271.142578125 92 c 0
 333.142578125 92 384.490234375 128 407.71484375 203 c 1
 538.657226562 197 l 1
 501.086914062 69 389.8046875 -12 252.8046875 -12 c 0
EndSplineSet
Validated: 33
EndChar

StartChar: cacute
Encoding: 263 263 185
Width: 580
GlyphClass: 2
Flags: HMW
HStem: -12 104<260.5 333 260.5 370.5> 442 104<260.5 333> 594 140<244 434 305 344>
VStem: 39 133<211.5 322 211.5 351>
AnchorPoint: "Anchor-3" 332.505 534 basechar 0
AnchorPoint: "Anchor-0" 238.346 0 basechar 0
LayerCount: 2
Fore
SplineSet
285.083984375 594 m 1
 370.76953125 734 l 1
 499.76953125 734 l 1
 385.083984375 594 l 1
 285.083984375 594 l 1
236.23046875 -12 m 0
 77.23046875 -12 -7.3740234375 98 22.4248046875 267 c 0
 52.0478515625 435 175.620117188 546 334.620117188 546 c 0
 469.620117188 546 554.572265625 472 548.178710938 345 c 1
 414.944335938 338 l 1
 415.934570312 406 378.282226562 442 316.282226562 442 c 0
 233.282226562 442 174.821289062 377 155.424804688 267 c 0
 135.852539062 156 171.568359375 92 254.568359375 92 c 0
 316.568359375 92 367.916015625 128 391.140625 203 c 1
 522.08203125 197 l 1
 484.512695312 69 373.23046875 -12 236.23046875 -12 c 0
EndSplineSet
Validated: 33
EndChar

